<?xml version="1.0" encoding="UTF-8" standalone="no"?><!DOCTYPE svg PUBLIC "-//W3C//DTD SVG 1.1//EN" "http://www.w3.org/Graphics/SVG/1.1/DTD/svg11.dtd"><svg width="2917px" height="750px" version="1.1" xmlns="http://www.w3.org/2000/svg" xmlns:xlink="http://www.w3.org/1999/xlink" xml:space="preserve" xmlns:serif="http://www.serif.com/" style="fill-rule:evenodd;clip-rule:evenodd;"><text x="0px" y="139.583px" style="font-family:'IBMPlexSans-Regular', 'IBM Plex Sans', sans-serif;font-size:62.5px;">float (4 b<tspan x="251.438px 282.625px 304.313px " y="139.583px 139.583px 139.583px ">yte</tspan>s):</text><text x="0px" y="389.583px" style="font-family:'IBMPlexSans-Regular', 'IBM Plex Sans', sans-serif;font-size:62.5px;">v<tspan x="30.25px " y="389.583px ">e</tspan>c4 (16 b<tspan x="294.875px 326.063px 347.75px " y="389.583px 389.583px 389.583px ">yte</tspan>s):</text><text x="0px" y="639.583px" style="font-family:'IBMPlexSans-Regular', 'IBM Plex Sans', sans-serif;font-size:62.5px;">v<tspan x="30.25px 64.563px 87.75px 109.438px 143px " y="639.583px 639.583px 639.583px 639.583px 639.583px ">ertex</tspan>Data:</text><g id="g_float"><rect x="729.167" y="66.667" width="218.75" height="116.667" style="fill:#add8e6;stroke:#000;stroke-width:4.17px;"/><rect x="947.917" y="66.667" width="218.75" height="116.667" style="fill:#add8e6;stroke:#000;stroke-width:4.17px;"/><rect x="1166.67" y="66.667" width="218.75" height="116.667" style="fill:#add8e6;stroke:#000;stroke-width:4.17px;"/><rect x="1385.42" y="66.667" width="218.75" height="116.667" style="fill:#add8e6;stroke:#000;stroke-width:4.17px;"/><rect x="729.167" y="66.667" width="875" height="116.667" style="fill:none;stroke:#f00;stroke-width:8.33px;"/></g><g id="g_vec4"><rect x="729.167" y="316.667" width="72.917" height="116.667" style="fill:#add8e6;stroke:#000;stroke-width:4.17px;"/><rect x="802.083" y="316.667" width="72.917" height="116.667" style="fill:#add8e6;stroke:#000;stroke-width:4.17px;"/><rect x="875" y="316.667" width="72.917" height="116.667" style="fill:#add8e6;stroke:#000;stroke-width:4.17px;"/><rect x="947.917" y="316.667" width="72.917" height="116.667" style="fill:#add8e6;stroke:#000;stroke-width:4.17px;"/><rect x="1020.83" y="316.667" width="72.917" height="116.667" style="fill:#add8e6;stroke:#000;stroke-width:4.17px;"/><rect x="1093.75" y="316.667" width="72.917" height="116.667" style="fill:#add8e6;stroke:#000;stroke-width:4.17px;"/><rect x="1166.67" y="316.667" width="72.917" height="116.667" style="fill:#add8e6;stroke:#000;stroke-width:4.17px;"/><rect x="1239.58" y="316.667" width="72.917" height="116.667" style="fill:#add8e6;stroke:#000;stroke-width:4.17px;"/><rect x="1312.5" y="316.667" width="72.917" height="116.667" style="fill:#add8e6;stroke:#000;stroke-width:4.17px;"/><rect x="1385.42" y="316.667" width="72.917" height="116.667" style="fill:#add8e6;stroke:#000;stroke-width:4.17px;"/><rect x="1458.33" y="316.667" width="72.917" height="116.667" style="fill:#add8e6;stroke:#000;stroke-width:4.17px;"/><rect x="1531.25" y="316.667" width="72.917" height="116.667" style="fill:#add8e6;stroke:#000;stroke-width:4.17px;"/><rect x="1604.17" y="316.667" width="72.917" height="116.667" style="fill:#add8e6;stroke:#000;stroke-width:4.17px;"/><rect x="1677.08" y="316.667" width="72.917" height="116.667" style="fill:#add8e6;stroke:#000;stroke-width:4.17px;"/><rect x="1750" y="316.667" width="72.917" height="116.667" style="fill:#add8e6;stroke:#000;stroke-width:4.17px;"/><rect x="1822.92" y="316.667" width="72.917" height="116.667" style="fill:#add8e6;stroke:#000;stroke-width:4.17px;"/><rect x="729.167" y="316.667" width="291.667" height="116.667" style="fill:none;stroke:#f00;stroke-width:8.33px;"/><rect x="1020.83" y="316.667" width="291.667" height="116.667" style="fill:none;stroke:#f00;stroke-width:8.33px;"/><rect x="1312.5" y="316.667" width="291.667" height="116.667" style="fill:none;stroke:#f00;stroke-width:8.33px;"/><rect x="1604.17" y="316.667" width="291.667" height="116.667" style="fill:none;stroke:#f00;stroke-width:8.33px;"/><rect x="729.167" y="316.667" width="1166.67" height="116.667" style="fill:none;stroke:#00008b;stroke-width:12.5px;"/></g><g id="g_vertexData"><rect x="729.167" y="566.667" width="89.931" height="116.667" style="fill:none;stroke:#f00;stroke-width:8.33px;"/><rect x="819.097" y="566.667" width="89.931" height="116.667" style="fill:none;stroke:#f00;stroke-width:8.33px;"/><rect x="909.028" y="566.667" width="89.931" height="116.667" style="fill:none;stroke:#f00;stroke-width:8.33px;"/><rect x="998.958" y="566.667" width="89.931" height="116.667" style="fill:none;stroke:#f00;stroke-width:8.33px;"/><rect x="1088.89" y="566.667" width="89.931" height="116.667" style="fill:none;stroke:#f00;stroke-width:8.33px;"/><rect x="1178.82" y="566.667" width="89.931" height="116.667" style="fill:none;stroke:#f00;stroke-width:8.33px;"/><rect x="1268.75" y="566.667" width="89.931" height="116.667" style="fill:none;stroke:#f00;stroke-width:8.33px;"/><rect x="1358.68" y="566.667" width="89.931" height="116.667" style="fill:none;stroke:#f00;stroke-width:8.33px;"/><rect x="1448.61" y="566.667" width="89.931" height="116.667" style="fill:none;stroke:#f00;stroke-width:8.33px;"/><rect x="1538.54" y="566.667" width="89.931" height="116.667" style="fill:none;stroke:#f00;stroke-width:8.33px;"/><rect x="1628.47" y="566.667" width="89.931" height="116.667" style="fill:none;stroke:#f00;stroke-width:8.33px;"/><rect x="1718.4" y="566.667" width="89.931" height="116.667" style="fill:none;stroke:#f00;stroke-width:8.33px;"/><rect x="1808.33" y="566.667" width="89.931" height="116.667" style="fill:none;stroke:#f00;stroke-width:8.33px;"/><rect x="1898.26" y="566.667" width="89.931" height="116.667" style="fill:none;stroke:#f00;stroke-width:8.33px;"/><rect x="1988.19" y="566.667" width="89.931" height="116.667" style="fill:none;stroke:#f00;stroke-width:8.33px;"/><rect x="2078.12" y="566.667" width="89.931" height="116.667" style="fill:none;stroke:#f00;stroke-width:8.33px;"/><rect x="2168.06" y="566.667" width="89.931" height="116.667" style="fill:none;stroke:#f00;stroke-width:8.33px;"/><rect x="2257.99" y="566.667" width="89.931" height="116.667" style="fill:none;stroke:#f00;stroke-width:8.33px;"/><rect x="2347.92" y="566.667" width="89.931" height="116.667" style="fill:none;stroke:#f00;stroke-width:8.33px;"/><rect x="2437.85" y="566.667" width="89.931" height="116.667" style="fill:none;stroke:#f00;stroke-width:8.33px;"/><rect x="2527.78" y="566.667" width="89.931" height="116.667" style="fill:none;stroke:#f00;stroke-width:8.33px;"/><rect x="2617.71" y="566.667" width="89.931" height="116.667" style="fill:none;stroke:#f00;stroke-width:8.33px;"/><rect x="2707.64" y="566.667" width="89.931" height="116.667" style="fill:none;stroke:#f00;stroke-width:8.33px;"/><rect x="2797.57" y="566.667" width="89.931" height="116.667" style="fill:none;stroke:#f00;stroke-width:8.33px;"/><rect x="729.167" y="566.667" width="359.722" height="116.667" style="fill:none;stroke:#00008b;stroke-width:12.5px;"/><rect x="1088.89" y="566.667" width="359.722" height="116.667" style="fill:none;stroke:#00008b;stroke-width:12.5px;"/><rect x="1448.61" y="566.667" width="359.722" height="116.667" style="fill:none;stroke:#00008b;stroke-width:12.5px;"/><rect x="1808.33" y="566.667" width="359.722" height="116.667" style="fill:none;stroke:#00008b;stroke-width:12.5px;"/><rect x="2168.06" y="566.667" width="359.722" height="116.667" style="fill:none;stroke:#00008b;stroke-width:12.5px;"/><rect x="2527.78" y="566.667" width="359.722" height="116.667" style="fill:none;stroke:#00008b;stroke-width:12.5px;"/><rect x="729.167" y="566.667" width="1079.17" height="116.667" style="fill:#ff0;fill-opacity:0.3;"/><rect x="1808.33" y="566.667" width="1079.17" height="116.667" style="fill:#808080;fill-opacity:0.3;"/></g></svg>