<?xml version="1.0" encoding="UTF-8" standalone="no"?><!DOCTYPE svg PUBLIC "-//W3C//DTD SVG 1.1//EN" "http://www.w3.org/Graphics/SVG/1.1/DTD/svg11.dtd"><svg width="2084px" height="2084px" version="1.1" xmlns="http://www.w3.org/2000/svg" xmlns:xlink="http://www.w3.org/1999/xlink" xml:space="preserve" xmlns:serif="http://www.serif.com/" style="fill-rule:evenodd;clip-rule:evenodd;"><path id="line11" d="M590.612,996.446l-451.055,-45.221" style="fill:none;fill-rule:nonzero;stroke:#000;stroke-width:4.17px;"/><path id="line13" d="M1041.67,528.746l-0,-512.921" style="fill:none;fill-rule:nonzero;stroke:#000;stroke-width:4.17px;"/><path id="line15" d="M1302.08,963.342l520.834,-156.65" style="fill:none;fill-rule:nonzero;stroke:#000;stroke-width:4.17px;"/><path id="polygon17" d="M851.028,1431.04l0,-1025.84l-520.833,156.65l0,1025.84l520.833,-156.649Z" style="fill:#00f;fill-opacity:0.1;fill-rule:nonzero;stroke:#000;stroke-width:4.17px;"/><path id="polygon19" d="M1753.14,1521.48l-902.11,-90.441l-520.833,156.649l902.11,90.442l520.833,-156.65Z" style="fill:#00f;fill-opacity:0.1;fill-rule:nonzero;stroke:#000;stroke-width:4.17px;"/><path id="polygon21" d="M1753.14,1521.48l-902.11,-90.441l0,-1025.84l902.11,90.442l0,1025.84Z" style="fill:#00f;fill-opacity:0.1;fill-rule:nonzero;stroke:#000;stroke-width:4.17px;"/><path id="line23" d="M1492.72,1086.89l-902.11,-90.442" style="fill:none;fill-rule:nonzero;stroke:#000;stroke-width:4.17px;stroke-dasharray:12.5,12.5;"/><path id="line25" d="M1041.67,1554.59l-0,-1025.84" style="fill:none;fill-rule:nonzero;stroke:#000;stroke-width:4.17px;stroke-dasharray:12.5,12.5;"/><path id="line27" d="M1302.08,963.342l-520.833,156.65" style="fill:none;fill-rule:nonzero;stroke:#000;stroke-width:4.17px;stroke-dasharray:12.5,12.5;"/><path id="polygon29" d="M1753.14,1521.48l0,-1025.84l-520.833,156.65l-0,1025.84l520.833,-156.65Z" style="fill:#00f;fill-opacity:0.1;fill-rule:nonzero;stroke:#000;stroke-width:4.17px;"/><path id="polygon31" d="M1753.14,495.642l-902.11,-90.442l-520.833,156.65l902.11,90.442l520.833,-156.65Z" style="fill:#00f;fill-opacity:0.1;fill-rule:nonzero;stroke:#000;stroke-width:4.17px;"/><path id="polygon33" d="M1232.31,1678.13l-902.11,-90.442l0,-1025.84l902.11,90.442l-0,1025.84Z" style="fill:#00f;fill-opacity:0.1;fill-rule:nonzero;stroke:#000;stroke-width:4.17px;"/><path id="line35" d="M1492.72,1086.89l451.054,45.22" style="fill:none;fill-rule:nonzero;stroke:#000;stroke-width:4.17px;"/><path id="line37" d="M1041.67,1554.59l-0,512.921" style="fill:none;fill-rule:nonzero;stroke:#000;stroke-width:4.17px;"/><path id="line39" d="M781.25,1119.99l-520.833,156.649" style="fill:none;fill-rule:nonzero;stroke:#000;stroke-width:4.17px;"/><g id="text2853"><text x="87.33px" y="905.93px" style="font-family:'IBMPlexSans-Regular', 'IBM Plex Sans', sans-serif;font-size:100px;">-<tspan x="123.23px " y="905.93px ">X</tspan></text></g><g id="text2871"><text x="1872.66px" y="1264.96px" style="font-family:'IBMPlexSans-Regular', 'IBM Plex Sans', sans-serif;font-size:100px;">+X</text></g><g id="text2883"><text x="1835.19px" y="787.337px" style="font-family:'IBMPlexSans-Regular', 'IBM Plex Sans', sans-serif;font-size:100px;">+Z</text></g><g id="text2877"><text x="1082.95px" y="132.019px" style="font-family:'IBMPlexSans-Regular', 'IBM Plex Sans', sans-serif;font-size:100px;">+Y</text></g><g id="text2859"><text x="156.033px" y="1377.3px" style="font-family:'IBMPlexSans-Regular', 'IBM Plex Sans', sans-serif;font-size:100px;">-<tspan x="191.933px " y="1377.3px ">Z</tspan></text></g><g id="text2865"><text x="1111.07px" y="2038.9px" style="font-family:'IBMPlexSans-Regular', 'IBM Plex Sans', sans-serif;font-size:100px;">-<tspan x="1145.97px " y="2038.9px ">Y</tspan></text></g></svg>