<?xml version="1.0" encoding="UTF-8" standalone="no"?><!DOCTYPE svg PUBLIC "-//W3C//DTD SVG 1.1//EN" "http://www.w3.org/Graphics/SVG/1.1/DTD/svg11.dtd"><svg width="2917px" height="1563px" version="1.1" xmlns="http://www.w3.org/2000/svg" xmlns:xlink="http://www.w3.org/1999/xlink" xml:space="preserve" xmlns:serif="http://www.serif.com/" style="fill-rule:evenodd;clip-rule:evenodd;stroke-linejoin:round;stroke-miterlimit:10;"><g id="Background"><path id="path4" d="M95.833,320.293c0,-33.253 26.957,-60.21 60.21,-60.21l710.683,0c15.969,0 31.283,6.344 42.575,17.635c11.291,11.292 17.635,26.606 17.635,42.575l-0,220.788c-0,33.253 -26.957,60.21 -60.21,60.21l-710.683,-0c-33.253,-0 -60.21,-26.957 -60.21,-60.21l0,-220.788Z" style="fill:#efecfd;fill-rule:nonzero;stroke:#000;stroke-width:4.17px;"/><path id="path4-4" d="M95.833,735.439c0,-33.253 26.957,-60.209 60.21,-60.209l710.683,-0c15.969,-0 31.283,6.343 42.575,17.635c11.291,11.291 17.635,26.606 17.635,42.574l-0,220.789c-0,33.252 -26.957,60.209 -60.21,60.209l-710.683,0c-33.253,0 -60.21,-26.957 -60.21,-60.209l0,-220.789Z" style="fill:#efecfd;fill-rule:nonzero;stroke:#000;stroke-width:4.17px;"/><path id="path4-2" d="M95.833,1135.44c0,-33.253 26.957,-60.209 60.21,-60.209l710.683,-0c15.969,-0 31.283,6.343 42.575,17.635c11.291,11.291 17.635,26.606 17.635,42.574l-0,220.788c-0,33.253 -26.957,60.21 -60.21,60.21l-710.683,0c-33.253,0 -60.21,-26.957 -60.21,-60.21l0,-220.788Z" style="fill:#efecfd;fill-rule:nonzero;stroke:#000;stroke-width:4.17px;"/><rect id="rect3858" x="1154.17" y="37.5" width="550" height="979.167" style="fill:#d3f3a2;"/><rect id="rect3860" x="1770.83" y="37.5" width="437.5" height="979.167" style="fill:#efdefb;"/><rect id="rect3864" x="2266.67" y="37.5" width="604.167" height="979.167" style="fill:#d3f7ef;"/></g><g id="Foreground"><text x="212.833px" y="233.333px" style="font-family:'IBMPlexSans-Regular', 'IBM Plex Sans', sans-serif;font-size:83.333px;">V<tspan x="261.083px 306.833px 337.75px 366.667px 411.417px " y="233.333px 233.333px 233.333px 233.333px 233.333px ">ertex</tspan> Shaders</text><text x="463.167px" y="522.268px" style="font-family:'IBMPlexSans-Regular', 'IBM Plex Sans', sans-serif;font-size:83.333px;">gl<tspan x="531.083px 578.167px 627px " y="522.268px 522.268px 522.268px ">_Po</tspan>sition</text><text x="463.167px" y="945.185px" style="font-family:'IBMPlexSans-Regular', 'IBM Plex Sans', sans-serif;font-size:83.333px;">gl<tspan x="531.083px 578.167px 627px " y="945.185px 945.185px 945.185px ">_Po</tspan>sition</text><text x="463.167px" y="1349.35px" style="font-family:'IBMPlexSans-Regular', 'IBM Plex Sans', sans-serif;font-size:83.333px;">gl<tspan x="531.083px 578.167px 627px " y="1349.35px 1349.35px 1349.35px ">_Po</tspan>sition</text><text x="1206.54px" y="126.435px" style="font-family:'IBMPlexSans-Regular', 'IBM Plex Sans', sans-serif;font-size:83.333px;">Divide b<tspan x="1506.79px " y="126.435px ">y</tspan> W</text><g transform="matrix(4.16667,0,0,4.16667,2137,126.435)"><text x="-75.71px" y="-0px" style="font-family:'IBMPlexSans-Regular', 'IBM Plex Sans', sans-serif;font-size:20px;">Viewport</text><g transform="matrix(20,0,0,20,10.5596,25)"></g><text x="-81.32px" y="25px" style="font-family:'IBMPlexSans-Regular', 'IBM Plex Sans', sans-serif;font-size:20px;">T<tspan x="-70.78px " y="25px ">r</tspan>ans<tspan x="-31.84px " y="25px ">f</tspan>orm</text></g><text x="2390.54px" y="126.435px" style="font-family:'IBMPlexSans-Regular', 'IBM Plex Sans', sans-serif;font-size:83.333px;">R<tspan x="2443.04px 2487.54px 2527.54px 2556.46px " y="126.435px 126.435px 126.435px 126.435px ">aste</tspan>riz<tspan x="2691.46px " y="126.435px ">e</tspan>r</text><path id="path3866" d="M897.917,502.083c122.916,-31.25 110.416,-60.416 145.833,-108.333c33.435,-45.235 60.417,-93.75 204.167,-93.75l1069.79,0c59.385,0 244.148,56.162 327.151,206.884c83.003,150.722 64.244,396.005 64.244,432.478" style="fill:none;fill-rule:nonzero;stroke:#f00;stroke-width:4.17px;stroke-linejoin:miter;"/><path id="path3870" d="M897.917,929.167c43.75,1.041 56.25,1.302 68.489,-44.271c17.603,-74.185 17.263,-279.148 71.395,-351.236c84.421,-110.396 176.766,-124.285 210.116,-124.285l1069.79,-7.292c135.417,0 291.221,238.355 291.221,295.684" style="fill:none;fill-rule:nonzero;stroke:#f00;stroke-width:4.17px;stroke-linejoin:miter;"/><path id="path3880" d="M897.917,1337.11c171.132,-0 155.008,-79.851 155.008,-217.651c0,-137.8 39.422,-355.138 68.246,-477.394c27.085,-114.882 71.541,-137.375 126.746,-137.375l1069.79,0c46.174,0 128.7,103.161 117.633,193.077c-11.291,91.727 -40.017,167.938 -40.017,194.455" style="fill:none;fill-rule:nonzero;stroke:#f00;stroke-width:4.17px;stroke-linejoin:miter;"/><path id="path3888" d="M2608.93,697.767l100.174,241.595l-313.779,-47.14l213.605,-194.455Z" style="fill:none;fill-rule:nonzero;stroke:#000;stroke-width:8.33px;stroke-linejoin:miter;"/><path id="path3897" d="M2635.92,697.743l0,0.049c0,14.807 -12.185,26.992 -26.993,26.992c-14.807,0 -26.992,-12.185 -26.992,-26.992l-0,-0.049c-0,-14.808 12.185,-26.993 26.992,-26.993c14.808,0 26.993,12.185 26.993,26.993Z" style="fill-rule:nonzero;"/><path id="use3899" d="M2422.38,892.198l0,0.048c0,14.808 -12.184,26.993 -26.992,26.993c-14.808,-0 -26.993,-12.185 -26.993,-26.993l0,-0.048c0,-14.808 12.185,-26.993 26.993,-26.993c14.808,-0 26.992,12.185 26.992,26.993Z" style="fill-rule:nonzero;"/><path id="use3901" d="M2736.1,939.338l-0,0.048c-0,14.808 -12.185,26.993 -26.993,26.993c-14.808,0 -26.993,-12.185 -26.993,-26.993l0,-0.048c0,-14.808 12.185,-26.993 26.993,-26.993c14.808,0 26.993,12.185 26.993,26.993Z" style="fill-rule:nonzero;"/></g></svg>