<?xml version="1.0" encoding="UTF-8" standalone="no"?>
<!DOCTYPE svg PUBLIC "-//W3C//DTD SVG 1.1//EN" "http://www.w3.org/Graphics/SVG/1.1/DTD/svg11.dtd">
<svg width="100%" height="100%" viewBox="0 0 700 375" version="1.1" xmlns="http://www.w3.org/2000/svg" xmlns:xlink="http://www.w3.org/1999/xlink" xml:space="preserve" xmlns:serif="http://www.serif.com/" style="fill-rule:evenodd;clip-rule:evenodd;stroke-linejoin:round;stroke-miterlimit:10;">
    <g id="Background">
        <path id="path4" d="M23,76.87C23,68.89 29.47,62.42 37.45,62.42L208.014,62.42C211.847,62.42 215.522,63.942 218.232,66.652C220.942,69.362 222.465,73.038 222.465,76.87L222.465,129.859C222.465,137.84 215.995,144.31 208.014,144.31L37.45,144.31C29.47,144.31 23,137.84 23,129.859L23,76.87Z" style="fill:rgb(239,236,253);fill-rule:nonzero;stroke:black;stroke-width:1px;"/>
        <path id="path4-4" d="M23,176.505C23,168.525 29.47,162.055 37.45,162.055L208.014,162.055C211.847,162.055 215.522,163.578 218.232,166.287C220.942,168.997 222.465,172.673 222.465,176.505L222.465,229.495C222.465,237.475 215.995,243.945 208.014,243.945L37.45,243.945C29.47,243.945 23,237.475 23,229.495L23,176.505Z" style="fill:rgb(239,236,253);fill-rule:nonzero;stroke:black;stroke-width:1px;"/>
        <path id="path4-2" d="M23,272.505C23,264.525 29.47,258.055 37.45,258.055L208.014,258.055C211.847,258.055 215.522,259.578 218.232,262.287C220.942,264.997 222.465,268.673 222.465,272.505L222.465,325.495C222.465,333.475 215.995,339.945 208.014,339.945L37.45,339.945C29.47,339.945 23,333.475 23,325.495L23,272.505Z" style="fill:rgb(239,236,253);fill-rule:nonzero;stroke:black;stroke-width:1px;"/>
        <g id="rect3858" transform="matrix(1,0,0,1.13527,0,-22.7874)">
            <rect x="277" y="28" width="132" height="207" style="fill:rgb(211,243,162);"/>
        </g>
        <g id="rect3860" transform="matrix(1,0,0,1.03982,0,-0.358407)">
            <rect x="425" y="9" width="105" height="226" style="fill:rgb(239,222,251);"/>
        </g>
        <g id="rect3864" transform="matrix(1,0,0,1.16337,0,-29.3911)">
            <rect x="544" y="33" width="145" height="202" style="fill:rgb(211,247,239);"/>
        </g>
    </g>
    <g id="Foreground">
        <g transform="matrix(1,0,0,1,119,56)">
            <text x="-67.92px" y="0px" style="font-family:'IBMPlexSans-Regular', 'IBM Plex Sans', sans-serif;font-size:20px;">V<tspan x="-56.34px " y="0px ">e</tspan>rte<tspan x="-20.26px " y="0px ">x</tspan> Shaders</text>
        </g>
        <g transform="matrix(1,0,0,1,211,125.344)">
            <text x="-99.84px" y="0px" style="font-family:'IBMPlexSans-Regular', 'IBM Plex Sans', sans-serif;font-size:20px;">gl<tspan x="-83.54px -72.24px -60.52px " y="0px 0px 0px ">_Po</tspan>sition</text>
        </g>
        <g transform="matrix(1,0,0,1,211,226.844)">
            <text x="-99.84px" y="0px" style="font-family:'IBMPlexSans-Regular', 'IBM Plex Sans', sans-serif;font-size:20px;">gl<tspan x="-83.54px -72.24px -60.52px " y="0px 0px 0px ">_Po</tspan>sition</text>
        </g>
        <g transform="matrix(1,0,0,1,211,323.844)">
            <text x="-99.84px" y="0px" style="font-family:'IBMPlexSans-Regular', 'IBM Plex Sans', sans-serif;font-size:20px;">gl<tspan x="-83.54px -72.24px -60.52px " y="0px 0px 0px ">_Po</tspan>sition</text>
        </g>
        <g transform="matrix(1,0,0,1,341.859,30.3444)">
            <text x="-52.29px" y="0px" style="font-family:'IBMPlexSans-Regular', 'IBM Plex Sans', sans-serif;font-size:20px;">Divide b<tspan x="19.77px " y="0px ">y</tspan> W</text>
        </g>
        <g transform="matrix(1,0,0,1,512.88,30.3444)">
            <text x="-75.71px" y="-0px" style="font-family:'IBMPlexSans-Regular', 'IBM Plex Sans', sans-serif;font-size:20px;">Viewport</text>
            <g transform="matrix(20,0,0,20,10.5596,25)">
            </g>
            <text x="-81.32px" y="25px" style="font-family:'IBMPlexSans-Regular', 'IBM Plex Sans', sans-serif;font-size:20px;">T<tspan x="-70.78px " y="25px ">r</tspan>ans<tspan x="-31.84px " y="25px ">f</tspan>orm</text>
        </g>
        <g transform="matrix(1,0,0,1,619,30.3444)">
            <text x="-45.27px" y="0px" style="font-family:'IBMPlexSans-Regular', 'IBM Plex Sans', sans-serif;font-size:20px;">R<tspan x="-32.67px -21.99px -12.39px " y="0px 0px 0px ">ast</tspan>eriz<tspan x="26.95px " y="0px ">e</tspan>r</text>
        </g>
        <path id="path3866" d="M215.5,120.5C245,113 242,106 250.5,94.5C258.524,83.644 265,72 299.5,72L556.25,72C570.502,72 614.846,85.479 634.766,121.652C654.687,157.826 650.185,216.693 650.185,225.447" style="fill:none;fill-rule:nonzero;stroke:rgb(255,0,0);stroke-width:1px;stroke-linejoin:miter;"/>
        <path id="path3870" d="M215.5,223C226,223.25 229,223.313 231.938,212.375C236.162,194.571 236.081,145.38 249.072,128.078C269.333,101.583 291.496,98.25 299.5,98.25L556.25,96.5C588.75,96.5 626.143,153.705 626.143,167.464" style="fill:none;fill-rule:nonzero;stroke:rgb(255,0,0);stroke-width:1px;stroke-linejoin:miter;"/>
        <path id="path3880" d="M215.5,320.906C256.572,320.906 252.702,301.742 252.702,268.67C252.702,235.598 262.163,183.437 269.081,154.096C275.581,126.524 286.251,121.126 299.5,121.126L556.25,121.126C567.332,121.126 587.138,145.884 584.482,167.464C581.772,189.479 574.878,207.769 574.878,214.133" style="fill:none;fill-rule:nonzero;stroke:rgb(255,0,0);stroke-width:1px;stroke-linejoin:miter;"/>
        <path id="path3888" d="M626.143,167.464L650.185,225.447L574.878,214.133L626.143,167.464Z" style="fill:none;fill-rule:nonzero;stroke:black;stroke-width:2px;stroke-linejoin:miter;"/>
        <path id="path3897" d="M632.621,167.458L632.621,167.47C632.621,171.024 629.697,173.948 626.143,173.948C622.589,173.948 619.665,171.024 619.665,167.47L619.665,167.458C619.665,163.904 622.589,160.98 626.143,160.98C629.697,160.98 632.621,163.904 632.621,167.458Z" style="fill-rule:nonzero;"/>
        <g id="use3899" transform="matrix(1,0,0,1,-51.25,46.6691)">
            <path d="M632.621,167.458L632.621,167.47C632.621,171.024 629.697,173.948 626.143,173.948C622.589,173.948 619.665,171.024 619.665,167.47L619.665,167.458C619.665,163.904 622.589,160.98 626.143,160.98C629.697,160.98 632.621,163.904 632.621,167.458Z" style="fill-rule:nonzero;"/>
        </g>
        <g id="use3901" transform="matrix(1,0,0,1,24.0416,57.9828)">
            <path d="M632.621,167.458L632.621,167.47C632.621,171.024 629.697,173.948 626.143,173.948C622.589,173.948 619.665,171.024 619.665,167.47L619.665,167.458C619.665,163.904 622.589,160.98 626.143,160.98C629.697,160.98 632.621,163.904 632.621,167.458Z" style="fill-rule:nonzero;"/>
        </g>
    </g>
</svg>
