<?xml version="1.0" encoding="UTF-8" standalone="no"?><!DOCTYPE svg PUBLIC "-//W3C//DTD SVG 1.1//EN" "http://www.w3.org/Graphics/SVG/1.1/DTD/svg11.dtd"><svg width="3334px" height="1250px" version="1.1" xmlns="http://www.w3.org/2000/svg" xmlns:xlink="http://www.w3.org/1999/xlink" xml:space="preserve" xmlns:serif="http://www.serif.com/" style="fill-rule:evenodd;clip-rule:evenodd;"><g id="g_triangle"><path d="M395.833,208.333l270.834,583.334l-458.334,291.666l187.5,-875Z" style="fill:none;fill-rule:nonzero;stroke:#000;stroke-width:4.17px;"/></g><g id="g_grid"><path d="M1302.08,0l0,1250m104.167,-1250l0,1250m104.167,-1250l-0,1250m104.166,-1250l0,1250m104.167,-1250l0,1250m104.167,-1250l-0,1250m104.166,-1250l0,1250m104.167,-1250l0,1250m-781.25,-1197.92l833.333,0m-833.333,104.167l833.333,-0m-833.333,104.167l833.333,-0m-833.333,104.166l833.333,0m-833.333,104.167l833.333,-0m-833.333,104.167l833.333,-0m-833.333,104.166l833.333,0m-833.333,104.167l833.333,-0m-833.333,104.167l833.333,-0m-833.333,104.166l833.333,0m-833.333,104.167l833.333,0m-833.333,104.167l833.333,-0" style="fill:none;fill-rule:nonzero;stroke:#000;stroke-width:4.17px;"/></g><g id="g_gridCenters"><circle cx="1354.17" cy="104.167" r="14.881" style="fill:none;stroke:#000;stroke-width:4.17px;"/><circle cx="1354.17" cy="208.333" r="14.881" style="fill:none;stroke:#000;stroke-width:4.17px;"/><circle cx="1354.17" cy="312.5" r="14.881" style="fill:none;stroke:#000;stroke-width:4.17px;"/><circle cx="1354.17" cy="416.667" r="14.881" style="fill:none;stroke:#000;stroke-width:4.17px;"/><circle cx="1354.17" cy="520.833" r="14.881" style="fill:none;stroke:#000;stroke-width:4.17px;"/><circle cx="1354.17" cy="625" r="14.881" style="fill:none;stroke:#000;stroke-width:4.17px;"/><circle cx="1354.17" cy="729.167" r="14.881" style="fill:none;stroke:#000;stroke-width:4.17px;"/><circle cx="1354.17" cy="833.333" r="14.881" style="fill:none;stroke:#000;stroke-width:4.17px;"/><circle cx="1354.17" cy="937.5" r="14.881" style="fill:none;stroke:#000;stroke-width:4.17px;"/><circle cx="1354.17" cy="1041.67" r="14.881" style="fill:none;stroke:#000;stroke-width:4.17px;"/><circle cx="1354.17" cy="1145.83" r="14.881" style="fill:none;stroke:#000;stroke-width:4.17px;"/><circle cx="1458.33" cy="104.167" r="14.881" style="fill:none;stroke:#000;stroke-width:4.17px;"/><circle cx="1458.33" cy="208.333" r="14.881" style="fill:none;stroke:#000;stroke-width:4.17px;"/><circle cx="1458.33" cy="312.5" r="14.881" style="fill:none;stroke:#000;stroke-width:4.17px;"/><circle cx="1458.33" cy="416.667" r="14.881" style="fill:none;stroke:#000;stroke-width:4.17px;"/><circle cx="1458.33" cy="520.833" r="14.881" style="fill:none;stroke:#000;stroke-width:4.17px;"/><circle cx="1458.33" cy="625" r="14.881" style="fill:none;stroke:#000;stroke-width:4.17px;"/><circle cx="1458.33" cy="729.167" r="14.881" style="fill:none;stroke:#000;stroke-width:4.17px;"/><circle cx="1458.33" cy="833.333" r="14.881" style="fill:none;stroke:#000;stroke-width:4.17px;"/><circle cx="1458.33" cy="937.5" r="14.881" style="fill:none;stroke:#000;stroke-width:4.17px;"/><circle cx="1458.33" cy="1041.67" r="14.881" style="fill:none;stroke:#000;stroke-width:4.17px;"/><circle cx="1458.33" cy="1145.83" r="14.881" style="fill:none;stroke:#000;stroke-width:4.17px;"/><circle cx="1562.5" cy="104.167" r="14.881" style="fill:none;stroke:#000;stroke-width:4.17px;"/><circle cx="1562.5" cy="208.333" r="14.881" style="fill:none;stroke:#000;stroke-width:4.17px;"/><circle cx="1562.5" cy="312.5" r="14.881" style="fill:none;stroke:#000;stroke-width:4.17px;"/><circle cx="1562.5" cy="416.667" r="14.881" style="fill:none;stroke:#000;stroke-width:4.17px;"/><circle cx="1562.5" cy="520.833" r="14.881" style="fill:none;stroke:#000;stroke-width:4.17px;"/><circle cx="1562.5" cy="625" r="14.881" style="fill:none;stroke:#000;stroke-width:4.17px;"/><circle cx="1562.5" cy="729.167" r="14.881" style="fill:none;stroke:#000;stroke-width:4.17px;"/><circle cx="1562.5" cy="833.333" r="14.881" style="fill:none;stroke:#000;stroke-width:4.17px;"/><circle cx="1562.5" cy="937.5" r="14.881" style="fill:none;stroke:#000;stroke-width:4.17px;"/><circle cx="1562.5" cy="1041.67" r="14.881" style="fill:none;stroke:#000;stroke-width:4.17px;"/><circle cx="1562.5" cy="1145.83" r="14.881" style="fill:none;stroke:#000;stroke-width:4.17px;"/><circle cx="1666.67" cy="104.167" r="14.881" style="fill:none;stroke:#000;stroke-width:4.17px;"/><circle cx="1666.67" cy="208.333" r="14.881" style="fill:none;stroke:#000;stroke-width:4.17px;"/><circle cx="1666.67" cy="312.5" r="14.881" style="fill:none;stroke:#000;stroke-width:4.17px;"/><circle cx="1666.67" cy="416.667" r="14.881" style="fill:none;stroke:#000;stroke-width:4.17px;"/><circle cx="1666.67" cy="520.833" r="14.881" style="fill:none;stroke:#000;stroke-width:4.17px;"/><circle cx="1666.67" cy="625" r="14.881" style="fill:none;stroke:#000;stroke-width:4.17px;"/><circle cx="1666.67" cy="729.167" r="14.881" style="fill:none;stroke:#000;stroke-width:4.17px;"/><circle cx="1666.67" cy="833.333" r="14.881" style="fill:none;stroke:#000;stroke-width:4.17px;"/><circle cx="1666.67" cy="937.5" r="14.881" style="fill:none;stroke:#000;stroke-width:4.17px;"/><circle cx="1666.67" cy="1041.67" r="14.881" style="fill:none;stroke:#000;stroke-width:4.17px;"/><circle cx="1666.67" cy="1145.83" r="14.881" style="fill:none;stroke:#000;stroke-width:4.17px;"/><circle cx="1770.83" cy="104.167" r="14.881" style="fill:none;stroke:#000;stroke-width:4.17px;"/><circle cx="1770.83" cy="208.333" r="14.881" style="fill:none;stroke:#000;stroke-width:4.17px;"/><circle cx="1770.83" cy="312.5" r="14.881" style="fill:none;stroke:#000;stroke-width:4.17px;"/><circle cx="1770.83" cy="416.667" r="14.881" style="fill:none;stroke:#000;stroke-width:4.17px;"/><circle cx="1770.83" cy="520.833" r="14.881" style="fill:none;stroke:#000;stroke-width:4.17px;"/><circle cx="1770.83" cy="625" r="14.881" style="fill:none;stroke:#000;stroke-width:4.17px;"/><circle cx="1770.83" cy="729.167" r="14.881" style="fill:none;stroke:#000;stroke-width:4.17px;"/><circle cx="1770.83" cy="833.333" r="14.881" style="fill:none;stroke:#000;stroke-width:4.17px;"/><circle cx="1770.83" cy="937.5" r="14.881" style="fill:none;stroke:#000;stroke-width:4.17px;"/><circle cx="1770.83" cy="1041.67" r="14.881" style="fill:none;stroke:#000;stroke-width:4.17px;"/><circle cx="1770.83" cy="1145.83" r="14.881" style="fill:none;stroke:#000;stroke-width:4.17px;"/><circle cx="1875" cy="104.167" r="14.881" style="fill:none;stroke:#000;stroke-width:4.17px;"/><circle cx="1875" cy="208.333" r="14.881" style="fill:none;stroke:#000;stroke-width:4.17px;"/><circle cx="1875" cy="312.5" r="14.881" style="fill:none;stroke:#000;stroke-width:4.17px;"/><circle cx="1875" cy="416.667" r="14.881" style="fill:none;stroke:#000;stroke-width:4.17px;"/><circle cx="1875" cy="520.833" r="14.881" style="fill:none;stroke:#000;stroke-width:4.17px;"/><circle cx="1875" cy="625" r="14.881" style="fill:none;stroke:#000;stroke-width:4.17px;"/><circle cx="1875" cy="729.167" r="14.881" style="fill:none;stroke:#000;stroke-width:4.17px;"/><circle cx="1875" cy="833.333" r="14.881" style="fill:none;stroke:#000;stroke-width:4.17px;"/><circle cx="1875" cy="937.5" r="14.881" style="fill:none;stroke:#000;stroke-width:4.17px;"/><circle cx="1875" cy="1041.67" r="14.881" style="fill:none;stroke:#000;stroke-width:4.17px;"/><circle cx="1875" cy="1145.83" r="14.881" style="fill:none;stroke:#000;stroke-width:4.17px;"/><circle cx="1979.17" cy="104.167" r="14.881" style="fill:none;stroke:#000;stroke-width:4.17px;"/><circle cx="1979.17" cy="208.333" r="14.881" style="fill:none;stroke:#000;stroke-width:4.17px;"/><circle cx="1979.17" cy="312.5" r="14.881" style="fill:none;stroke:#000;stroke-width:4.17px;"/><circle cx="1979.17" cy="416.667" r="14.881" style="fill:none;stroke:#000;stroke-width:4.17px;"/><circle cx="1979.17" cy="520.833" r="14.881" style="fill:none;stroke:#000;stroke-width:4.17px;"/><circle cx="1979.17" cy="625" r="14.881" style="fill:none;stroke:#000;stroke-width:4.17px;"/><circle cx="1979.17" cy="729.167" r="14.881" style="fill:none;stroke:#000;stroke-width:4.17px;"/><circle cx="1979.17" cy="833.333" r="14.881" style="fill:none;stroke:#000;stroke-width:4.17px;"/><circle cx="1979.17" cy="937.5" r="14.881" style="fill:none;stroke:#000;stroke-width:4.17px;"/><circle cx="1979.17" cy="1041.67" r="14.881" style="fill:none;stroke:#000;stroke-width:4.17px;"/><circle cx="1979.17" cy="1145.83" r="14.881" style="fill:none;stroke:#000;stroke-width:4.17px;"/></g><g id="g_triangle1" serif:id="g_triangle"><path d="M1645.83,208.333l270.834,583.334l-458.334,291.666l187.5,-875Z" style="fill:none;fill-rule:nonzero;stroke:#000;stroke-opacity:0.4;stroke-width:12.5px;"/></g><g id="g_scanConvert"><rect x="2760.42" y="572.917" width="104.167" height="104.167" style="fill:#00f;"/><rect x="2760.42" y="677.083" width="104.167" height="104.167" style="fill:#00f;"/><rect x="2760.42" y="781.25" width="104.167" height="104.167" style="fill:#00f;"/><rect x="2760.42" y="885.417" width="104.167" height="104.167" style="fill:#00f;"/><rect x="2864.58" y="260.417" width="104.167" height="104.167" style="fill:#00f;"/><rect x="2864.58" y="364.583" width="104.167" height="104.167" style="fill:#00f;"/><rect x="2864.58" y="468.75" width="104.167" height="104.167" style="fill:#00f;"/><rect x="2864.58" y="572.917" width="104.167" height="104.167" style="fill:#00f;"/><rect x="2864.58" y="677.083" width="104.167" height="104.167" style="fill:#00f;"/><rect x="2864.58" y="781.25" width="104.167" height="104.167" style="fill:#00f;"/><rect x="2864.58" y="885.417" width="104.167" height="104.167" style="fill:#00f;"/><rect x="2968.75" y="468.75" width="104.167" height="104.167" style="fill:#00f;"/><rect x="2968.75" y="572.917" width="104.167" height="104.167" style="fill:#00f;"/><rect x="2968.75" y="677.083" width="104.167" height="104.167" style="fill:#00f;"/><rect x="2968.75" y="781.25" width="104.167" height="104.167" style="fill:#00f;"/><rect x="3072.92" y="677.083" width="104.167" height="104.167" style="fill:#00f;"/></g><g id="g_grid1" serif:id="g_grid"><path d="M2552.08,0l0,1250m104.167,-1250l0,1250m104.167,-1250l-0,1250m104.166,-1250l0,1250m104.167,-1250l0,1250m104.167,-1250l-0,1250m104.166,-1250l0,1250m104.167,-1250l0,1250m-781.25,-1197.92l833.333,0m-833.333,104.167l833.333,-0m-833.333,104.167l833.333,-0m-833.333,104.166l833.333,0m-833.333,104.167l833.333,-0m-833.333,104.167l833.333,-0m-833.333,104.166l833.333,0m-833.333,104.167l833.333,-0m-833.333,104.167l833.333,-0m-833.333,104.166l833.333,0m-833.333,104.167l833.333,0m-833.333,104.167l833.333,-0" style="fill:none;fill-rule:nonzero;stroke:#000;stroke-width:4.17px;"/></g><g id="g_triangle2" serif:id="g_triangle"><path d="M2895.83,208.333l270.834,583.334l-458.334,291.666l187.5,-875Z" style="fill:none;fill-rule:nonzero;stroke:#000;stroke-opacity:0.4;stroke-width:12.5px;"/></g></svg>