<?xml version="1.0" encoding="UTF-8" standalone="no"?><!DOCTYPE svg PUBLIC "-//W3C//DTD SVG 1.1//EN" "http://www.w3.org/Graphics/SVG/1.1/DTD/svg11.dtd"><svg width="1250px" height="1250px" version="1.1" xmlns="http://www.w3.org/2000/svg" xmlns:xlink="http://www.w3.org/1999/xlink" xml:space="preserve" xmlns:serif="http://www.serif.com/" style="fill-rule:evenodd;clip-rule:evenodd;"><g id="g_axes"><path d="M0,1250l0,-1250m125,1250l0,-1250m125,1250l0,-1250m125,1250l0,-1250m125,1250l0,-1250m125,1250l0,-1250m125,1250l0,-1250m125,1250l0,-1250m125,1250l0,-1250m125,1250l0,-1250m125,1250l0,-1250m-1250,1250l1250,0m-1250,-125l1250,0m-1250,-125l1250,0m-1250,-125l1250,0m-1250,-125l1250,0m-1250,-125l1250,0m-1250,-125l1250,0m-1250,-125l1250,0m-1250,-125l1250,0m-1250,-125l1250,0m-1250,-125l1250,0" style="fill:none;fill-rule:nonzero;stroke:#ccc;stroke-width:4.17px;"/><path d="M625,875l0,375" style="fill:none;fill-rule:nonzero;stroke:#000;stroke-width:8.33px;"/><path d="M625,875l0,-875" style="fill:none;fill-rule:nonzero;stroke:#000;stroke-width:8.33px;"/><path d="M625,875l625,0" style="fill:none;fill-rule:nonzero;stroke:#000;stroke-width:8.33px;"/><path d="M625,875l-625,0" style="fill:none;fill-rule:nonzero;stroke:#000;stroke-width:8.33px;"/></g><path d="M625,875l375,-500" style="fill:none;fill-rule:nonzero;stroke:#000;stroke-width:4.17px;"/><text x="854.167px" y="666.667px" style="font-family:'IBMPlexSans-Regular', 'IBM Plex Sans', sans-serif;font-size:104.167px;">A</text><path d="M625,375l-375,500" style="fill:none;fill-rule:nonzero;stroke:#f00;stroke-width:4.17px;"/><text x="310.417px" y="604.167px" style="font-family:'IBMPlexSans-Regular', 'IBM Plex Sans', sans-serif;font-size:104.167px;fill:#f00;">-<tspan x="349.896px " y="604.167px ">A</tspan></text></svg>