<?xml version="1.0" encoding="UTF-8" standalone="no"?><!DOCTYPE svg PUBLIC "-//W3C//DTD SVG 1.1//EN" "http://www.w3.org/Graphics/SVG/1.1/DTD/svg11.dtd"><svg width="1250px" height="1250px" version="1.1" xmlns="http://www.w3.org/2000/svg" xmlns:xlink="http://www.w3.org/1999/xlink" xml:space="preserve" xmlns:serif="http://www.serif.com/" style="fill-rule:evenodd;clip-rule:evenodd;"><g id="g_axes"><path d="M0,1250l0,-1250m89.286,1250l-0,-1250m89.285,1250l0,-1250m89.286,1250l0,-1250m89.286,1250l-0,-1250m89.286,1250l-0,-1250m89.285,1250l0,-1250m89.286,1250l0,-1250m89.286,1250l-0,-1250m89.285,1250l0,-1250m89.286,1250l0,-1250m89.286,1250l-0,-1250m89.286,1250l-0,-1250m89.285,1250l0,-1250m89.286,1250l-0,-1250m-1250,1250l1250,0m-1250,-89.286l1250,0m-1250,-89.285l1250,-0m-1250,-89.286l1250,-0m-1250,-89.286l1250,0m-1250,-89.286l1250,0m-1250,-89.285l1250,-0m-1250,-89.286l1250,0m-1250,-89.286l1250,0m-1250,-89.285l1250,-0m-1250,-89.286l1250,-0m-1250,-89.286l1250,0m-1250,-89.286l1250,0m-1250,-89.285l1250,-0m-1250,-89.286l1250,0" style="fill:none;fill-rule:nonzero;stroke:#ccc;stroke-width:4.17px;"/><path d="M625,982.143l0,267.857" style="fill:none;fill-rule:nonzero;stroke:#000;stroke-width:8.33px;"/><path d="M625,982.143l0,-982.143" style="fill:none;fill-rule:nonzero;stroke:#000;stroke-width:8.33px;"/><path d="M625,982.143l625,-0" style="fill:none;fill-rule:nonzero;stroke:#000;stroke-width:8.33px;"/><path d="M625,982.143l-625,-0" style="fill:none;fill-rule:nonzero;stroke:#000;stroke-width:8.33px;"/></g><path d="M625,982.143l178.571,-267.857" style="fill:none;fill-rule:nonzero;stroke:#000;stroke-width:4.17px;"/><text x="630.952px" y="869.048px" style="font-family:'IBMPlexSans-Regular', 'IBM Plex Sans', sans-serif;font-size:104.167px;">A</text><path d="M267.857,982.143l535.714,-803.572" style="fill:none;fill-rule:nonzero;stroke:#f00;stroke-width:4.17px;"/><text x="327.381px" y="559.524px" style="font-family:'IBMPlexSans-Regular', 'IBM Plex Sans', sans-serif;font-size:104.167px;fill:#f00;">3*<tspan x="431.548px " y="559.524px ">A</tspan></text><path d="M892.857,982.143l89.286,-133.929" style="fill:none;fill-rule:nonzero;stroke:#f00;stroke-width:4.17px;"/><text x="908.333px" y="831.845px" style="font-family:'IBMPlexSans-Regular', 'IBM Plex Sans', sans-serif;font-size:104.167px;fill:#f00;">0.5*<tspan x="1103.33px " y="831.845px ">A</tspan></text></svg>