<?xml version="1.0" encoding="UTF-8" standalone="no"?><!DOCTYPE svg PUBLIC "-//W3C//DTD SVG 1.1//EN" "http://www.w3.org/Graphics/SVG/1.1/DTD/svg11.dtd"><svg width="100%" height="100%" viewBox="0 0 1250 1250" version="1.1" xmlns="http://www.w3.org/2000/svg" xmlns:xlink="http://www.w3.org/1999/xlink" xml:space="preserve" xmlns:serif="http://www.serif.com/" style="fill-rule:evenodd;clip-rule:evenodd;"><g id="g_axes"><path d="M0,1250l0,-1250m125,1250l0,-1250m125,1250l0,-1250m125,1250l0,-1250m125,1250l0,-1250m125,1250l0,-1250m125,1250l0,-1250m125,1250l0,-1250m125,1250l0,-1250m125,1250l0,-1250m125,1250l0,-1250m-1250,1250l1250,0m-1250,-125l1250,0m-1250,-125l1250,0m-1250,-125l1250,0m-1250,-125l1250,0m-1250,-125l1250,0m-1250,-125l1250,0m-1250,-125l1250,0m-1250,-125l1250,0m-1250,-125l1250,0m-1250,-125l1250,0" style="fill:none;fill-rule:nonzero;stroke:#ccc;stroke-width:4.17px;"/><path d="M625,625l0,625" style="fill:none;fill-rule:nonzero;stroke:#000;stroke-width:8.33px;"/><path d="M625,625l0,-625" style="fill:none;fill-rule:nonzero;stroke:#000;stroke-width:8.33px;"/><path d="M625,625l625,0" style="fill:none;fill-rule:nonzero;stroke:#000;stroke-width:8.33px;"/><path d="M625,625l-625,0" style="fill:none;fill-rule:nonzero;stroke:#000;stroke-width:8.33px;"/></g><path d="M625,625l250,-375" style="fill:none;fill-rule:nonzero;stroke:#000;stroke-width:4.17px;"/><text x="791.667px" y="479.167px" style="font-family:'IBMPlexSans-Regular', 'IBM Plex Sans', sans-serif;font-size:104.167px;">A</text><path d="M1125,1125l-250,-125" style="fill:none;fill-rule:nonzero;stroke:#000;stroke-width:4.17px;"/><text x="1020.83px" y="1041.67px" style="font-family:'IBMPlexSans-Regular', 'IBM Plex Sans', sans-serif;font-size:104.167px;">B</text><path d="M312.5,125l125,625" style="fill:none;fill-rule:nonzero;stroke:#000;stroke-width:4.17px;"/><text x="395.833px" y="437.5px" style="font-family:'IBMPlexSans-Regular', 'IBM Plex Sans', sans-serif;font-size:104.167px;">C</text><path d="M337.5,962.5l-250,-125" style="fill:none;fill-rule:nonzero;stroke:#000;stroke-width:4.17px;"/><text x="170.833px" y="1004.17px" style="font-family:'IBMPlexSans-Regular', 'IBM Plex Sans', sans-serif;font-size:104.167px;">D</text></svg>