<?xml version="1.0" encoding="UTF-8" standalone="no"?><!DOCTYPE svg PUBLIC "-//W3C//DTD SVG 1.1//EN" "http://www.w3.org/Graphics/SVG/1.1/DTD/svg11.dtd"><svg width="1250px" height="1250px" version="1.1" xmlns="http://www.w3.org/2000/svg" xmlns:xlink="http://www.w3.org/1999/xlink" xml:space="preserve" xmlns:serif="http://www.serif.com/" style="fill-rule:evenodd;clip-rule:evenodd;"><g id="g_axes"><path d="M0,1250l0,-1250m125,1250l0,-1250m125,1250l0,-1250m125,1250l0,-1250m125,1250l0,-1250m125,1250l0,-1250m125,1250l0,-1250m125,1250l0,-1250m125,1250l0,-1250m125,1250l0,-1250m125,1250l0,-1250m-1250,1250l1250,0m-1250,-125l1250,0m-1250,-125l1250,0m-1250,-125l1250,0m-1250,-125l1250,0m-1250,-125l1250,0m-1250,-125l1250,0m-1250,-125l1250,0m-1250,-125l1250,0m-1250,-125l1250,0m-1250,-125l1250,0" style="fill:none;fill-rule:nonzero;stroke:#ccc;stroke-width:4.17px;"/><path d="M625,625l0,625" style="fill:none;fill-rule:nonzero;stroke:#000;stroke-width:8.33px;"/><path d="M625,625l0,-625" style="fill:none;fill-rule:nonzero;stroke:#000;stroke-width:8.33px;"/><path d="M625,625l625,0" style="fill:none;fill-rule:nonzero;stroke:#000;stroke-width:8.33px;"/><path d="M625,625l-625,0" style="fill:none;fill-rule:nonzero;stroke:#000;stroke-width:8.33px;"/></g><circle cx="875" cy="250" r="31.25" style="fill:#afafff;stroke:#afafff;stroke-width:4.17px;"/><text x="895.833px" y="200px" style="font-family:'IBMPlexSans-Regular', 'IBM Plex Sans', sans-serif;font-size:104.167px;fill:#afafff;">A</text><circle cx="250" cy="312.5" r="31.25" style="fill:#afafff;stroke:#afafff;stroke-width:4.17px;"/><text x="270.833px" y="262.5px" style="font-family:'IBMPlexSans-Regular', 'IBM Plex Sans', sans-serif;font-size:104.167px;fill:#afafff;">B</text><circle cx="687.5" cy="1000" r="31.25" style="fill:#afafff;stroke:#afafff;stroke-width:4.17px;"/><text x="708.333px" y="950px" style="font-family:'IBMPlexSans-Regular', 'IBM Plex Sans', sans-serif;font-size:104.167px;fill:#afafff;">C</text></svg>