<?xml version="1.0" encoding="UTF-8" standalone="no"?><!DOCTYPE svg PUBLIC "-//W3C//DTD SVG 1.1//EN" "http://www.w3.org/Graphics/SVG/1.1/DTD/svg11.dtd"><svg width="1980px" height="1563px" version="1.1" xmlns="http://www.w3.org/2000/svg" xmlns:xlink="http://www.w3.org/1999/xlink" xml:space="preserve" xmlns:serif="http://www.serif.com/" style="fill-rule:evenodd;clip-rule:evenodd;stroke-linejoin:round;stroke-miterlimit:10;"><g id="layer1"><path id="path4" d="M1029.17,253.625c-0,-33.25 26.958,-60.208 60.208,-60.208l710.683,-0c15.971,-0 31.284,6.341 42.575,17.633c11.292,11.292 17.638,26.608 17.638,42.575l-0,220.788c-0,33.254 -26.958,60.212 -60.213,60.212l-710.683,0c-33.25,0 -60.208,-26.958 -60.208,-60.212l-0,-220.788Z" style="fill:#efecfd;fill-rule:nonzero;stroke:#000;stroke-width:4.17px;"/><path id="path4-4" d="M1029.17,668.771c-0,-33.25 26.958,-60.208 60.208,-60.208l710.683,-0c15.971,-0 31.284,6.345 42.575,17.633c11.292,11.292 17.638,26.608 17.638,42.575l-0,220.792c-0,33.249 -26.958,60.208 -60.213,60.208l-710.683,-0c-33.25,-0 -60.208,-26.959 -60.208,-60.208l-0,-220.792Z" style="fill:#efecfd;fill-rule:nonzero;stroke:#000;stroke-width:4.17px;"/><path id="path4-2" d="M1029.17,1068.77c-0,-33.25 26.958,-60.208 60.208,-60.208l710.683,-0c15.971,-0 31.284,6.345 42.575,17.633c11.292,11.292 17.638,26.608 17.638,42.575l-0,220.792c-0,33.25 -26.958,60.208 -60.213,60.208l-710.683,-0c-33.25,-0 -60.208,-26.958 -60.208,-60.208l-0,-220.792Z" style="fill:#efecfd;fill-rule:nonzero;stroke:#000;stroke-width:4.17px;"/><rect id="path16" x="95.833" y="205.021" width="347.508" height="149.146" style="fill:#d2fff1;stroke:#000;stroke-width:3.04px;"/><rect id="path16-0" x="95.833" y="354.167" width="347.508" height="149.146" style="fill:#d2fff1;stroke:#000;stroke-width:3.04px;"/><rect id="path16-0-1" x="95.833" y="504.592" width="347.508" height="149.146" style="fill:#d2fff1;stroke:#000;stroke-width:3.04px;"/><rect id="path16-1" x="95.833" y="654.604" width="347.508" height="149.146" style="fill:#ffa975;stroke:#000;stroke-width:3.04px;"/><rect id="path16-0-7" x="95.833" y="803.75" width="347.508" height="149.146" style="fill:#ffa975;stroke:#000;stroke-width:3.04px;"/><rect id="path16-0-1-4" x="95.833" y="954.175" width="347.508" height="149.146" style="fill:#ffa975;stroke:#000;stroke-width:3.04px;"/></g><g id="layer2"><text x="21.338px" y="164.475px" style="font-family:'IBMPlexSans-Regular', 'IBM Plex Sans', sans-serif;font-size:83.333px;">Buff<tspan x="176.754px " y="164.475px ">e</tspan>r Object</text><text x="1161.72px" y="164.475px" style="font-family:'IBMPlexSans-Regular', 'IBM Plex Sans', sans-serif;font-size:83.333px;">V<tspan x="1209.97px 1255.72px 1286.63px 1315.55px 1360.3px " y="164.475px 164.475px 164.475px 164.475px 164.475px ">ertex</tspan> Shaders</text><g transform="matrix(83.3333,0,0,83.3333,412.421,307.894)"></g><text x="126.754px" y="307.894px" style="font-family:'IBMPlexSans-Regular', 'IBM Plex Sans', sans-serif;font-size:83.333px;">Inde<tspan x="300.504px " y="307.894px ">x</tspan> 0</text><g transform="matrix(83.3333,0,0,83.3333,412.421,457.042)"></g><text x="126.754px" y="457.042px" style="font-family:'IBMPlexSans-Regular', 'IBM Plex Sans', sans-serif;font-size:83.333px;">Inde<tspan x="300.504px " y="457.042px ">x</tspan> 1</text><g transform="matrix(83.3333,0,0,83.3333,412.421,607.467)"></g><text x="126.754px" y="607.467px" style="font-family:'IBMPlexSans-Regular', 'IBM Plex Sans', sans-serif;font-size:83.333px;">Inde<tspan x="300.504px " y="607.467px ">x</tspan> 2</text><g transform="matrix(83.3333,0,0,83.3333,1719.9,295.077)"></g><text x="1086.46px" y="295.077px" style="font-family:'IBMPlexSans-Regular', 'IBM Plex Sans', sans-serif;font-size:83.333px;fill:#00745e;">in v<tspan x="1214.62px " y="295.077px ">e</tspan>c4  position</text><g transform="matrix(83.3333,0,0,83.3333,1672.46,706.058)"></g><text x="1086.46px" y="706.058px" style="font-family:'IBMPlexSans-Regular', 'IBM Plex Sans', sans-serif;font-size:83.333px;fill:#00745e;">in v<tspan x="1214.62px " y="706.058px ">e</tspan>c4 position</text><g transform="matrix(83.3333,0,0,83.3333,1672.46,1111.27)"></g><text x="1086.46px" y="1111.27px" style="font-family:'IBMPlexSans-Regular', 'IBM Plex Sans', sans-serif;font-size:83.333px;fill:#00745e;">in v<tspan x="1214.62px " y="1111.27px ">e</tspan>c4 position</text><path id="path3912" d="M441.667,283.333c85.579,0 273.775,-37.521 351.479,-36.341c79.596,1.208 203.933,23.841 281.854,23.841" style="fill:none;fill-rule:nonzero;stroke:#00745e;stroke-width:4.17px;stroke-linejoin:miter;stroke-miterlimit:4;"/><path id="path3914" d="M443.75,427.083c122.492,0 244.2,59.359 323.613,128.125c142.291,123.217 125.083,129.6 307.637,128.125" style="fill:none;fill-rule:nonzero;stroke:#00745e;stroke-width:4.17px;stroke-linejoin:miter;stroke-miterlimit:4;"/><path id="path3916" d="M441.942,576.971c159.1,-4.421 206.237,53.033 268.112,216.55c61.871,163.521 170.738,294.629 357.971,294.629" style="fill:none;fill-rule:nonzero;stroke:#00745e;stroke-width:4.17px;stroke-linejoin:miter;stroke-miterlimit:4;"/><g transform="matrix(83.3333,0,0,83.3333,412.421,757.479)"></g><text x="126.754px" y="757.479px" style="font-family:'IBMPlexSans-Regular', 'IBM Plex Sans', sans-serif;font-size:83.333px;">Inde<tspan x="300.504px " y="757.479px ">x</tspan> 0</text><g transform="matrix(83.3333,0,0,83.3333,412.421,906.625)"></g><text x="126.754px" y="906.625px" style="font-family:'IBMPlexSans-Regular', 'IBM Plex Sans', sans-serif;font-size:83.333px;">Inde<tspan x="300.504px " y="906.625px ">x</tspan> 1</text><g transform="matrix(83.3333,0,0,83.3333,412.421,1057.05)"></g><text x="126.754px" y="1057.05px" style="font-family:'IBMPlexSans-Regular', 'IBM Plex Sans', sans-serif;font-size:83.333px;">Inde<tspan x="300.504px " y="1057.05px ">x</tspan> 2</text><g transform="matrix(83.3333,0,0,83.3333,1559.96,1216.95)"></g><text x="1086.46px" y="1216.95px" style="font-family:'IBMPlexSans-Regular', 'IBM Plex Sans', sans-serif;font-size:83.333px;fill:#a46d4a;">in v<tspan x="1214.62px " y="1216.95px ">e</tspan>c4 c<tspan x="1413.38px " y="1216.95px ">o</tspan>lor</text><g transform="matrix(83.3333,0,0,83.3333,1559.96,805.492)"></g><text x="1086.46px" y="805.492px" style="font-family:'IBMPlexSans-Regular', 'IBM Plex Sans', sans-serif;font-size:83.333px;fill:#a46d4a;">in v<tspan x="1214.62px " y="805.492px ">e</tspan>c4 c<tspan x="1413.38px " y="805.492px ">o</tspan>lor</text><g transform="matrix(83.3333,0,0,83.3333,1559.96,397.16)"></g><text x="1086.46px" y="397.16px" style="font-family:'IBMPlexSans-Regular', 'IBM Plex Sans', sans-serif;font-size:83.333px;fill:#a46d4a;">in v<tspan x="1214.62px " y="397.16px ">e</tspan>c4 c<tspan x="1413.38px " y="397.16px ">o</tspan>lor</text><path id="path3814" d="M442.708,733.333c298.959,0 311.459,-356.25 623.959,-356.25" style="fill:none;fill-rule:nonzero;stroke:#a46d4a;stroke-width:4.17px;stroke-linejoin:miter;stroke-miterlimit:4;"/><path id="path3816" d="M444.792,880.208c270.833,0 397.916,-90.625 621.875,-90.625" style="fill:none;fill-rule:nonzero;stroke:#a46d4a;stroke-width:4.17px;stroke-linejoin:miter;stroke-miterlimit:4;"/><path id="path3818" d="M443.75,1035.42c286.458,-0 400,160.416 618.75,160.416" style="fill:none;fill-rule:nonzero;stroke:#a46d4a;stroke-width:4.17px;stroke-linejoin:miter;stroke-miterlimit:4;"/></g></svg>