<?xml version="1.0" encoding="UTF-8" standalone="no"?><!DOCTYPE svg PUBLIC "-//W3C//DTD SVG 1.1//EN" "http://www.w3.org/Graphics/SVG/1.1/DTD/svg11.dtd"><svg width="2917px" height="1563px" version="1.1" xmlns="http://www.w3.org/2000/svg" xmlns:xlink="http://www.w3.org/1999/xlink" xml:space="preserve" xmlns:serif="http://www.serif.com/" style="fill-rule:evenodd;clip-rule:evenodd;stroke-linejoin:round;stroke-miterlimit:10;"><g id="Background"><path id="path4" d="M1029.17,253.626c-0,-33.253 26.956,-60.21 60.209,-60.21l710.684,0c15.968,0 31.282,6.344 42.574,17.635c11.292,11.292 17.635,26.606 17.635,42.575l0,220.788c0,33.253 -26.957,60.21 -60.209,60.21l-710.684,-0c-33.253,-0 -60.209,-26.957 -60.209,-60.21l-0,-220.788Z" style="fill:#efecfd;fill-rule:nonzero;stroke:#000;stroke-width:4.17px;"/><path id="path4-4" d="M1029.17,668.772c-0,-33.252 26.956,-60.209 60.209,-60.209l710.684,-0c15.968,-0 31.282,6.343 42.574,17.635c11.292,11.291 17.635,26.606 17.635,42.574l0,220.789c0,33.253 -26.957,60.209 -60.209,60.209l-710.684,0c-33.253,0 -60.209,-26.956 -60.209,-60.209l-0,-220.789Z" style="fill:#efecfd;fill-rule:nonzero;stroke:#000;stroke-width:4.17px;"/><path id="path4-2" d="M1029.17,1068.77c-0,-33.252 26.956,-60.209 60.209,-60.209l710.684,-0c15.968,-0 31.282,6.343 42.574,17.635c11.292,11.291 17.635,26.606 17.635,42.574l0,220.789c0,33.253 -26.957,60.209 -60.209,60.209l-710.684,0c-33.253,0 -60.209,-26.956 -60.209,-60.209l-0,-220.789Z" style="fill:#efecfd;fill-rule:nonzero;stroke:#000;stroke-width:4.17px;"/><rect id="path16" x="95.833" y="205.02" width="347.507" height="149.147" style="fill:#d2fff1;fill-rule:nonzero;stroke:#000;stroke-width:3.05px;"/><rect id="path16-0" x="95.833" y="354.167" width="347.507" height="149.147" style="fill:#d2fff1;fill-rule:nonzero;stroke:#000;stroke-width:3.05px;"/><rect id="path16-0-1" x="95.833" y="504.593" width="347.507" height="149.147" style="fill:#d2fff1;fill-rule:nonzero;stroke:#000;stroke-width:3.05px;"/></g><g id="Foreground"><g id="text4042"><text x="54.167px" y="162.5px" style="font-family:'IBMPlexSans-Regular', 'IBM Plex Sans', sans-serif;font-size:83.333px;">Buff<tspan x="209.583px " y="162.5px ">e</tspan>r Object</text></g><text x="1160.03px" y="162.5px" style="font-family:'IBMPlexSans-Regular', 'IBM Plex Sans', sans-serif;font-size:83.333px;">V<tspan x="1208.28px 1254.03px 1284.95px 1313.87px 1358.62px " y="162.5px 162.5px 162.5px 162.5px 162.5px ">ertex</tspan> Shaders</text><text x="127.525px" y="305.919px" style="font-family:'IBMPlexSans-Regular', 'IBM Plex Sans', sans-serif;font-size:83.333px;">Inde<tspan x="301.275px " y="305.919px ">x</tspan> 0</text><text x="126.362px" y="455.066px" style="font-family:'IBMPlexSans-Regular', 'IBM Plex Sans', sans-serif;font-size:83.333px;">Inde<tspan x="300.112px " y="455.066px ">x</tspan> 1</text><text x="126.362px" y="605.492px" style="font-family:'IBMPlexSans-Regular', 'IBM Plex Sans', sans-serif;font-size:83.333px;">Inde<tspan x="300.112px " y="605.492px ">x</tspan> 2</text><text x="1086.36px" y="293.102px" style="font-family:'IBMPlexSans-Regular', 'IBM Plex Sans', sans-serif;font-size:83.333px;fill:#00745e;">in v<tspan x="1214.53px " y="293.102px ">e</tspan>c4 position</text><text x="1086.36px" y="708.248px" style="font-family:'IBMPlexSans-Regular', 'IBM Plex Sans', sans-serif;font-size:83.333px;fill:#00745e;">in v<tspan x="1214.53px " y="708.248px ">e</tspan>c4 position</text><text x="1086.36px" y="1108.25px" style="font-family:'IBMPlexSans-Regular', 'IBM Plex Sans', sans-serif;font-size:83.333px;fill:#00745e;">in v<tspan x="1214.53px " y="1108.25px ">e</tspan>c4 position</text><path id="path3912" d="M441.667,283.333c85.577,0 219.804,8.951 297.507,10.131c79.597,1.21 257.905,-22.631 335.826,-22.631" style="fill:none;fill-rule:nonzero;stroke:#00745e;stroke-width:4.17px;stroke-linejoin:miter;"/><path id="path3914" d="M443.75,427.083c122.491,0 244.198,59.358 323.612,128.125c142.291,123.215 125.085,129.598 307.638,128.125" style="fill:none;fill-rule:nonzero;stroke:#00745e;stroke-width:4.17px;stroke-linejoin:miter;"/><path id="path3916" d="M441.942,576.97c159.099,-4.42 206.239,53.033 268.111,216.551c61.872,163.519 170.739,294.628 357.973,294.628" style="fill:none;fill-rule:nonzero;stroke:#00745e;stroke-width:4.17px;stroke-linejoin:miter;"/><path id="path4006" d="M2241.67,445.833c-385.512,0 -384.039,0 -384.039,0" style="fill:none;fill-rule:nonzero;stroke:#000;stroke-width:4.17px;stroke-linejoin:miter;"/><path id="path4008" d="M2241.67,871.598c-385.512,-0 -384.039,-0 -384.039,-0" style="fill:none;fill-rule:nonzero;stroke:#000;stroke-width:4.17px;stroke-linejoin:miter;"/><path id="path4010" d="M2241.67,1259.03l-384.039,0" style="fill:none;fill-rule:nonzero;stroke:#000;stroke-width:4.17px;stroke-linejoin:miter;"/><text x="2254.17px" y="895.833px" style="font-family:'IBMPlexSans-Regular', 'IBM Plex Sans', sans-serif;font-size:83.333px;">gl<tspan x="2322.08px 2369.17px 2418px " y="895.833px 895.833px 895.833px ">_Po</tspan>sition</text><text x="2254.17px" y="1279.17px" style="font-family:'IBMPlexSans-Regular', 'IBM Plex Sans', sans-serif;font-size:83.333px;">gl<tspan x="2322.08px 2369.17px 2418px " y="1279.17px 1279.17px 1279.17px ">_Po</tspan>sition</text><text x="2254.17px" y="462.5px" style="font-family:'IBMPlexSans-Regular', 'IBM Plex Sans', sans-serif;font-size:83.333px;">gl<tspan x="2322.08px 2369.17px 2418px " y="462.5px 462.5px 462.5px ">_Po</tspan>sition</text></g></svg>