<?xml version="1.0" encoding="UTF-8" standalone="no"?>
<!DOCTYPE svg PUBLIC "-//W3C//DTD SVG 1.1//EN" "http://www.w3.org/Graphics/SVG/1.1/DTD/svg11.dtd">
<svg width="100%" height="100%" viewBox="0 0 475 375" version="1.1" xmlns="http://www.w3.org/2000/svg" xmlns:xlink="http://www.w3.org/1999/xlink" xml:space="preserve" xmlns:serif="http://www.serif.com/" style="fill-rule:evenodd;clip-rule:evenodd;stroke-linejoin:round;stroke-miterlimit:10;">
    <g id="layer1">
        <path id="path4" d="M247,60.87C247,52.89 253.47,46.42 261.45,46.42L432.014,46.42C435.847,46.42 439.522,47.942 442.232,50.652C444.942,53.362 446.465,57.038 446.465,60.87L446.465,113.859C446.465,121.84 439.995,128.31 432.014,128.31L261.45,128.31C253.47,128.31 247,121.84 247,113.859L247,60.87Z" style="fill:rgb(239,236,253);fill-rule:nonzero;stroke:black;stroke-width:1px;"/>
        <path id="path4-4" d="M247,160.505C247,152.525 253.47,146.055 261.45,146.055L432.014,146.055C435.847,146.055 439.522,147.578 442.232,150.287C444.942,152.997 446.465,156.673 446.465,160.505L446.465,213.495C446.465,221.475 439.995,227.945 432.014,227.945L261.45,227.945C253.47,227.945 247,221.475 247,213.495L247,160.505Z" style="fill:rgb(239,236,253);fill-rule:nonzero;stroke:black;stroke-width:1px;"/>
        <path id="path4-2" d="M247,256.505C247,248.525 253.47,242.055 261.45,242.055L432.014,242.055C435.847,242.055 439.522,243.578 442.232,246.287C444.942,248.997 446.465,252.673 446.465,256.505L446.465,309.495C446.465,317.475 439.995,323.945 432.014,323.945L261.45,323.945C253.47,323.945 247,317.475 247,309.495L247,256.505Z" style="fill:rgb(239,236,253);fill-rule:nonzero;stroke:black;stroke-width:1px;"/>
        <rect id="path16" x="23" y="49.205" width="83.402" height="35.795" style="fill:rgb(210,255,241);fill-rule:nonzero;stroke:black;stroke-width:0.73px;"/>
        <rect id="path16-0" x="23" y="85" width="83.402" height="35.795" style="fill:rgb(210,255,241);fill-rule:nonzero;stroke:black;stroke-width:0.73px;"/>
        <rect id="path16-0-1" x="23" y="121.102" width="83.402" height="35.795" style="fill:rgb(210,255,241);fill-rule:nonzero;stroke:black;stroke-width:0.73px;"/>
        <rect id="path16-1" x="23" y="157.105" width="83.402" height="35.795" style="fill:rgb(255,169,117);fill-rule:nonzero;stroke:black;stroke-width:0.73px;"/>
        <rect id="path16-0-7" x="23" y="192.9" width="83.402" height="35.795" style="fill:rgb(255,169,117);fill-rule:nonzero;stroke:black;stroke-width:0.73px;"/>
        <rect id="path16-0-1-4" x="23" y="229.002" width="83.402" height="35.795" style="fill:rgb(255,169,117);fill-rule:nonzero;stroke:black;stroke-width:0.73px;"/>
    </g>
    <g id="layer2">
        <g transform="matrix(1,0,0,1,9.51857,39)">
            <text x="0.305px" y="0.474px" style="font-family:'IBMPlexSans-Regular', 'IBM Plex Sans', sans-serif;font-size:20px;">Buffer Object</text>
        </g>
        <g transform="matrix(1,0,0,1,247.694,39)">
            <text x="31.465px" y="0.474px" style="font-family:'IBMPlexSans-Regular', 'IBM Plex Sans', sans-serif;font-size:20px;">V<tspan x="43.045px " y="0.474px ">e</tspan>rte<tspan x="79.125px " y="0.474px ">x</tspan> Shaders</text>
        </g>
        <g transform="matrix(1,0,0,1,23,73.4205)">
            <text x="7.421px" y="0.474px" style="font-family:'IBMPlexSans-Regular', 'IBM Plex Sans', sans-serif;font-size:20px;">Inde<tspan x="49.121px " y="0.474px ">x</tspan> 0</text>
        </g>
        <g transform="matrix(1,0,0,1,23,109.216)">
            <text x="7.421px" y="0.474px" style="font-family:'IBMPlexSans-Regular', 'IBM Plex Sans', sans-serif;font-size:20px;">Inde<tspan x="49.121px " y="0.474px ">x</tspan> 1</text>
        </g>
        <g transform="matrix(1,0,0,1,23,145.318)">
            <text x="7.421px" y="0.474px" style="font-family:'IBMPlexSans-Regular', 'IBM Plex Sans', sans-serif;font-size:20px;">Inde<tspan x="49.121px " y="0.474px ">x</tspan> 2</text>
        </g>
        <g transform="matrix(1,0,0,1,260.75,70.3444)">
            <text x="0px" y="0.474px" style="font-family:'IBMPlexSans-Regular', 'IBM Plex Sans', sans-serif;font-size:20px;fill:rgb(0,116,94);">in v<tspan x="30.76px " y="0.474px ">e</tspan>c4 position</text>
        </g>
        <g transform="matrix(1,0,0,1,260.75,168.98)">
            <text x="0px" y="0.474px" style="font-family:'IBMPlexSans-Regular', 'IBM Plex Sans', sans-serif;font-size:20px;fill:rgb(0,116,94);">in v<tspan x="30.76px " y="0.474px ">e</tspan>c4 position</text>
        </g>
        <g transform="matrix(1,0,0,1,260.75,266.23)">
            <text x="0px" y="0.474px" style="font-family:'IBMPlexSans-Regular', 'IBM Plex Sans', sans-serif;font-size:20px;fill:rgb(0,116,94);">in v<tspan x="30.76px " y="0.474px ">e</tspan>c4 position</text>
        </g>
        <path id="path3912" d="M106,68C126.539,68 171.706,58.995 190.355,59.278C209.458,59.568 239.299,65 258,65" style="fill:none;fill-rule:nonzero;stroke:rgb(0,116,94);stroke-width:1px;stroke-linejoin:miter;stroke-miterlimit:4;"/>
        <path id="path3914" d="M106.5,102.5C135.898,102.5 165.108,116.746 184.167,133.25C218.317,162.822 214.187,164.354 258,164" style="fill:none;fill-rule:nonzero;stroke:rgb(0,116,94);stroke-width:1px;stroke-linejoin:miter;stroke-miterlimit:4;"/>
        <path id="path3916" d="M106.066,138.473C144.25,137.412 155.563,151.201 170.413,190.445C185.262,229.69 211.39,261.156 256.326,261.156" style="fill:none;fill-rule:nonzero;stroke:rgb(0,116,94);stroke-width:1px;stroke-linejoin:miter;stroke-miterlimit:4;"/>
        <g transform="matrix(1,0,0,1,23,181.321)">
            <text x="7.421px" y="0.474px" style="font-family:'IBMPlexSans-Regular', 'IBM Plex Sans', sans-serif;font-size:20px;">Inde<tspan x="49.121px " y="0.474px ">x</tspan> 0</text>
        </g>
        <g transform="matrix(1,0,0,1,23,217.116)">
            <text x="7.421px" y="0.474px" style="font-family:'IBMPlexSans-Regular', 'IBM Plex Sans', sans-serif;font-size:20px;">Inde<tspan x="49.121px " y="0.474px ">x</tspan> 1</text>
        </g>
        <g transform="matrix(1,0,0,1,23,253.218)">
            <text x="7.421px" y="0.474px" style="font-family:'IBMPlexSans-Regular', 'IBM Plex Sans', sans-serif;font-size:20px;">Inde<tspan x="49.121px " y="0.474px ">x</tspan> 2</text>
        </g>
        <g transform="matrix(1,0,0,1,260.75,291.594)">
            <text x="0px" y="0.474px" style="font-family:'IBMPlexSans-Regular', 'IBM Plex Sans', sans-serif;font-size:20px;fill:rgb(164,109,74);">in v<tspan x="30.76px " y="0.474px ">e</tspan>c4 c<tspan x="78.46px " y="0.474px ">o</tspan>lor</text>
        </g>
        <g transform="matrix(1,0,0,1,260.75,192.844)">
            <text x="0px" y="0.474px" style="font-family:'IBMPlexSans-Regular', 'IBM Plex Sans', sans-serif;font-size:20px;fill:rgb(164,109,74);">in v<tspan x="30.76px " y="0.474px ">e</tspan>c4 c<tspan x="78.46px " y="0.474px ">o</tspan>lor</text>
        </g>
        <g transform="matrix(1,0,0,1,260.75,94.8444)">
            <text x="0px" y="0.474px" style="font-family:'IBMPlexSans-Regular', 'IBM Plex Sans', sans-serif;font-size:20px;fill:rgb(164,109,74);">in v<tspan x="30.76px " y="0.474px ">e</tspan>c4 c<tspan x="78.46px " y="0.474px ">o</tspan>lor</text>
        </g>
        <path id="path3814" d="M106.25,176C178,176 181,90.5 256,90.5" style="fill:none;fill-rule:nonzero;stroke:rgb(164,109,74);stroke-width:1px;stroke-linejoin:miter;stroke-miterlimit:4;"/>
        <path id="path3816" d="M106.75,211.25C171.75,211.25 202.25,189.5 256,189.5" style="fill:none;fill-rule:nonzero;stroke:rgb(164,109,74);stroke-width:1px;stroke-linejoin:miter;stroke-miterlimit:4;"/>
        <path id="path3818" d="M106.5,248.5C175.25,248.5 202.5,287 255,287" style="fill:none;fill-rule:nonzero;stroke:rgb(164,109,74);stroke-width:1px;stroke-linejoin:miter;stroke-miterlimit:4;"/>
    </g>
</svg>
