<?xml version="1.0" encoding="UTF-8" standalone="no"?>
<!DOCTYPE svg PUBLIC "-//W3C//DTD SVG 1.1//EN" "http://www.w3.org/Graphics/SVG/1.1/DTD/svg11.dtd">
<svg width="100%" height="100%" viewBox="0 0 700 375" version="1.1" xmlns="http://www.w3.org/2000/svg" xmlns:xlink="http://www.w3.org/1999/xlink" xml:space="preserve" xmlns:serif="http://www.serif.com/" style="fill-rule:evenodd;clip-rule:evenodd;stroke-linejoin:round;stroke-miterlimit:10;">
    <g id="Background">
        <path id="path4" d="M247,60.87C247,52.89 253.47,46.42 261.45,46.42L432.014,46.42C435.847,46.42 439.522,47.942 442.232,50.652C444.942,53.362 446.465,57.038 446.465,60.87L446.465,113.859C446.465,121.84 439.995,128.31 432.014,128.31L261.45,128.31C253.47,128.31 247,121.84 247,113.859L247,60.87Z" style="fill:rgb(239,236,253);fill-rule:nonzero;stroke:black;stroke-width:1px;"/>
        <path id="path4-4" d="M247,160.505C247,152.525 253.47,146.055 261.45,146.055L432.014,146.055C435.847,146.055 439.522,147.578 442.232,150.287C444.942,152.997 446.465,156.673 446.465,160.505L446.465,213.495C446.465,221.475 439.995,227.945 432.014,227.945L261.45,227.945C253.47,227.945 247,221.475 247,213.495L247,160.505Z" style="fill:rgb(239,236,253);fill-rule:nonzero;stroke:black;stroke-width:1px;"/>
        <path id="path4-2" d="M247,256.505C247,248.525 253.47,242.055 261.45,242.055L432.014,242.055C435.847,242.055 439.522,243.578 442.232,246.287C444.942,248.997 446.465,252.673 446.465,256.505L446.465,309.495C446.465,317.475 439.995,323.945 432.014,323.945L261.45,323.945C253.47,323.945 247,317.475 247,309.495L247,256.505Z" style="fill:rgb(239,236,253);fill-rule:nonzero;stroke:black;stroke-width:1px;"/>
        <rect id="path16" x="23" y="49.205" width="83.402" height="35.795" style="fill:rgb(210,255,241);fill-rule:nonzero;stroke:black;stroke-width:0.73px;"/>
        <rect id="path16-0" x="23" y="85" width="83.402" height="35.795" style="fill:rgb(210,255,241);fill-rule:nonzero;stroke:black;stroke-width:0.73px;"/>
        <rect id="path16-0-1" x="23" y="121.102" width="83.402" height="35.795" style="fill:rgb(210,255,241);fill-rule:nonzero;stroke:black;stroke-width:0.73px;"/>
    </g>
    <g id="Foreground">
        <g transform="matrix(1,0,0,1,13,39)">
            <g id="text4042">
                <text x="0px" y="0px" style="font-family:'IBMPlexSans-Regular', 'IBM Plex Sans', sans-serif;font-size:20px;">Buffer Object</text>
            </g>
        </g>
        <g transform="matrix(1,0,0,1,284,39)">
            <text x="0px" y="0px" style="font-family:'IBMPlexSans-Regular', 'IBM Plex Sans', sans-serif;font-size:20px;">V<tspan x="11.58px " y="0px ">e</tspan>rte<tspan x="47.66px " y="0px ">x</tspan> Shaders</text>
        </g>
        <g transform="matrix(1,0,0,1,23.4868,73.4205)">
            <text x="7.119px" y="0px" style="font-family:'IBMPlexSans-Regular', 'IBM Plex Sans', sans-serif;font-size:20px;">Inde<tspan x="48.819px " y="0px ">x</tspan> 0</text>
        </g>
        <g transform="matrix(1,0,0,1,23.0768,109.216)">
            <text x="7.25px" y="0px" style="font-family:'IBMPlexSans-Regular', 'IBM Plex Sans', sans-serif;font-size:20px;">Inde<tspan x="48.95px " y="0px ">x</tspan> 1</text>
        </g>
        <g transform="matrix(1,0,0,1,23.0768,145.318)">
            <text x="7.25px" y="0px" style="font-family:'IBMPlexSans-Regular', 'IBM Plex Sans', sans-serif;font-size:20px;">Inde<tspan x="48.95px " y="0px ">x</tspan> 2</text>
        </g>
        <g transform="matrix(1,0,0,1,260.727,70.3444)">
            <text x="0px" y="0px" style="font-family:'IBMPlexSans-Regular', 'IBM Plex Sans', sans-serif;font-size:20px;fill:rgb(0,116,94);">in v<tspan x="30.76px " y="0px ">e</tspan>c4 position</text>
        </g>
        <g transform="matrix(1,0,0,1,260.727,169.98)">
            <text x="0px" y="0px" style="font-family:'IBMPlexSans-Regular', 'IBM Plex Sans', sans-serif;font-size:20px;fill:rgb(0,116,94);">in v<tspan x="30.76px " y="0px ">e</tspan>c4 position</text>
        </g>
        <g transform="matrix(1,0,0,1,260.727,265.98)">
            <text x="0px" y="0px" style="font-family:'IBMPlexSans-Regular', 'IBM Plex Sans', sans-serif;font-size:20px;fill:rgb(0,116,94);">in v<tspan x="30.76px " y="0px ">e</tspan>c4 position</text>
        </g>
        <path id="path3912" d="M106,68C126.539,68 134.079,54.403 147.301,54.403C165.893,54.919 194.086,61.481 212.735,61.765C231.838,62.055 239.299,65 258,65" style="fill:none;fill-rule:nonzero;stroke:rgb(0,116,94);stroke-width:1px;stroke-linejoin:miter;"/>
        <path id="path3914" d="M106.5,102.5C135.898,102.5 165.108,116.746 184.167,133.25C218.317,162.822 214.187,164.354 258,164" style="fill:none;fill-rule:nonzero;stroke:rgb(0,116,94);stroke-width:1px;stroke-linejoin:miter;"/>
        <path id="path3916" d="M106.066,138.473C144.25,137.412 155.563,151.201 170.413,190.445C185.262,229.69 211.39,261.156 256.326,261.156" style="fill:none;fill-rule:nonzero;stroke:rgb(0,116,94);stroke-width:1px;stroke-linejoin:miter;"/>
        <path id="path4006" d="M538,107C445.477,107 445.831,107 445.831,107" style="fill:none;fill-rule:nonzero;stroke:black;stroke-width:1px;stroke-linejoin:miter;"/>
        <path id="path4008" d="M538,209.183C445.477,209.183 445.831,209.183 445.831,209.183" style="fill:none;fill-rule:nonzero;stroke:black;stroke-width:1px;stroke-linejoin:miter;"/>
        <path id="path4010" d="M538,302.168L445.831,302.168" style="fill:none;fill-rule:nonzero;stroke:black;stroke-width:1px;stroke-linejoin:miter;"/>
        <g transform="matrix(1,0,0,1,541,215)">
            <text x="0px" y="0px" style="font-family:'IBMPlexSans-Regular', 'IBM Plex Sans', sans-serif;font-size:20px;">gl<tspan x="16.3px 27.6px 39.32px " y="0px 0px 0px ">_Po</tspan>sition</text>
        </g>
        <g transform="matrix(1,0,0,1,541,307)">
            <text x="0px" y="0px" style="font-family:'IBMPlexSans-Regular', 'IBM Plex Sans', sans-serif;font-size:20px;">gl<tspan x="16.3px 27.6px 39.32px " y="0px 0px 0px ">_Po</tspan>sition</text>
        </g>
        <g transform="matrix(1,0,0,1,541,111)">
            <text x="0px" y="0px" style="font-family:'IBMPlexSans-Regular', 'IBM Plex Sans', sans-serif;font-size:20px;">gl<tspan x="16.3px 27.6px 39.32px " y="0px 0px 0px ">_Po</tspan>sition</text>
        </g>
    </g>
</svg>
