<?xml version="1.0" encoding="UTF-8" standalone="no"?><!DOCTYPE svg PUBLIC "-//W3C//DTD SVG 1.1//EN" "http://www.w3.org/Graphics/SVG/1.1/DTD/svg11.dtd"><svg width="2188px" height="1667px" version="1.1" xmlns="http://www.w3.org/2000/svg" xmlns:xlink="http://www.w3.org/1999/xlink" xml:space="preserve" xmlns:serif="http://www.serif.com/" style="fill-rule:evenodd;clip-rule:evenodd;"><g id="Layer-1" serif:id="Layer 1"><path id="path2820" d="M737.5,938.515l0,-694.467" style="fill:none;fill-rule:nonzero;stroke:#000;stroke-width:4.17px;"/><path id="path2828" d="M1359.52,938.515l-1247.02,0" style="fill:none;fill-rule:nonzero;stroke:#00c000;stroke-width:4.17px;"/><path id="path2832" d="M737.5,1458.33l0,-519.818" style="fill:none;fill-rule:nonzero;stroke:#000;stroke-width:4.17px;stroke-dasharray:8.33,16.67;"/><path id="pathdfasd2843" d="M1301.58,416.667c0,11.506 -9.327,20.833 -20.833,20.833c-11.506,0 -20.833,-9.327 -20.833,-20.833c-0,-11.506 9.327,-20.834 20.833,-20.834c11.506,0 20.833,9.328 20.833,20.834Z" style="fill-rule:nonzero;"/><path id="pathdfasd2843-1" d="M758.333,1459.97c0,11.506 -9.327,20.834 -20.833,20.834c-11.506,-0 -20.833,-9.328 -20.833,-20.834c-0,-11.506 9.327,-20.833 20.833,-20.833c11.506,0 20.833,9.327 20.833,20.833Z" style="fill-rule:nonzero;"/><path id="path2867" d="M737.5,416.667l541.667,-0" style="fill:none;fill-rule:nonzero;stroke:#000;stroke-width:4.17px;stroke-dasharray:8.33,16.67;"/><path id="path2869" d="M1279.17,416.667l-541.667,1041.67" style="fill:none;fill-rule:nonzero;stroke:#f00;stroke-width:4.17px;stroke-dasharray:8.33,16.67;"/><path id="pathdfasd2843-1-7" d="M1030.38,938.515c0,11.506 -9.327,20.833 -20.833,20.833c-11.506,0 -20.833,-9.327 -20.833,-20.833c-0,-11.506 9.327,-20.833 20.833,-20.833c11.506,-0 20.833,9.327 20.833,20.833Z" style="fill:#00c000;fill-rule:nonzero;"/><text x="687.519px" y="190.114px" style="font-family:'IBMPlexSans-Regular', 'IBM Plex Sans', sans-serif;font-size:100px;">-<tspan x="723.419px " y="190.114px ">Z</tspan></text><text x="1322.59px" y="382.931px" style="font-family:'IBMPlexSans-Italic', 'IBM Plex Sans', sans-serif;font-style:italic;font-size:116.667px;">P</text><text x="628.327px" y="1562.76px" style="font-family:'IBMPlexSans-Italic', 'IBM Plex Sans', sans-serif;font-style:italic;font-size:116.667px;">E</text><text x="935.313px" y="908.379px" style="font-family:'IBMPlexSans-Italic', 'IBM Plex Sans', sans-serif;font-style:italic;font-size:116.667px;">R</text><text x="756.693px" y="1517.04px" style="font-family:'IBMPlexSans-Regular', 'IBM Plex Sans', sans-serif;font-size:50px;">(0, 0, 0)</text><path d="M707.166,1417.06c-23.45,-0 -41.982,-3.264 -55.598,-9.793c-13.615,-6.529 -23.373,-16.281 -29.273,-29.256c-5.9,-12.976 -8.851,-30.399 -8.851,-52.27l0,-70.754c0,-14.526 -1.701,-25.829 -5.105,-33.908c-3.404,-8.079 -8.51,-13.751 -15.318,-17.015c-6.808,-3.265 -16.339,-4.897 -28.593,-4.897l0,-20.075c12.103,-0 21.558,-1.632 28.366,-4.897c6.808,-3.264 11.952,-8.895 15.431,-16.893c3.48,-7.997 5.219,-19.341 5.219,-34.03l0,-70.754c0,-21.871 2.951,-39.294 8.851,-52.27c5.9,-12.975 15.658,-22.727 29.273,-29.256c13.616,-6.529 32.148,-9.793 55.598,-9.793l5.9,0l-0,19.831c-11.952,-0 -20.915,0.693 -26.891,2.081c-5.976,1.387 -10.817,3.468 -14.524,6.243c-3.706,2.774 -6.77,6.365 -9.19,10.772c-2.421,4.407 -4.312,10.527 -5.673,18.362c-1.362,7.834 -2.043,18.198 -2.043,31.092l0,47.496c0,16.485 -1.323,30.236 -3.971,41.253c-2.647,11.017 -7.375,20.565 -14.183,28.644c-6.808,8.079 -16.112,14.73 -27.912,19.953l-0,4.407c11.498,5.06 20.764,11.751 27.799,20.075c7.034,8.324 11.838,18.077 14.41,29.257c2.571,11.18 3.857,24.686 3.857,40.518l0,47.496c0,12.894 0.681,23.258 2.043,31.092c1.361,7.835 3.252,13.955 5.673,18.362c2.42,4.407 5.484,7.998 9.19,10.772c3.707,2.775 8.548,4.856 14.524,6.243c5.976,1.388 14.939,2.081 26.891,2.081l-0,19.831l-5.9,-0Z" style="fill-rule:nonzero;"/><path d="M466.405,1431.95c-36.543,0 -65.425,-7.068 -86.644,-21.205c-21.219,-14.136 -36.426,-35.253 -45.62,-63.35c-9.195,-28.096 -13.793,-65.824 -13.793,-113.182l0,-153.206c0,-31.454 -2.652,-55.928 -7.957,-73.422c-5.305,-17.494 -13.262,-29.776 -23.871,-36.844c-10.61,-7.068 -25.463,-10.602 -44.56,-10.602l-0,-43.471c18.861,0 33.597,-3.534 44.206,-10.602c10.61,-7.069 18.626,-19.261 24.048,-36.579c5.423,-17.317 8.134,-41.88 8.134,-73.687l0,-153.207c0,-47.357 4.598,-85.085 13.793,-113.181c9.194,-28.097 24.401,-49.214 45.62,-63.35c21.219,-14.137 50.101,-21.205 86.644,-21.205l9.195,-0l0,42.94c-18.625,-0 -32.594,1.502 -41.907,4.506c-9.313,3.004 -16.857,7.51 -22.634,13.518c-5.776,6.008 -10.55,13.783 -14.323,23.326c-3.772,9.542 -6.719,22.795 -8.841,39.759c-2.122,16.964 -3.183,39.406 -3.183,67.326l0,102.844c0,35.695 -2.063,65.471 -6.188,89.326c-4.126,23.856 -11.494,44.531 -22.104,62.025c-10.609,17.494 -25.109,31.896 -43.498,43.205l-0,9.543c17.918,10.955 32.358,25.446 43.322,43.47c10.963,18.024 18.448,39.141 22.456,63.35c4.008,24.209 6.012,53.454 6.012,87.736l0,102.844c0,27.92 1.061,50.362 3.183,67.326c2.122,16.964 5.069,30.217 8.841,39.759c3.773,9.543 8.547,17.318 14.323,23.326c5.777,6.008 13.321,10.514 22.634,13.518c9.313,3.004 23.282,4.506 41.907,4.506l0,42.94l-9.195,0Z" style="fill-rule:nonzero;"/><text x="119.48px" y="962.848px" style="font-family:'IBMPlexSans-Regular', 'IBM Plex Sans', sans-serif;font-size:116.667px;">P</text><text x="443.126px" y="1235.08px" style="font-family:'IBMPlexSans-Regular', 'IBM Plex Sans', sans-serif;font-size:116.667px;">E</text><text x="178.426px" y="992.163px" style="font-family:'IBMPlexSans-Regular', 'IBM Plex Sans', sans-serif;font-size:83.333px;">z</text><text x="516.677px" y="1251.93px" style="font-family:'IBMPlexSans-Regular', 'IBM Plex Sans', sans-serif;font-size:83.333px;">z</text><path d="M613.108,1461.96l0,-4.101l61.068,-0l-19.596,-14.128l2.734,-3.646l27.344,19.596l-0,2.279l-71.55,0Z" style="fill-rule:nonzero;"/><path d="M916.443,803.403l-0,-4.102l61.067,0l-19.596,-14.127l2.734,-3.646l27.344,19.596l0,2.279l-71.549,-0Z" style="fill-rule:nonzero;"/><path d="M1315.66,277.493l0,-4.102l61.068,-0l-19.596,-14.128l2.734,-3.645l27.344,19.596l-0,2.279l-71.55,-0Z" style="fill-rule:nonzero;"/><text x="1372.89px" y="959.56px" style="font-family:'IBMPlexSans-Regular', 'IBM Plex Sans', sans-serif;font-size:100px;">P<tspan x="1432.49px 1468.69px " y="959.56px 959.56px ">ro</tspan>jection Plane</text></g></svg>