<?xml version="1.0" encoding="UTF-8" standalone="no"?><!DOCTYPE svg PUBLIC "-//W3C//DTD SVG 1.1//EN" "http://www.w3.org/Graphics/SVG/1.1/DTD/svg11.dtd"><svg width="3750px" height="1875px" version="1.1" xmlns="http://www.w3.org/2000/svg" xmlns:xlink="http://www.w3.org/1999/xlink" xml:space="preserve" xmlns:serif="http://www.serif.com/" style="fill-rule:evenodd;clip-rule:evenodd;"><path d="M416.667,1041.67l833.333,-0l416.667,-416.667l-0,-416.667l-1666.67,0l0,416.667l416.667,416.667Z" style="fill:#e0e0e0;fill-rule:nonzero;"/><rect x="2500" y="416.667" width="833.333" height="833.333" style="fill:#e0e0e0;"/><path d="M833.333,1458.33l833.334,-833.333" style="fill:none;fill-rule:nonzero;stroke:#000;stroke-width:4.17px;stroke-dasharray:12.5,12.5;"/><path d="M833.333,1458.33l-833.333,-833.333" style="fill:none;fill-rule:nonzero;stroke:#000;stroke-width:4.17px;stroke-dasharray:12.5,12.5;"/><path d="M833.333,1458.33l0,-1458.33" style="fill:none;fill-rule:nonzero;stroke:#000;stroke-width:4.17px;"/><path d="M833.333,1458.33l0,208.334" style="fill:none;fill-rule:nonzero;stroke:#000;stroke-width:4.17px;"/><path d="M833.333,1458.33l-833.333,0" style="fill:none;fill-rule:nonzero;stroke:#000;stroke-width:4.17px;"/><path d="M833.333,1458.33l833.334,0" style="fill:none;fill-rule:nonzero;stroke:#000;stroke-width:4.17px;"/><path d="M866.667,208.333l-66.667,0" style="fill:none;fill-rule:nonzero;stroke:#000;stroke-width:4.17px;"/><path d="M883.333,416.667l-100,-0" style="fill:none;fill-rule:nonzero;stroke:#000;stroke-width:4.17px;"/><path d="M866.667,625l-66.667,0" style="fill:none;fill-rule:nonzero;stroke:#000;stroke-width:4.17px;"/><path d="M883.333,833.333l-100,0" style="fill:none;fill-rule:nonzero;stroke:#000;stroke-width:4.17px;"/><path d="M866.667,1041.67l-66.667,-0" style="fill:none;fill-rule:nonzero;stroke:#000;stroke-width:4.17px;"/><path d="M883.333,1250l-100,0" style="fill:none;fill-rule:nonzero;stroke:#000;stroke-width:4.17px;"/><path d="M866.667,1458.33l-66.667,0" style="fill:none;fill-rule:nonzero;stroke:#000;stroke-width:4.17px;"/><path d="M208.333,1491.67l0,-66.667" style="fill:none;fill-rule:nonzero;stroke:#000;stroke-width:4.17px;"/><path d="M416.667,1508.33l-0,-100" style="fill:none;fill-rule:nonzero;stroke:#000;stroke-width:4.17px;"/><path d="M625,1491.67l0,-66.667" style="fill:none;fill-rule:nonzero;stroke:#000;stroke-width:4.17px;"/><path d="M833.333,1508.33l0,-100" style="fill:none;fill-rule:nonzero;stroke:#000;stroke-width:4.17px;"/><path d="M1041.67,1491.67l-0,-66.667" style="fill:none;fill-rule:nonzero;stroke:#000;stroke-width:4.17px;"/><path d="M1250,1508.33l0,-100" style="fill:none;fill-rule:nonzero;stroke:#000;stroke-width:4.17px;"/><path d="M1458.33,1491.67l0,-66.667" style="fill:none;fill-rule:nonzero;stroke:#000;stroke-width:4.17px;"/><path d="M2916.67,833.333l-0,833.334" style="fill:none;fill-rule:nonzero;stroke:#000;stroke-width:4.17px;"/><path d="M2916.67,833.333l-0,-833.333" style="fill:none;fill-rule:nonzero;stroke:#000;stroke-width:4.17px;"/><path d="M2916.67,833.333l-833.334,0" style="fill:none;fill-rule:nonzero;stroke:#000;stroke-width:4.17px;"/><path d="M2916.67,833.333l833.333,0" style="fill:none;fill-rule:nonzero;stroke:#000;stroke-width:4.17px;"/><path d="M2950,1458.33l-66.667,0" style="fill:none;fill-rule:nonzero;stroke:#000;stroke-width:4.17px;"/><path d="M2966.67,1250l-100,0" style="fill:none;fill-rule:nonzero;stroke:#000;stroke-width:4.17px;"/><path d="M2950,1041.67l-66.667,-0" style="fill:none;fill-rule:nonzero;stroke:#000;stroke-width:4.17px;"/><path d="M2966.67,833.333l-100,0" style="fill:none;fill-rule:nonzero;stroke:#000;stroke-width:4.17px;"/><path d="M2950,625l-66.667,0" style="fill:none;fill-rule:nonzero;stroke:#000;stroke-width:4.17px;"/><path d="M2966.67,416.667l-100,-0" style="fill:none;fill-rule:nonzero;stroke:#000;stroke-width:4.17px;"/><path d="M2950,208.333l-66.667,0" style="fill:none;fill-rule:nonzero;stroke:#000;stroke-width:4.17px;"/><path d="M2291.67,800l-0,66.667" style="fill:none;fill-rule:nonzero;stroke:#000;stroke-width:4.17px;"/><path d="M2500,783.333l0,100" style="fill:none;fill-rule:nonzero;stroke:#000;stroke-width:4.17px;"/><path d="M2708.33,800l0,66.667" style="fill:none;fill-rule:nonzero;stroke:#000;stroke-width:4.17px;"/><path d="M2916.67,783.333l-0,100" style="fill:none;fill-rule:nonzero;stroke:#000;stroke-width:4.17px;"/><path d="M3125,800l0,66.667" style="fill:none;fill-rule:nonzero;stroke:#000;stroke-width:4.17px;"/><path d="M3333.33,783.333l0,100" style="fill:none;fill-rule:nonzero;stroke:#000;stroke-width:4.17px;"/><path d="M3541.67,800l-0,66.667" style="fill:none;fill-rule:nonzero;stroke:#000;stroke-width:4.17px;"/><path d="M1458.33,937.5l0,208.333l-416.666,0l-0,-208.333m416.666,-208.333l0,208.333l-416.666,0l-0,-208.333m416.666,-208.334l0,208.334l-416.666,-0l-0,-208.334m416.666,-208.333l0,208.333l-416.666,0l-0,-208.333m416.666,-208.333l0,208.333l-416.666,-0l-0,-208.333l416.666,-0Z" style="fill:none;fill-rule:nonzero;stroke:#00c000;stroke-width:4.17px;"/><path d="M3416.67,1000l333.333,666.667l-555.556,-0l-111.111,-666.667m190.477,-285.714l142.857,285.714l-333.334,0l-47.619,-285.714m158.73,-158.73l79.366,158.73l-238.096,-0l-26.455,-158.73m134.68,-101.011l50.505,101.011l-185.185,-0l-16.835,-101.011m116.55,-69.93l34.965,69.93l-151.515,0l-11.655,-69.93l128.205,0Z" style="fill:none;fill-rule:nonzero;stroke:#00c000;stroke-width:4.17px;"/><circle cx="1458.33" cy="1145.83" r="20.833" style="fill:#00c000;stroke:#000;stroke-width:2.08px;"/><circle cx="3750" cy="1666.67" r="20.833" style="fill:#00c000;stroke:#000;stroke-width:2.08px;"/><circle cx="1041.67" cy="1145.83" r="20.833" style="fill:#00c000;stroke:#000;stroke-width:2.08px;"/><circle cx="3194.44" cy="1666.67" r="20.833" style="fill:#00c000;stroke:#000;stroke-width:2.08px;"/><circle cx="1458.33" cy="937.5" r="20.833" style="fill:#00c000;stroke:#000;stroke-width:2.08px;"/><circle cx="3416.67" cy="1000" r="20.833" style="fill:#00c000;stroke:#000;stroke-width:2.08px;"/><circle cx="1041.67" cy="937.5" r="20.833" style="fill:#00c000;stroke:#000;stroke-width:2.08px;"/><circle cx="3083.33" cy="1000" r="20.833" style="fill:#00c000;stroke:#000;stroke-width:2.08px;"/><circle cx="1458.33" cy="729.167" r="20.833" style="fill:#00c000;stroke:#000;stroke-width:2.08px;"/><circle cx="3273.81" cy="714.286" r="20.833" style="fill:#00c000;stroke:#000;stroke-width:2.08px;"/><circle cx="1041.67" cy="729.167" r="20.833" style="fill:#00c000;stroke:#000;stroke-width:2.08px;"/><circle cx="3035.71" cy="714.286" r="20.833" style="fill:#00c000;stroke:#000;stroke-width:2.08px;"/><circle cx="1458.33" cy="520.833" r="20.833" style="fill:#00c000;stroke:#000;stroke-width:2.08px;"/><circle cx="3194.44" cy="555.556" r="20.833" style="fill:#00c000;stroke:#000;stroke-width:2.08px;"/><circle cx="1041.67" cy="520.833" r="20.833" style="fill:#00c000;stroke:#000;stroke-width:2.08px;"/><circle cx="3009.26" cy="555.556" r="20.833" style="fill:#00c000;stroke:#000;stroke-width:2.08px;"/><circle cx="1458.33" cy="312.5" r="20.833" style="fill:#00c000;stroke:#000;stroke-width:2.08px;"/><circle cx="3143.94" cy="454.545" r="20.833" style="fill:#00c000;stroke:#000;stroke-width:2.08px;"/><circle cx="1041.67" cy="312.5" r="20.833" style="fill:#00c000;stroke:#000;stroke-width:2.08px;"/><circle cx="2992.42" cy="454.545" r="20.833" style="fill:#00c000;stroke:#000;stroke-width:2.08px;"/><circle cx="1458.33" cy="104.167" r="20.833" style="fill:#00c000;stroke:#000;stroke-width:2.08px;"/><circle cx="3108.97" cy="384.615" r="20.833" style="fill:#00c000;stroke:#000;stroke-width:2.08px;"/><circle cx="1041.67" cy="104.167" r="20.833" style="fill:#00c000;stroke:#000;stroke-width:2.08px;"/><circle cx="2980.77" cy="384.615" r="20.833" style="fill:#00c000;stroke:#000;stroke-width:2.08px;"/><text x="1479.17px" y="1416.67px" style="font-family:'IBMPlexSans-Regular', 'IBM Plex Sans', sans-serif;font-size:125px;stroke:#000;stroke-width:4.17px;">+X</text><text x="625px" y="125px" style="font-family:'IBMPlexSans-Regular', 'IBM Plex Sans', sans-serif;font-size:125px;stroke:#000;stroke-width:4.17px;">-<tspan x="669.875px " y="125px ">Z</tspan></text><text x="3562.5px" y="791.667px" style="font-family:'IBMPlexSans-Regular', 'IBM Plex Sans', sans-serif;font-size:125px;stroke:#000;stroke-width:4.17px;">+X</text><text x="2708.33px" y="125px" style="font-family:'IBMPlexSans-Regular', 'IBM Plex Sans', sans-serif;font-size:125px;stroke:#000;stroke-width:4.17px;">+Z</text><text x="295.75px" y="1833.33px" style="font-family:'IBMPlexSans-Regular', 'IBM Plex Sans', sans-serif;font-size:166.667px;stroke:#000;stroke-width:4.17px;">Camer<tspan x="785.75px " y="1833.33px ">a</tspan> Spac<tspan x="1279.42px " y="1833.33px ">e</tspan></text><text x="2149.58px" y="1833.33px" style="font-family:'IBMPlexSans-Regular', 'IBM Plex Sans', sans-serif;font-size:166.667px;stroke:#000;stroke-width:4.17px;">Norm. De<tspan x="2854.08px " y="1833.33px ">v</tspan>ic<tspan x="3060.58px " y="1833.33px ">e</tspan> Coor<tspan x="3541.75px " y="1833.33px ">d</tspan>.</text></svg>