<?xml version="1.0" encoding="UTF-8" standalone="no"?><!DOCTYPE svg PUBLIC "-//W3C//DTD SVG 1.1//EN" "http://www.w3.org/Graphics/SVG/1.1/DTD/svg11.dtd"><svg width="2584px" height="2500px" version="1.1" xmlns="http://www.w3.org/2000/svg" xmlns:xlink="http://www.w3.org/1999/xlink" xml:space="preserve" xmlns:serif="http://www.serif.com/" style="fill-rule:evenodd;clip-rule:evenodd;stroke-linecap:round;stroke-linejoin:round;"><g><g><path d="M1755.83,927.917l-422.5,322.083l0,762.083l397.5,-377.916l25,-706.25Z" style="fill:#d7ebc8;fill-opacity:0.5;stroke:#b9cdaa;stroke-width:6.25px;"/><path d="M408.333,1317.5l925,-67.5l0,762.083l-863.333,78.334l-61.667,-772.917Z" style="fill:#d7ebc8;fill-opacity:0.5;stroke:#b9cdaa;stroke-width:6.25px;"/><path d="M799.583,1657.08l533.75,-407.083l0,762.083l-494.583,470l-39.167,-825Z" style="fill:#d7ebc8;fill-opacity:0.5;stroke:#b9cdaa;stroke-width:6.25px;"/><path d="M2219.58,1185.42l-886.25,64.583l0,762.083l829.584,-75.416l56.666,-751.25Z" style="fill:#d7ebc8;fill-opacity:0.5;stroke:#b9cdaa;stroke-width:6.25px;"/><ellipse cx="1333.33" cy="1308.33" rx="925" ry="425" style="fill:#d7ebc8;fill-opacity:0.5;stroke:#b9cdaa;stroke-width:6.25px;"/><path d="M1755.83,927.917l-422.5,322.083l0,-876.25l450.834,-246.25l-28.334,800.417Z" style="fill:#d7ebc8;fill-opacity:0.5;stroke:#b9cdaa;stroke-width:6.25px;"/><path d="M408.333,1317.5l925,-67.5l0,-876.25l-995.833,52.083l70.833,891.667Z" style="fill:#d7ebc8;fill-opacity:0.5;stroke:#b9cdaa;stroke-width:6.25px;"/><path d="M799.583,1657.08l533.75,-407.083l0,-876.25l-579.583,316.667l45.833,966.666Z" style="fill:#d7ebc8;fill-opacity:0.5;stroke:#b9cdaa;stroke-width:6.25px;"/><path d="M2219.58,1185.42l-886.25,64.583l0,-876.25l951.25,-49.583l-65,861.25Z" style="fill:#d7ebc8;fill-opacity:0.5;stroke:#b9cdaa;stroke-width:6.25px;"/></g><path d="M1333.33,1250l-657.916,501.667" style="fill:none;stroke:#000;stroke-width:6.25px;"/><g><circle cx="1236.67" cy="1323.75" r="4.167" style="stroke:#000;stroke-width:6.25px;"/><circle cx="1135.42" cy="1400.83" r="4.167" style="stroke:#000;stroke-width:6.25px;"/><circle cx="1029.17" cy="1482.08" r="4.167" style="stroke:#000;stroke-width:6.25px;"/><circle cx="917.5" cy="1567.08" r="4.167" style="stroke:#000;stroke-width:6.25px;"/><circle cx="799.583" cy="1657.08" r="4.167" style="stroke:#000;stroke-width:6.25px;"/></g><text x="576.708px" y="1847.5px" style="font-family:'IBMPlexSans-Italic', 'IBM Plex Sans', sans-serif;font-style:italic;font-size:125px;fill:none;stroke:#fff;stroke-width:12.5px;">A</text><text x="576.708px" y="1847.5px" style="font-family:'IBMPlexSans-Italic', 'IBM Plex Sans', sans-serif;font-style:italic;font-size:125px;">A</text><path d="M1333.33,1250l0,-1067.5" style="fill:none;stroke:#000;stroke-width:6.25px;"/><g><circle cx="1333.33" cy="1084.58" r="4.167" style="stroke:#000;stroke-width:6.25px;"/><circle cx="1333.33" cy="914.583" r="4.167" style="stroke:#000;stroke-width:6.25px;"/><circle cx="1333.33" cy="739.583" r="4.167" style="stroke:#000;stroke-width:6.25px;"/><circle cx="1333.33" cy="559.167" r="4.167" style="stroke:#000;stroke-width:6.25px;"/><circle cx="1333.33" cy="373.75" r="4.167" style="stroke:#000;stroke-width:6.25px;"/></g><path d="M1333.33,132.586l15.834,80.887l-31.667,0l15.833,-80.887Z"/><text x="1242.12px" y="161.667px" style="font-family:'IBMPlexSans-Italic', 'IBM Plex Sans', sans-serif;font-style:italic;font-size:125px;fill:none;stroke:#fff;stroke-width:12.5px;">Z</text><text x="1242.12px" y="161.667px" style="font-family:'IBMPlexSans-Italic', 'IBM Plex Sans', sans-serif;font-style:italic;font-size:125px;">Z</text><path d="M1333.33,1250l0,-690.833" style="fill:none;stroke:#c80064;stroke-width:6.25px;"/><text x="1354.17px" y="979.583px" style="font-family:'IBMPlexSans-Italic', 'IBM Plex Sans', sans-serif;font-style:italic;font-size:125px;fill:none;stroke:#fff;stroke-width:12.5px;">r</text><text x="1354.17px" y="979.583px" style="font-family:'IBMPlexSans-Italic', 'IBM Plex Sans', sans-serif;font-style:italic;font-size:125px;">r</text><path d="M1333.33,1250l-396.666,52.917" style="fill:none;stroke:#000;stroke-width:6.25px;stroke-dasharray:12.5,16.67;stroke-dashoffset:37.5;"/><path d="M1333.33,1250l682.5,-273.333" style="fill:none;stroke:#000;stroke-width:6.25px;stroke-dasharray:12.5,16.67;stroke-dashoffset:37.5;"/><path d="M1333.33,1022.5l-396.666,280.417" style="fill:none;stroke:#000;stroke-width:6.25px;stroke-dasharray:12.5,16.67;stroke-dashoffset:37.5;"/><path d="M1333.33,1022.5l682.5,-45.833" style="fill:none;stroke:#000;stroke-width:6.25px;stroke-dasharray:12.5,16.67;stroke-dashoffset:37.5;"/><path d="M1333.33,1250l-415.833,317.083" style="fill:none;stroke:#000;stroke-width:6.25px;stroke-dasharray:12.5,16.67;stroke-dashoffset:37.5;"/><path d="M1333.33,1250l712.084,-51.667" style="fill:none;stroke:#000;stroke-width:6.25px;stroke-dasharray:12.5,16.67;stroke-dashoffset:37.5;"/><g><path d="M1333.33,559.167l-14.166,9.166l14.166,681.667" style="fill:#6400c8;fill-opacity:0.25;"/><path d="M1319.17,568.333l-14.167,9.584l28.333,672.083" style="fill:#6400c8;fill-opacity:0.25;"/><path d="M1305,577.917l-14.167,10.833l42.5,661.25" style="fill:#6400c8;fill-opacity:0.25;"/><path d="M1290.83,588.75l-12.916,10.417l55.416,650.833" style="fill:#6400c8;fill-opacity:0.25;"/><path d="M1277.92,599.167l-12.917,11.25l68.333,639.583" style="fill:#6400c8;fill-opacity:0.25;"/><path d="M1265,610.417l-12.917,12.083l81.25,627.5" style="fill:#6400c8;fill-opacity:0.25;"/><path d="M1252.08,622.5l-12.916,12.917l94.166,614.583" style="fill:#6400c8;fill-opacity:0.25;"/><path d="M1239.17,635.417l-11.667,12.083l105.833,602.5" style="fill:#6400c8;fill-opacity:0.25;"/><path d="M1227.5,647.5l-11.25,12.5l117.083,590" style="fill:#6400c8;fill-opacity:0.25;"/><path d="M1216.25,660l-11.667,13.333l128.75,576.667" style="fill:#6400c8;fill-opacity:0.25;"/><path d="M1204.58,673.333l-11.25,13.75l140,562.917" style="fill:#6400c8;fill-opacity:0.25;"/><path d="M1193.33,687.083l-11.25,14.167l151.25,548.75" style="fill:#6400c8;fill-opacity:0.25;"/><path d="M1182.08,701.25l-10,13.333l161.25,535.417" style="fill:#6400c8;fill-opacity:0.25;"/><path d="M1172.08,714.583l-10,13.75l171.25,521.667" style="fill:#6400c8;fill-opacity:0.25;"/><path d="M1162.08,728.333l-9.583,14.167l180.833,507.5" style="fill:#6400c8;fill-opacity:0.25;"/><path d="M1152.5,742.5l-10,14.583l190.833,492.917" style="fill:#6400c8;fill-opacity:0.25;"/><path d="M1142.5,757.083l-9.583,15l200.416,477.917" style="fill:#6400c8;fill-opacity:0.25;"/><path d="M1132.92,772.083l-9.584,15.417l210,462.5" style="fill:#6400c8;fill-opacity:0.25;"/><path d="M1123.33,787.5l-9.166,15.833l219.166,446.667" style="fill:#6400c8;fill-opacity:0.25;"/><path d="M1114.17,803.333l-8.334,14.167l227.5,432.5" style="fill:#6400c8;fill-opacity:0.25;"/><path d="M1105.83,817.5l-8.333,15l235.833,417.5" style="fill:#6400c8;fill-opacity:0.25;"/><path d="M1097.5,832.5l-8.333,14.583l244.166,402.917" style="fill:#6400c8;fill-opacity:0.25;"/><path d="M1089.17,847.083l-7.917,15.417l252.083,387.5" style="fill:#6400c8;fill-opacity:0.25;"/><path d="M1081.25,862.5l-7.917,15.417l260,372.083" style="fill:#6400c8;fill-opacity:0.25;"/><path d="M1073.33,877.917l-7.5,15.833l267.5,356.25" style="fill:#6400c8;fill-opacity:0.25;"/><path d="M1065.83,893.75l-7.5,15.833l275,340.417" style="fill:#6400c8;fill-opacity:0.25;"/><path d="M1058.33,909.583l-7.5,16.25l282.5,324.167" style="fill:#6400c8;fill-opacity:0.25;"/><path d="M1050.83,925.833l-7.5,16.667l290,307.5" style="fill:#6400c8;fill-opacity:0.25;"/><path d="M1043.33,942.5l-7.083,16.667l297.083,290.833" style="fill:#6400c8;fill-opacity:0.25;"/><path d="M1036.25,959.167l-6.667,16.666l303.75,274.167" style="fill:#6400c8;fill-opacity:0.25;"/><path d="M1029.58,975.833l-7.083,17.084l310.833,257.083" style="fill:#6400c8;fill-opacity:0.25;"/><path d="M1022.5,992.917l-5.833,15.416l316.666,241.667" style="fill:#6400c8;fill-opacity:0.25;"/><path d="M1016.67,1008.33l-5.834,15.834l322.5,225.833" style="fill:#6400c8;fill-opacity:0.25;"/><path d="M1010.83,1024.17l-5.833,15.833l328.333,210" style="fill:#6400c8;fill-opacity:0.25;"/><path d="M1005,1040l-5.417,15.833l333.75,194.167" style="fill:#6400c8;fill-opacity:0.25;"/><path d="M999.583,1055.83l-5.416,15.834l339.166,178.333" style="fill:#6400c8;fill-opacity:0.25;"/><path d="M994.167,1071.67l-5,16.25l344.166,162.083" style="fill:#6400c8;fill-opacity:0.25;"/><path d="M989.167,1087.92l-5.417,16.25l349.583,145.833" style="fill:#6400c8;fill-opacity:0.25;"/><path d="M983.75,1104.17l-4.583,16.25l354.166,129.583" style="fill:#6400c8;fill-opacity:0.25;"/><path d="M979.167,1120.42l-5,16.25l359.166,113.333" style="fill:#6400c8;fill-opacity:0.25;"/><path d="M974.167,1136.67l-4.584,16.25l363.75,97.083" style="fill:#6400c8;fill-opacity:0.25;"/><path d="M969.583,1152.92l-4.166,16.666l367.916,80.417" style="fill:#6400c8;fill-opacity:0.25;"/><path d="M965.417,1169.58l-4.167,16.25l372.083,64.167" style="fill:#6400c8;fill-opacity:0.25;"/><path d="M961.25,1185.83l-4.167,16.667l376.25,47.5" style="fill:#6400c8;fill-opacity:0.25;"/><path d="M957.083,1202.5l-3.75,16.667l380,30.833" style="fill:#6400c8;fill-opacity:0.25;"/><path d="M953.333,1219.17l-3.75,16.25l383.75,14.583" style="fill:#6400c8;fill-opacity:0.25;"/><path d="M949.583,1235.42l-3.333,16.666l387.083,-2.083" style="fill:#6400c8;fill-opacity:0.25;"/><path d="M946.25,1252.08l-3.333,16.25l390.416,-18.333" style="fill:#6400c8;fill-opacity:0.25;"/><path d="M942.917,1268.33l-3.334,16.667l393.75,-35" style="fill:#6400c8;fill-opacity:0.25;"/><path d="M939.583,1285l-2.916,16.667l396.666,-51.667" style="fill:#6400c8;fill-opacity:0.25;"/><path d="M936.667,1301.67l-0,1.25l396.666,-52.917" style="fill:#6400c8;fill-opacity:0.25;"/></g><g><path d="M1333.33,559.167l-14.166,9.166" style="fill:none;stroke:#c80064;stroke-width:6.25px;"/><path d="M1319.17,568.333l-14.167,9.584" style="fill:none;stroke:#c80064;stroke-width:6.25px;"/><path d="M1305,577.917l-14.167,10.833" style="fill:none;stroke:#c80064;stroke-width:6.25px;"/><path d="M1290.83,588.75l-12.916,10.417" style="fill:none;stroke:#c80064;stroke-width:6.25px;"/><path d="M1277.92,599.167l-12.917,11.25" style="fill:none;stroke:#c80064;stroke-width:6.25px;"/><path d="M1265,610.417l-12.917,12.083" style="fill:none;stroke:#c80064;stroke-width:6.25px;"/><path d="M1252.08,622.5l-12.916,12.917" style="fill:none;stroke:#c80064;stroke-width:6.25px;"/><path d="M1239.17,635.417l-11.667,12.083" style="fill:none;stroke:#c80064;stroke-width:6.25px;"/><path d="M1227.5,647.5l-11.25,12.5" style="fill:none;stroke:#c80064;stroke-width:6.25px;"/><path d="M1216.25,660l-11.667,13.333" style="fill:none;stroke:#c80064;stroke-width:6.25px;"/><path d="M1204.58,673.333l-11.25,13.75" style="fill:none;stroke:#c80064;stroke-width:6.25px;"/><path d="M1193.33,687.083l-11.25,14.167" style="fill:none;stroke:#c80064;stroke-width:6.25px;"/><path d="M1182.08,701.25l-10,13.333" style="fill:none;stroke:#c80064;stroke-width:6.25px;"/><path d="M1172.08,714.583l-10,13.75" style="fill:none;stroke:#c80064;stroke-width:6.25px;"/><path d="M1162.08,728.333l-9.583,14.167" style="fill:none;stroke:#c80064;stroke-width:6.25px;"/><path d="M1152.5,742.5l-10,14.583" style="fill:none;stroke:#c80064;stroke-width:6.25px;"/><path d="M1142.5,757.083l-9.583,15" style="fill:none;stroke:#c80064;stroke-width:6.25px;"/><path d="M1132.92,772.083l-9.584,15.417" style="fill:none;stroke:#c80064;stroke-width:6.25px;"/><path d="M1123.33,787.5l-9.166,15.833" style="fill:none;stroke:#c80064;stroke-width:6.25px;"/><path d="M1114.17,803.333l-8.334,14.167" style="fill:none;stroke:#c80064;stroke-width:6.25px;"/><path d="M1105.83,817.5l-8.333,15" style="fill:none;stroke:#c80064;stroke-width:6.25px;"/><path d="M1097.5,832.5l-8.333,14.583" style="fill:none;stroke:#c80064;stroke-width:6.25px;"/><path d="M1089.17,847.083l-7.917,15.417" style="fill:none;stroke:#c80064;stroke-width:6.25px;"/><path d="M1081.25,862.5l-7.917,15.417" style="fill:none;stroke:#c80064;stroke-width:6.25px;"/><path d="M1073.33,877.917l-7.5,15.833" style="fill:none;stroke:#c80064;stroke-width:6.25px;"/><path d="M1065.83,893.75l-7.5,15.833" style="fill:none;stroke:#c80064;stroke-width:6.25px;"/><path d="M1058.33,909.583l-7.5,16.25" style="fill:none;stroke:#c80064;stroke-width:6.25px;"/><path d="M1050.83,925.833l-7.5,16.667" style="fill:none;stroke:#c80064;stroke-width:6.25px;"/><path d="M1043.33,942.5l-7.083,16.667" style="fill:none;stroke:#c80064;stroke-width:6.25px;"/><path d="M1036.25,959.167l-6.667,16.666" style="fill:none;stroke:#c80064;stroke-width:6.25px;"/><path d="M1029.58,975.833l-7.083,17.084" style="fill:none;stroke:#c80064;stroke-width:6.25px;"/><path d="M1022.5,992.917l-5.833,15.416" style="fill:none;stroke:#c80064;stroke-width:6.25px;"/><path d="M1016.67,1008.33l-5.834,15.834" style="fill:none;stroke:#c80064;stroke-width:6.25px;"/><path d="M1010.83,1024.17l-5.833,15.833" style="fill:none;stroke:#c80064;stroke-width:6.25px;"/><path d="M1005,1040l-5.417,15.833" style="fill:none;stroke:#c80064;stroke-width:6.25px;"/><path d="M999.583,1055.83l-5.416,15.834" style="fill:none;stroke:#c80064;stroke-width:6.25px;"/><path d="M994.167,1071.67l-5,16.25" style="fill:none;stroke:#c80064;stroke-width:6.25px;"/><path d="M989.167,1087.92l-5.417,16.25" style="fill:none;stroke:#c80064;stroke-width:6.25px;"/><path d="M983.75,1104.17l-4.583,16.25" style="fill:none;stroke:#c80064;stroke-width:6.25px;"/><path d="M979.167,1120.42l-5,16.25" style="fill:none;stroke:#c80064;stroke-width:6.25px;"/><path d="M974.167,1136.67l-4.584,16.25" style="fill:none;stroke:#c80064;stroke-width:6.25px;"/><path d="M969.583,1152.92l-4.166,16.666" style="fill:none;stroke:#c80064;stroke-width:6.25px;"/><path d="M965.417,1169.58l-4.167,16.25" style="fill:none;stroke:#c80064;stroke-width:6.25px;"/><path d="M961.25,1185.83l-4.167,16.667" style="fill:none;stroke:#c80064;stroke-width:6.25px;"/><path d="M957.083,1202.5l-3.75,16.667" style="fill:none;stroke:#c80064;stroke-width:6.25px;"/><path d="M953.333,1219.17l-3.75,16.25" style="fill:none;stroke:#c80064;stroke-width:6.25px;"/><path d="M949.583,1235.42l-3.333,16.666" style="fill:none;stroke:#c80064;stroke-width:6.25px;"/><path d="M946.25,1252.08l-3.333,16.25" style="fill:none;stroke:#c80064;stroke-width:6.25px;"/><path d="M942.917,1268.33l-3.334,16.667" style="fill:none;stroke:#c80064;stroke-width:6.25px;"/><path d="M939.583,1285l-2.916,16.667" style="fill:none;stroke:#c80064;stroke-width:6.25px;"/><path d="M936.667,1301.67l-0,1.25" style="fill:none;stroke:#c80064;stroke-width:6.25px;"/></g><text x="1013.38px" y="822.083px" style="font-family:'IBMPlexSans-Italic', 'IBM Plex Sans', sans-serif;font-style:italic;font-size:125px;fill:none;stroke:#fff;stroke-width:12.5px;">θ</text><text x="1013.38px" y="822.083px" style="font-family:'IBMPlexSans-Italic', 'IBM Plex Sans', sans-serif;font-style:italic;font-size:125px;">θ</text><g><path d="M935,1311.25l-2.5,16.25" style="fill:none;stroke:#000;stroke-width:6.25px;"/><path d="M930.833,1340l-2.5,16.25" style="fill:none;stroke:#000;stroke-width:6.25px;"/><path d="M926.667,1368.75l-1.667,16.667" style="fill:none;stroke:#000;stroke-width:6.25px;"/><path d="M923.333,1397.92l-1.25,16.666" style="fill:none;stroke:#000;stroke-width:6.25px;"/><path d="M920.833,1426.67l-1.25,16.666" style="fill:none;stroke:#000;stroke-width:6.25px;"/><path d="M918.75,1455.83l-0.833,16.667" style="fill:none;stroke:#000;stroke-width:6.25px;"/><path d="M917.5,1485l-0.417,16.667" style="fill:none;stroke:#000;stroke-width:6.25px;"/><path d="M916.667,1514.17l-0,16.666" style="fill:none;stroke:#000;stroke-width:6.25px;"/><path d="M916.667,1543.33l0.416,16.667" style="fill:none;stroke:#000;stroke-width:6.25px;"/></g><g><path d="M1341.67,558.75l16.666,-0.417" style="fill:none;stroke:#000;stroke-width:6.25px;"/><path d="M1370.83,557.917l16.667,0.416" style="fill:none;stroke:#000;stroke-width:6.25px;"/><path d="M1400,558.333l16.667,0.834" style="fill:none;stroke:#000;stroke-width:6.25px;"/><path d="M1429.17,559.583l16.666,1.25" style="fill:none;stroke:#000;stroke-width:6.25px;"/><path d="M1458.33,562.083l16.25,2.084" style="fill:none;stroke:#000;stroke-width:6.25px;"/><path d="M1487.08,565.417l16.667,2.5" style="fill:none;stroke:#000;stroke-width:6.25px;"/><path d="M1515.83,570l16.25,3.333" style="fill:none;stroke:#000;stroke-width:6.25px;"/><path d="M1544.58,575.833l16.25,3.75" style="fill:none;stroke:#000;stroke-width:6.25px;"/><path d="M1572.92,582.917l15.833,4.166" style="fill:none;stroke:#000;stroke-width:6.25px;"/><path d="M1600.83,590.833l15.834,5" style="fill:none;stroke:#000;stroke-width:6.25px;"/><path d="M1628.75,599.583l15.417,5.834" style="fill:none;stroke:#000;stroke-width:6.25px;"/><path d="M1655.83,610l15.417,6.25" style="fill:none;stroke:#000;stroke-width:6.25px;"/><path d="M1682.92,621.25l15,7.083" style="fill:none;stroke:#000;stroke-width:6.25px;"/><path d="M1709.17,633.75l15,7.5" style="fill:none;stroke:#000;stroke-width:6.25px;"/><path d="M1735,647.5l14.583,7.917" style="fill:none;stroke:#000;stroke-width:6.25px;"/><path d="M1760,662.083l14.167,8.75" style="fill:none;stroke:#000;stroke-width:6.25px;"/><path d="M1784.58,677.917l13.75,9.583" style="fill:none;stroke:#000;stroke-width:6.25px;"/><path d="M1808.33,694.583l13.334,10.417" style="fill:none;stroke:#000;stroke-width:6.25px;"/><path d="M1831.25,712.917l12.917,10.416" style="fill:none;stroke:#000;stroke-width:6.25px;"/><path d="M1853.33,731.667l12.5,11.25" style="fill:none;stroke:#000;stroke-width:6.25px;"/><path d="M1874.58,751.667l11.667,12.083" style="fill:none;stroke:#000;stroke-width:6.25px;"/><path d="M1895,772.917l10.833,12.5" style="fill:none;stroke:#000;stroke-width:6.25px;"/><path d="M1914.17,795l10.416,12.917" style="fill:none;stroke:#000;stroke-width:6.25px;"/><path d="M1932.08,817.917l9.584,13.333" style="fill:none;stroke:#000;stroke-width:6.25px;"/><path d="M1948.75,841.667l9.167,13.75" style="fill:none;stroke:#000;stroke-width:6.25px;"/><path d="M1964.58,866.25l8.334,14.167" style="fill:none;stroke:#000;stroke-width:6.25px;"/><path d="M1979.17,891.667l7.5,14.583" style="fill:none;stroke:#000;stroke-width:6.25px;"/><path d="M1992.08,917.5l7.084,15.417" style="fill:none;stroke:#000;stroke-width:6.25px;"/><path d="M2003.75,944.167l6.25,15.416" style="fill:none;stroke:#000;stroke-width:6.25px;"/><path d="M2014.17,971.667l1.666,5" style="fill:none;stroke:#000;stroke-width:6.25px;"/></g><g><path d="M2018.75,984.583l4.583,15.834" style="fill:none;stroke:#000;stroke-width:6.25px;"/><path d="M2027.08,1012.5l3.75,16.25" style="fill:none;stroke:#000;stroke-width:6.25px;"/><path d="M2033.75,1040.83l3.333,16.25" style="fill:none;stroke:#000;stroke-width:6.25px;"/><path d="M2039.17,1069.58l2.5,16.25" style="fill:none;stroke:#000;stroke-width:6.25px;"/><path d="M2042.92,1098.33l1.666,16.667" style="fill:none;stroke:#000;stroke-width:6.25px;"/><path d="M2045.42,1127.5l0.833,16.667" style="fill:none;stroke:#000;stroke-width:6.25px;"/><path d="M2046.67,1156.67l-0.417,16.666" style="fill:none;stroke:#000;stroke-width:6.25px;"/><path d="M2046.25,1185.83l-0.833,12.5" style="fill:none;stroke:#000;stroke-width:6.25px;"/></g><g><path d="M936.667,1302.92l15.833,4.583l380.833,-285" style="fill:#6400c8;fill-opacity:0.25;"/><path d="M952.5,1307.5l16.25,4.167l364.583,-289.167" style="fill:#6400c8;fill-opacity:0.25;"/><path d="M968.75,1311.67l16.667,4.166l347.916,-293.333" style="fill:#6400c8;fill-opacity:0.25;"/><path d="M985.417,1315.83l17.083,4.167l330.833,-297.5" style="fill:#6400c8;fill-opacity:0.25;"/><path d="M1002.5,1320l17.083,3.75l313.75,-301.25" style="fill:#6400c8;fill-opacity:0.25;"/><path d="M1019.58,1323.75l17.5,3.333l296.25,-304.583" style="fill:#6400c8;fill-opacity:0.25;"/><path d="M1037.08,1327.08l17.5,3.334l278.75,-307.917" style="fill:#6400c8;fill-opacity:0.25;"/><path d="M1054.58,1330.42l17.917,3.333l260.833,-311.25" style="fill:#6400c8;fill-opacity:0.25;"/><path d="M1072.5,1333.75l17.917,2.917l242.916,-314.167" style="fill:#6400c8;fill-opacity:0.25;"/><path d="M1090.42,1336.67l16.666,2.5l226.25,-316.667" style="fill:#6400c8;fill-opacity:0.25;"/><path d="M1107.08,1339.17l16.667,2.083l209.583,-318.75" style="fill:#6400c8;fill-opacity:0.25;"/><path d="M1123.75,1341.25l16.667,2.083l192.916,-320.833" style="fill:#6400c8;fill-opacity:0.25;"/><path d="M1140.42,1343.33l17.083,2.084l175.833,-322.917" style="fill:#6400c8;fill-opacity:0.25;"/><path d="M1157.5,1345.42l16.667,1.666l159.166,-324.583" style="fill:#6400c8;fill-opacity:0.25;"/><path d="M1174.17,1347.08l17.083,1.667l142.083,-326.25" style="fill:#6400c8;fill-opacity:0.25;"/><path d="M1191.25,1348.75l17.5,1.667l124.583,-327.917" style="fill:#6400c8;fill-opacity:0.25;"/><path d="M1208.75,1350.42l17.083,0.833l107.5,-328.75" style="fill:#6400c8;fill-opacity:0.25;"/><path d="M1225.83,1351.25l17.5,1.25l90,-330" style="fill:#6400c8;fill-opacity:0.25;"/><path d="M1243.33,1352.5l17.5,0.833l72.5,-330.833" style="fill:#6400c8;fill-opacity:0.25;"/><path d="M1260.83,1353.33l17.5,0.834l55,-331.667" style="fill:#6400c8;fill-opacity:0.25;"/><path d="M1278.33,1354.17l17.5,0.416l37.5,-332.083" style="fill:#6400c8;fill-opacity:0.25;"/><path d="M1295.83,1354.58l17.5,0.417l20,-332.5" style="fill:#6400c8;fill-opacity:0.25;"/><path d="M1313.33,1355l17.5,0l2.5,-332.5" style="fill:#6400c8;fill-opacity:0.25;"/><path d="M1330.83,1355l17.5,0l-15,-332.5" style="fill:#6400c8;fill-opacity:0.25;"/><path d="M1348.33,1355l17.5,-0.417l-32.5,-332.083" style="fill:#6400c8;fill-opacity:0.25;"/><path d="M1365.83,1354.58l17.5,-0.416l-50,-331.667" style="fill:#6400c8;fill-opacity:0.25;"/><path d="M1383.33,1354.17l17.5,-0.417l-67.5,-331.25" style="fill:#6400c8;fill-opacity:0.25;"/><path d="M1400.83,1353.75l17.5,-0.833l-85,-330.417" style="fill:#6400c8;fill-opacity:0.25;"/><path d="M1418.33,1352.92l17.5,-1.25l-102.5,-329.167" style="fill:#6400c8;fill-opacity:0.25;"/><path d="M1435.83,1351.67l17.5,-1.25l-120,-327.917" style="fill:#6400c8;fill-opacity:0.25;"/><path d="M1453.33,1350.42l17.084,-1.25l-137.084,-326.667" style="fill:#6400c8;fill-opacity:0.25;"/><path d="M1470.42,1349.17l17.083,-1.667l-154.167,-325" style="fill:#6400c8;fill-opacity:0.25;"/><path d="M1487.5,1347.5l17.083,-1.667l-171.25,-323.333" style="fill:#6400c8;fill-opacity:0.25;"/><path d="M1504.58,1345.83l17.084,-1.666l-188.334,-321.667" style="fill:#6400c8;fill-opacity:0.25;"/><path d="M1521.67,1344.17l16.666,-2.084l-205,-319.583" style="fill:#6400c8;fill-opacity:0.25;"/><path d="M1538.33,1342.08l16.667,-2.5l-221.667,-317.083" style="fill:#6400c8;fill-opacity:0.25;"/><path d="M1555,1339.58l16.667,-2.083l-238.334,-315" style="fill:#6400c8;fill-opacity:0.25;"/><path d="M1571.67,1337.5l16.25,-2.917l-254.584,-312.083" style="fill:#6400c8;fill-opacity:0.25;"/><path d="M1587.92,1334.58l16.25,-2.5l-270.834,-309.583" style="fill:#6400c8;fill-opacity:0.25;"/><path d="M1604.17,1332.08l15.833,-2.916l-286.667,-306.667" style="fill:#6400c8;fill-opacity:0.25;"/><path d="M1620,1329.17l15.833,-3.334l-302.5,-303.333" style="fill:#6400c8;fill-opacity:0.25;"/><path d="M1635.83,1325.83l15.834,-3.333l-318.334,-300" style="fill:#6400c8;fill-opacity:0.25;"/><path d="M1651.67,1322.5l15.416,-3.333l-333.75,-296.667" style="fill:#6400c8;fill-opacity:0.25;"/><path d="M1667.08,1319.17l15,-3.334l-348.75,-293.333" style="fill:#6400c8;fill-opacity:0.25;"/><path d="M1682.08,1315.83l15,-3.75l-363.75,-289.583" style="fill:#6400c8;fill-opacity:0.25;"/><path d="M1697.08,1312.08l14.584,-4.166l-378.334,-285.417" style="fill:#6400c8;fill-opacity:0.25;"/><path d="M1711.67,1307.92l14.583,-3.75l-392.917,-281.667" style="fill:#6400c8;fill-opacity:0.25;"/><path d="M1726.25,1304.17l15.833,-5l-408.75,-276.667" style="fill:#6400c8;fill-opacity:0.25;"/><path d="M1742.08,1299.17l15.834,-4.584l-424.584,-272.083" style="fill:#6400c8;fill-opacity:0.25;"/><path d="M1757.92,1294.58l15.416,-5l-440,-267.083" style="fill:#6400c8;fill-opacity:0.25;"/><path d="M1773.33,1289.58l15,-5.416l-455,-261.667" style="fill:#6400c8;fill-opacity:0.25;"/><path d="M1788.33,1284.17l14.584,-5.417l-469.584,-256.25" style="fill:#6400c8;fill-opacity:0.25;"/><path d="M1802.92,1278.75l14.166,-5.417l-483.75,-250.833" style="fill:#6400c8;fill-opacity:0.25;"/><path d="M1817.08,1273.33l15.417,-6.25l-499.167,-244.583" style="fill:#6400c8;fill-opacity:0.25;"/><path d="M1832.5,1267.08l14.583,-6.666l-513.75,-237.917" style="fill:#6400c8;fill-opacity:0.25;"/><path d="M1847.08,1260.42l14.584,-6.667l-528.334,-231.25" style="fill:#6400c8;fill-opacity:0.25;"/><path d="M1861.67,1253.75l13.75,-7.083l-542.084,-224.167" style="fill:#6400c8;fill-opacity:0.25;"/><path d="M1875.42,1246.67l13.333,-6.667l-555.417,-217.5" style="fill:#6400c8;fill-opacity:0.25;"/><path d="M1888.75,1240l14.583,-8.333l-570,-209.167" style="fill:#6400c8;fill-opacity:0.25;"/><path d="M1903.33,1231.67l13.75,-8.334l-583.75,-200.833" style="fill:#6400c8;fill-opacity:0.25;"/><path d="M1917.08,1223.33l13.334,-8.333l-597.084,-192.5" style="fill:#6400c8;fill-opacity:0.25;"/><path d="M1930.42,1215l12.083,-8.75l-609.167,-183.75" style="fill:#6400c8;fill-opacity:0.25;"/><path d="M1942.5,1206.25l13.333,-10l-622.5,-173.75" style="fill:#6400c8;fill-opacity:0.25;"/><path d="M1955.83,1196.25l12.5,-10.417l-635,-163.333" style="fill:#6400c8;fill-opacity:0.25;"/><path d="M1968.33,1185.83l11.25,-10.416l-646.25,-152.917" style="fill:#6400c8;fill-opacity:0.25;"/><path d="M1979.58,1175.42l11.667,-11.667l-657.917,-141.25" style="fill:#6400c8;fill-opacity:0.25;"/><path d="M1991.25,1163.75l10.417,-12.083l-668.334,-129.167" style="fill:#6400c8;fill-opacity:0.25;"/><path d="M2001.67,1151.67l9.166,-12.5l-677.5,-116.667" style="fill:#6400c8;fill-opacity:0.25;"/><path d="M2010.83,1139.17l8.75,-13.75l-686.25,-102.917" style="fill:#6400c8;fill-opacity:0.25;"/><path d="M2019.58,1125.42l7.084,-14.167l-693.334,-88.75" style="fill:#6400c8;fill-opacity:0.25;"/><path d="M2026.67,1111.25l5.833,-14.167l-699.167,-74.583" style="fill:#6400c8;fill-opacity:0.25;"/><path d="M2032.5,1097.08l4.167,-16.25l-703.334,-58.333" style="fill:#6400c8;fill-opacity:0.25;"/><path d="M2036.67,1080.83l2.5,-15.833l-705.834,-42.5" style="fill:#6400c8;fill-opacity:0.25;"/><path d="M2039.17,1065l0.416,-16.25l-706.25,-26.25" style="fill:#6400c8;fill-opacity:0.25;"/><path d="M2039.58,1048.75l-1.666,-15.833l-704.584,-10.417" style="fill:#6400c8;fill-opacity:0.25;"/><path d="M2037.92,1032.92l-3.334,-15.417l-701.25,5" style="fill:#6400c8;fill-opacity:0.25;"/><path d="M2034.58,1017.5l-5.416,-15.833l-695.834,20.833" style="fill:#6400c8;fill-opacity:0.25;"/><path d="M2029.17,1001.67l-7.5,-15.417l-688.334,36.25" style="fill:#6400c8;fill-opacity:0.25;"/><path d="M2021.67,986.25l-5.834,-9.583l-682.5,45.833" style="fill:#6400c8;fill-opacity:0.25;"/></g><g><path d="M936.667,1302.92l15.833,4.583" style="fill:none;stroke:#c80064;stroke-width:6.25px;"/><path d="M952.5,1307.5l16.25,4.167" style="fill:none;stroke:#c80064;stroke-width:6.25px;"/><path d="M968.75,1311.67l16.667,4.166" style="fill:none;stroke:#c80064;stroke-width:6.25px;"/><path d="M985.417,1315.83l17.083,4.167" style="fill:none;stroke:#c80064;stroke-width:6.25px;"/><path d="M1002.5,1320l17.083,3.75" style="fill:none;stroke:#c80064;stroke-width:6.25px;"/><path d="M1019.58,1323.75l17.5,3.333" style="fill:none;stroke:#c80064;stroke-width:6.25px;"/><path d="M1037.08,1327.08l17.5,3.334" style="fill:none;stroke:#c80064;stroke-width:6.25px;"/><path d="M1054.58,1330.42l17.917,3.333" style="fill:none;stroke:#c80064;stroke-width:6.25px;"/><path d="M1072.5,1333.75l17.917,2.917" style="fill:none;stroke:#c80064;stroke-width:6.25px;"/><path d="M1090.42,1336.67l16.666,2.5" style="fill:none;stroke:#c80064;stroke-width:6.25px;"/><path d="M1107.08,1339.17l16.667,2.083" style="fill:none;stroke:#c80064;stroke-width:6.25px;"/><path d="M1123.75,1341.25l16.667,2.083" style="fill:none;stroke:#c80064;stroke-width:6.25px;"/><path d="M1140.42,1343.33l17.083,2.084" style="fill:none;stroke:#c80064;stroke-width:6.25px;"/><path d="M1157.5,1345.42l16.667,1.666" style="fill:none;stroke:#c80064;stroke-width:6.25px;"/><path d="M1174.17,1347.08l17.083,1.667" style="fill:none;stroke:#c80064;stroke-width:6.25px;"/><path d="M1191.25,1348.75l17.5,1.667" style="fill:none;stroke:#c80064;stroke-width:6.25px;"/><path d="M1208.75,1350.42l17.083,0.833" style="fill:none;stroke:#c80064;stroke-width:6.25px;"/><path d="M1225.83,1351.25l17.5,1.25" style="fill:none;stroke:#c80064;stroke-width:6.25px;"/><path d="M1243.33,1352.5l17.5,0.833" style="fill:none;stroke:#c80064;stroke-width:6.25px;"/><path d="M1260.83,1353.33l17.5,0.834" style="fill:none;stroke:#c80064;stroke-width:6.25px;"/><path d="M1278.33,1354.17l17.5,0.416" style="fill:none;stroke:#c80064;stroke-width:6.25px;"/><path d="M1295.83,1354.58l17.5,0.417" style="fill:none;stroke:#c80064;stroke-width:6.25px;"/><path d="M1313.33,1355l17.5,0" style="fill:none;stroke:#c80064;stroke-width:6.25px;"/><path d="M1330.83,1355l17.5,0" style="fill:none;stroke:#c80064;stroke-width:6.25px;"/><path d="M1348.33,1355l17.5,-0.417" style="fill:none;stroke:#c80064;stroke-width:6.25px;"/><path d="M1365.83,1354.58l17.5,-0.416" style="fill:none;stroke:#c80064;stroke-width:6.25px;"/><path d="M1383.33,1354.17l17.5,-0.417" style="fill:none;stroke:#c80064;stroke-width:6.25px;"/><path d="M1400.83,1353.75l17.5,-0.833" style="fill:none;stroke:#c80064;stroke-width:6.25px;"/><path d="M1418.33,1352.92l17.5,-1.25" style="fill:none;stroke:#c80064;stroke-width:6.25px;"/><path d="M1435.83,1351.67l17.5,-1.25" style="fill:none;stroke:#c80064;stroke-width:6.25px;"/><path d="M1453.33,1350.42l17.084,-1.25" style="fill:none;stroke:#c80064;stroke-width:6.25px;"/><path d="M1470.42,1349.17l17.083,-1.667" style="fill:none;stroke:#c80064;stroke-width:6.25px;"/><path d="M1487.5,1347.5l17.083,-1.667" style="fill:none;stroke:#c80064;stroke-width:6.25px;"/><path d="M1504.58,1345.83l17.084,-1.666" style="fill:none;stroke:#c80064;stroke-width:6.25px;"/><path d="M1521.67,1344.17l16.666,-2.084" style="fill:none;stroke:#c80064;stroke-width:6.25px;"/><path d="M1538.33,1342.08l16.667,-2.5" style="fill:none;stroke:#c80064;stroke-width:6.25px;"/><path d="M1555,1339.58l16.667,-2.083" style="fill:none;stroke:#c80064;stroke-width:6.25px;"/><path d="M1571.67,1337.5l16.25,-2.917" style="fill:none;stroke:#c80064;stroke-width:6.25px;"/><path d="M1587.92,1334.58l16.25,-2.5" style="fill:none;stroke:#c80064;stroke-width:6.25px;"/><path d="M1604.17,1332.08l15.833,-2.916" style="fill:none;stroke:#c80064;stroke-width:6.25px;"/><path d="M1620,1329.17l15.833,-3.334" style="fill:none;stroke:#c80064;stroke-width:6.25px;"/><path d="M1635.83,1325.83l15.834,-3.333" style="fill:none;stroke:#c80064;stroke-width:6.25px;"/><path d="M1651.67,1322.5l15.416,-3.333" style="fill:none;stroke:#c80064;stroke-width:6.25px;"/><path d="M1667.08,1319.17l15,-3.334" style="fill:none;stroke:#c80064;stroke-width:6.25px;"/><path d="M1682.08,1315.83l15,-3.75" style="fill:none;stroke:#c80064;stroke-width:6.25px;"/><path d="M1697.08,1312.08l14.584,-4.166" style="fill:none;stroke:#c80064;stroke-width:6.25px;"/><path d="M1711.67,1307.92l14.583,-3.75" style="fill:none;stroke:#c80064;stroke-width:6.25px;"/><path d="M1726.25,1304.17l15.833,-5" style="fill:none;stroke:#c80064;stroke-width:6.25px;"/><path d="M1742.08,1299.17l15.834,-4.584" style="fill:none;stroke:#c80064;stroke-width:6.25px;"/><path d="M1757.92,1294.58l15.416,-5" style="fill:none;stroke:#c80064;stroke-width:6.25px;"/><path d="M1773.33,1289.58l15,-5.416" style="fill:none;stroke:#c80064;stroke-width:6.25px;"/><path d="M1788.33,1284.17l14.584,-5.417" style="fill:none;stroke:#c80064;stroke-width:6.25px;"/><path d="M1802.92,1278.75l14.166,-5.417" style="fill:none;stroke:#c80064;stroke-width:6.25px;"/><path d="M1817.08,1273.33l15.417,-6.25" style="fill:none;stroke:#c80064;stroke-width:6.25px;"/><path d="M1832.5,1267.08l14.583,-6.666" style="fill:none;stroke:#c80064;stroke-width:6.25px;"/><path d="M1847.08,1260.42l14.584,-6.667" style="fill:none;stroke:#c80064;stroke-width:6.25px;"/><path d="M1861.67,1253.75l13.75,-7.083" style="fill:none;stroke:#c80064;stroke-width:6.25px;"/><path d="M1875.42,1246.67l13.333,-6.667" style="fill:none;stroke:#c80064;stroke-width:6.25px;"/><path d="M1888.75,1240l14.583,-8.333" style="fill:none;stroke:#c80064;stroke-width:6.25px;"/><path d="M1903.33,1231.67l13.75,-8.334" style="fill:none;stroke:#c80064;stroke-width:6.25px;"/><path d="M1917.08,1223.33l13.334,-8.333" style="fill:none;stroke:#c80064;stroke-width:6.25px;"/><path d="M1930.42,1215l12.083,-8.75" style="fill:none;stroke:#c80064;stroke-width:6.25px;"/><path d="M1942.5,1206.25l13.333,-10" style="fill:none;stroke:#c80064;stroke-width:6.25px;"/><path d="M1955.83,1196.25l12.5,-10.417" style="fill:none;stroke:#c80064;stroke-width:6.25px;"/><path d="M1968.33,1185.83l11.25,-10.416" style="fill:none;stroke:#c80064;stroke-width:6.25px;"/><path d="M1979.58,1175.42l11.667,-11.667" style="fill:none;stroke:#c80064;stroke-width:6.25px;"/><path d="M1991.25,1163.75l10.417,-12.083" style="fill:none;stroke:#c80064;stroke-width:6.25px;"/><path d="M2001.67,1151.67l9.166,-12.5" style="fill:none;stroke:#c80064;stroke-width:6.25px;"/><path d="M2010.83,1139.17l8.75,-13.75" style="fill:none;stroke:#c80064;stroke-width:6.25px;"/><path d="M2019.58,1125.42l7.084,-14.167" style="fill:none;stroke:#c80064;stroke-width:6.25px;"/><path d="M2026.67,1111.25l5.833,-14.167" style="fill:none;stroke:#c80064;stroke-width:6.25px;"/><path d="M2032.5,1097.08l4.167,-16.25" style="fill:none;stroke:#c80064;stroke-width:6.25px;"/><path d="M2036.67,1080.83l2.5,-15.833" style="fill:none;stroke:#c80064;stroke-width:6.25px;"/><path d="M2039.17,1065l0.416,-16.25" style="fill:none;stroke:#c80064;stroke-width:6.25px;"/><path d="M2039.58,1048.75l-1.666,-15.833" style="fill:none;stroke:#c80064;stroke-width:6.25px;"/><path d="M2037.92,1032.92l-3.334,-15.417" style="fill:none;stroke:#c80064;stroke-width:6.25px;"/><path d="M2034.58,1017.5l-5.416,-15.833" style="fill:none;stroke:#c80064;stroke-width:6.25px;"/><path d="M2029.17,1001.67l-7.5,-15.417" style="fill:none;stroke:#c80064;stroke-width:6.25px;"/><path d="M2021.67,986.25l-5.834,-9.583" style="fill:none;stroke:#c80064;stroke-width:6.25px;"/></g><text x="1781.25px" y="1378.75px" style="font-family:'IBMPlexSans-Italic', 'IBM Plex Sans', sans-serif;font-style:italic;font-size:125px;fill:none;stroke:#fff;stroke-width:12.5px;">φ</text><text x="1781.25px" y="1378.75px" style="font-family:'IBMPlexSans-Italic', 'IBM Plex Sans', sans-serif;font-style:italic;font-size:125px;">φ</text><g><path d="M925.417,1569.58l15.833,5" style="fill:none;stroke:#000;stroke-width:6.25px;"/><path d="M953.333,1577.92l16.25,4.166" style="fill:none;stroke:#000;stroke-width:6.25px;"/><path d="M981.667,1585.42l16.25,3.75" style="fill:none;stroke:#000;stroke-width:6.25px;"/><path d="M1010,1592.08l16.25,3.334" style="fill:none;stroke:#000;stroke-width:6.25px;"/><path d="M1038.33,1597.92l16.667,3.333" style="fill:none;stroke:#000;stroke-width:6.25px;"/><path d="M1067.08,1603.33l16.667,2.917" style="fill:none;stroke:#000;stroke-width:6.25px;"/><path d="M1095.83,1608.33l16.667,2.5" style="fill:none;stroke:#000;stroke-width:6.25px;"/><path d="M1124.58,1612.5l16.667,2.083" style="fill:none;stroke:#000;stroke-width:6.25px;"/><path d="M1153.75,1616.25l16.667,1.667" style="fill:none;stroke:#000;stroke-width:6.25px;"/><path d="M1182.92,1619.17l16.25,1.666" style="fill:none;stroke:#000;stroke-width:6.25px;"/><path d="M1211.67,1621.67l16.666,1.25" style="fill:none;stroke:#000;stroke-width:6.25px;"/><path d="M1240.83,1623.75l16.667,0.833" style="fill:none;stroke:#000;stroke-width:6.25px;"/><path d="M1270,1625l16.667,0.833" style="fill:none;stroke:#000;stroke-width:6.25px;"/><path d="M1299.17,1625.83l16.666,0.417" style="fill:none;stroke:#000;stroke-width:6.25px;"/><path d="M1328.33,1626.25l16.667,0" style="fill:none;stroke:#000;stroke-width:6.25px;"/><path d="M1357.5,1626.25l16.667,-0.417" style="fill:none;stroke:#000;stroke-width:6.25px;"/><path d="M1386.67,1625.42l16.666,-0.834" style="fill:none;stroke:#000;stroke-width:6.25px;"/><path d="M1415.83,1624.17l16.667,-0.834" style="fill:none;stroke:#000;stroke-width:6.25px;"/><path d="M1445,1622.5l16.667,-1.25" style="fill:none;stroke:#000;stroke-width:6.25px;"/><path d="M1474.17,1620l16.25,-1.667" style="fill:none;stroke:#000;stroke-width:6.25px;"/><path d="M1502.92,1617.08l16.666,-1.666" style="fill:none;stroke:#000;stroke-width:6.25px;"/><path d="M1532.08,1613.75l16.25,-2.083" style="fill:none;stroke:#000;stroke-width:6.25px;"/><path d="M1560.83,1609.58l16.667,-2.5" style="fill:none;stroke:#000;stroke-width:6.25px;"/><path d="M1589.58,1605l16.25,-2.917" style="fill:none;stroke:#000;stroke-width:6.25px;"/><path d="M1618.33,1600l16.25,-3.333" style="fill:none;stroke:#000;stroke-width:6.25px;"/><path d="M1647.08,1594.17l16.25,-3.75" style="fill:none;stroke:#000;stroke-width:6.25px;"/><path d="M1675.42,1587.5l16.25,-3.75" style="fill:none;stroke:#000;stroke-width:6.25px;"/><path d="M1703.75,1580.42l15.833,-4.167" style="fill:none;stroke:#000;stroke-width:6.25px;"/><path d="M1731.67,1572.5l15.833,-4.583" style="fill:none;stroke:#000;stroke-width:6.25px;"/><path d="M1759.58,1563.75l15.834,-5" style="fill:none;stroke:#000;stroke-width:6.25px;"/><path d="M1787.08,1554.58l15.834,-5.833" style="fill:none;stroke:#000;stroke-width:6.25px;"/><path d="M1814.58,1544.17l15,-6.25" style="fill:none;stroke:#000;stroke-width:6.25px;"/><path d="M1841.25,1532.92l15.417,-6.667" style="fill:none;stroke:#000;stroke-width:6.25px;"/><path d="M1867.92,1520.83l14.583,-7.5" style="fill:none;stroke:#000;stroke-width:6.25px;"/><path d="M1893.75,1507.5l14.583,-7.917" style="fill:none;stroke:#000;stroke-width:6.25px;"/><path d="M1919.17,1493.33l14.166,-8.75" style="fill:none;stroke:#000;stroke-width:6.25px;"/><path d="M1943.75,1477.5l13.333,-9.583" style="fill:none;stroke:#000;stroke-width:6.25px;"/><path d="M1967.08,1460.42l12.917,-10.417" style="fill:none;stroke:#000;stroke-width:6.25px;"/><path d="M1989.58,1441.67l12.084,-11.25" style="fill:none;stroke:#000;stroke-width:6.25px;"/><path d="M2010.42,1421.67l11.25,-12.5" style="fill:none;stroke:#000;stroke-width:6.25px;"/><path d="M2029.58,1399.17l9.584,-13.334" style="fill:none;stroke:#000;stroke-width:6.25px;"/><path d="M2045.83,1375l7.5,-14.583" style="fill:none;stroke:#000;stroke-width:6.25px;"/><path d="M2058.75,1349.17l5.417,-15.834" style="fill:none;stroke:#000;stroke-width:6.25px;"/><path d="M2067.08,1321.25l2.917,-16.25" style="fill:none;stroke:#000;stroke-width:6.25px;"/><path d="M2070.83,1292.5l-0.416,-16.667" style="fill:none;stroke:#000;stroke-width:6.25px;"/><path d="M2069.17,1263.33l-3.334,-16.25" style="fill:none;stroke:#000;stroke-width:6.25px;"/><path d="M2062.5,1235l-6.25,-15.417" style="fill:none;stroke:#000;stroke-width:6.25px;"/><path d="M2050.83,1208.33l-5.416,-10" style="fill:none;stroke:#000;stroke-width:6.25px;"/></g><circle cx="2015.83" cy="976.667" r="18.837" style="stroke:#000;stroke-width:6.25px;"/><g transform="matrix(4.16667,0,0,4.16667,2099.17,1014.17)"><text x="0px" y="0px" style="font-family:'IBMPlexSans-Regular', 'IBM Plex Sans', sans-serif;font-size:30px;fill:none;stroke:#fff;stroke-width:3px;">(</text><text x="10.05px" y="0px" style="font-family:'IBMPlexSans-Italic', 'IBM Plex Sans', sans-serif;font-style:italic;font-size:30px;fill:none;stroke:#fff;stroke-width:3px;">r</text><text x="20.97px" y="0px" style="font-family:'IBMPlexSans-Regular', 'IBM Plex Sans', sans-serif;font-size:30px;fill:none;stroke:#fff;stroke-width:3px;">,</text><text x="29.13px" y="0px" style="font-family:'IBMPlexSans-Italic', 'IBM Plex Sans', sans-serif;font-style:italic;font-size:30px;fill:none;stroke:#fff;stroke-width:3px;">θ</text><text x="45.72px" y="0px" style="font-family:'IBMPlexSans-Regular', 'IBM Plex Sans', sans-serif;font-size:30px;fill:none;stroke:#fff;stroke-width:3px;">,</text><text x="53.88px" y="0px" style="font-family:'IBMPlexSans-Italic', 'IBM Plex Sans', sans-serif;font-style:italic;font-size:30px;fill:none;stroke:#fff;stroke-width:3px;">φ</text><text x="75.12px" y="0px" style="font-family:'IBMPlexSans-Regular', 'IBM Plex Sans', sans-serif;font-size:30px;fill:none;stroke:#fff;stroke-width:3px;">)</text></g><g transform="matrix(4.16667,0,0,4.16667,2099.17,1014.17)"><text x="0px" y="0px" style="font-family:'IBMPlexSans-Regular', 'IBM Plex Sans', sans-serif;font-size:30px;">(</text><text x="10.05px" y="0px" style="font-family:'IBMPlexSans-Italic', 'IBM Plex Sans', sans-serif;font-style:italic;font-size:30px;">r</text><text x="20.97px" y="0px" style="font-family:'IBMPlexSans-Regular', 'IBM Plex Sans', sans-serif;font-size:30px;">,</text><text x="29.13px" y="0px" style="font-family:'IBMPlexSans-Italic', 'IBM Plex Sans', sans-serif;font-style:italic;font-size:30px;">θ</text><text x="45.72px" y="0px" style="font-family:'IBMPlexSans-Regular', 'IBM Plex Sans', sans-serif;font-size:30px;">,</text><text x="53.88px" y="0px" style="font-family:'IBMPlexSans-Italic', 'IBM Plex Sans', sans-serif;font-style:italic;font-size:30px;">φ</text><text x="75.12px" y="0px" style="font-family:'IBMPlexSans-Regular', 'IBM Plex Sans', sans-serif;font-size:30px;">)</text></g><path d="M657.295,1764.12l55.022,-61.368l19.077,25.275l-74.099,36.093Z"/></g></svg>