<?xml version="1.0" encoding="UTF-8" standalone="no"?><!DOCTYPE svg PUBLIC "-//W3C//DTD SVG 1.1//EN" "http://www.w3.org/Graphics/SVG/1.1/DTD/svg11.dtd"><svg width="2917px" height="1250px" version="1.1" xmlns="http://www.w3.org/2000/svg" xmlns:xlink="http://www.w3.org/1999/xlink" xml:space="preserve" xmlns:serif="http://www.serif.com/" style="fill-rule:evenodd;clip-rule:evenodd;"><g id="g_point"><circle cx="291.667" cy="940.738" r="18.75"/></g><g id="g_point1" serif:id="g_point"><circle cx="656.25" cy="309.262" r="18.75"/></g><g id="g_point2" serif:id="g_point"><circle cx="1020.83" cy="940.738" r="18.75"/></g><g id="g_point3" serif:id="g_point"><circle cx="1385.42" cy="309.262" r="18.75"/></g><g id="g_point4" serif:id="g_point"><circle cx="1750" cy="940.738" r="18.75"/></g><g id="g_point5" serif:id="g_point"><circle cx="2114.58" cy="309.262" r="18.75"/></g><g id="g_point6" serif:id="g_point"><circle cx="2479.17" cy="940.738" r="18.75"/></g><g id="g_point7" serif:id="g_point"><circle cx="2843.75" cy="309.262" r="18.75"/></g><path d="M291.667,940.738l364.583,-631.476l364.583,631.476l-729.166,0Z" style="fill:none;fill-rule:nonzero;stroke:#000;stroke-width:4.17px;"/><path d="M656.25,309.262l364.583,631.476l364.584,-631.476l-729.167,-0Z" style="fill:none;fill-rule:nonzero;stroke:#000;stroke-width:4.17px;"/><path d="M1020.83,940.738l364.584,-631.476l364.583,631.476l-729.167,0Z" style="fill:none;fill-rule:nonzero;stroke:#000;stroke-width:4.17px;"/><path d="M1385.42,309.262l364.583,631.476l364.583,-631.476l-729.166,-0Z" style="fill:none;fill-rule:nonzero;stroke:#000;stroke-width:4.17px;"/><path d="M1750,940.738l364.583,-631.476l364.584,631.476l-729.167,0Z" style="fill:none;fill-rule:nonzero;stroke:#000;stroke-width:4.17px;"/><path d="M2114.58,309.262l364.584,631.476l364.583,-631.476l-729.167,-0Z" style="fill:none;fill-rule:nonzero;stroke:#000;stroke-width:4.17px;"/><g id="g_cwCircle"><path d="M792.965,651.312c13.855,23.997 21.15,51.224 21.15,78.934c0,86.603 -71.262,157.867 -157.865,157.869c-86.603,-0.002 -157.865,-71.266 -157.865,-157.869c-0,-27.71 7.295,-54.937 21.15,-78.934c28.167,-48.781 80.387,-78.928 136.715,-78.928c56.328,-0 108.548,30.147 136.715,78.928" style="fill:none;fill-rule:nonzero;stroke:#00f;stroke-width:4.17px;"/></g><g id="g_ccwCircle"><path d="M1157.55,598.688c13.855,-23.997 21.151,-51.224 21.151,-78.934c-0,-86.603 -71.263,-157.867 -157.866,-157.869c-86.603,0.002 -157.865,71.266 -157.865,157.869c0,27.71 7.296,54.937 21.151,78.934c28.166,48.781 80.386,78.928 136.714,78.928c56.329,0 108.548,-30.147 136.715,-78.928" style="fill:none;fill-rule:nonzero;stroke:#f00;stroke-width:4.17px;"/></g><g id="g_cwCircle1" serif:id="g_cwCircle"><path d="M1522.13,651.312c13.855,23.997 21.151,51.224 21.151,78.934c-0,86.603 -71.262,157.867 -157.865,157.869c-86.603,-0.002 -157.866,-71.266 -157.866,-157.869c0,-27.71 7.296,-54.937 21.151,-78.934c28.167,-48.781 80.386,-78.928 136.715,-78.928c56.328,-0 108.548,30.147 136.714,78.928" style="fill:none;fill-rule:nonzero;stroke:#00f;stroke-width:4.17px;"/></g><g id="g_ccwCircle1" serif:id="g_ccwCircle"><path d="M1886.72,598.688c13.855,-23.997 21.15,-51.224 21.15,-78.934c0,-86.603 -71.262,-157.867 -157.865,-157.869c-86.603,0.002 -157.865,71.266 -157.865,157.869c-0,27.71 7.295,54.937 21.15,78.934c28.167,48.781 80.387,78.928 136.715,78.928c56.328,0 108.548,-30.147 136.715,-78.928" style="fill:none;fill-rule:nonzero;stroke:#f00;stroke-width:4.17px;"/></g><g id="g_cwCircle2" serif:id="g_cwCircle"><path d="M2251.3,651.312c13.855,23.997 21.151,51.224 21.151,78.934c-0,86.603 -71.263,157.867 -157.866,157.869c-86.603,-0.002 -157.865,-71.266 -157.865,-157.869c0,-27.71 7.296,-54.937 21.151,-78.934c28.166,-48.781 80.386,-78.928 136.714,-78.928c56.329,-0 108.548,30.147 136.715,78.928" style="fill:none;fill-rule:nonzero;stroke:#00f;stroke-width:4.17px;"/></g><g id="g_ccwCircle2" serif:id="g_ccwCircle"><path d="M2615.88,598.688c13.855,-23.997 21.151,-51.224 21.151,-78.934c-0,-86.603 -71.262,-157.867 -157.865,-157.869c-86.603,0.002 -157.866,71.266 -157.866,157.869c0,27.71 7.296,54.937 21.151,78.934c28.167,48.781 80.386,78.928 136.715,78.928c56.328,0 108.548,-30.147 136.714,-78.928" style="fill:none;fill-rule:nonzero;stroke:#f00;stroke-width:4.17px;"/></g><text x="266.667px" y="1044.9px" style="font-family:'IBMPlexSans-Regular', 'IBM Plex Sans', sans-serif;font-size:83.333px;stroke:#000;stroke-width:4.17px;">0</text><text x="631.25px" y="255.095px" style="font-family:'IBMPlexSans-Regular', 'IBM Plex Sans', sans-serif;font-size:83.333px;stroke:#000;stroke-width:4.17px;">1</text><text x="995.833px" y="1044.9px" style="font-family:'IBMPlexSans-Regular', 'IBM Plex Sans', sans-serif;font-size:83.333px;stroke:#000;stroke-width:4.17px;">2</text><text x="1360.42px" y="255.095px" style="font-family:'IBMPlexSans-Regular', 'IBM Plex Sans', sans-serif;font-size:83.333px;stroke:#000;stroke-width:4.17px;">3</text><text x="1725px" y="1044.9px" style="font-family:'IBMPlexSans-Regular', 'IBM Plex Sans', sans-serif;font-size:83.333px;stroke:#000;stroke-width:4.17px;">4</text><text x="2089.58px" y="255.095px" style="font-family:'IBMPlexSans-Regular', 'IBM Plex Sans', sans-serif;font-size:83.333px;stroke:#000;stroke-width:4.17px;">5</text><text x="2454.17px" y="1044.9px" style="font-family:'IBMPlexSans-Regular', 'IBM Plex Sans', sans-serif;font-size:83.333px;stroke:#000;stroke-width:4.17px;">6</text><text x="2818.75px" y="255.095px" style="font-family:'IBMPlexSans-Regular', 'IBM Plex Sans', sans-serif;font-size:83.333px;stroke:#000;stroke-width:4.17px;">7</text></svg>