<?xml version="1.0" encoding="UTF-8" standalone="no"?><!DOCTYPE svg PUBLIC "-//W3C//DTD SVG 1.1//EN" "http://www.w3.org/Graphics/SVG/1.1/DTD/svg11.dtd"><svg width="3542px" height="2292px" version="1.1" xmlns="http://www.w3.org/2000/svg" xmlns:xlink="http://www.w3.org/1999/xlink" xml:space="preserve" xmlns:serif="http://www.serif.com/" style="fill-rule:evenodd;clip-rule:evenodd;"><g id="g_axes"><path d="M0,1041.67l0,-1041.67m74.405,1041.67l-0,-1041.67m74.405,1041.67l-0,-1041.67m74.404,1041.67l0,-1041.67m74.405,1041.67l0,-1041.67m74.405,1041.67l-0,-1041.67m74.405,1041.67l-0,-1041.67m74.404,1041.67l0,-1041.67m74.405,1041.67l0,-1041.67m74.405,1041.67l-0,-1041.67m74.405,1041.67l-0,-1041.67m74.404,1041.67l0,-1041.67m74.405,1041.67l0,-1041.67m74.405,1041.67l-0,-1041.67m74.405,1041.67l-0,-1041.67m-1041.67,1041.67l1041.67,-0m-1041.67,-74.405l1041.67,-0m-1041.67,-74.405l1041.67,0m-1041.67,-74.405l1041.67,0m-1041.67,-74.404l1041.67,-0m-1041.67,-74.405l1041.67,-0m-1041.67,-74.405l1041.67,0m-1041.67,-74.405l1041.67,0m-1041.67,-74.404l1041.67,-0m-1041.67,-74.405l1041.67,-0m-1041.67,-74.405l1041.67,0m-1041.67,-74.405l1041.67,0m-1041.67,-74.404l1041.67,-0m-1041.67,-74.405l1041.67,-0m-1041.67,-74.405l1041.67,-0" style="fill:none;fill-rule:nonzero;stroke:#ccc;stroke-width:4.17px;"/><path d="M520.833,520.833l0,520.834" style="fill:none;fill-rule:nonzero;stroke:#000;stroke-width:8.33px;"/><path d="M520.833,520.833l0,-520.833" style="fill:none;fill-rule:nonzero;stroke:#000;stroke-width:8.33px;"/><path d="M520.833,520.833l520.834,0" style="fill:none;fill-rule:nonzero;stroke:#000;stroke-width:8.33px;"/><path d="M520.833,520.833l-520.833,0" style="fill:none;fill-rule:nonzero;stroke:#000;stroke-width:8.33px;"/></g><path d="M520.833,520.833l74.405,0" style="fill:none;fill-rule:nonzero;stroke:#20ff20;stroke-width:8.33px;"/><path d="M520.833,520.833l0,-74.404" style="fill:none;fill-rule:nonzero;stroke:#f00;stroke-width:8.33px;"/><path d="M558.036,260.417l37.202,409.226l-223.214,111.607l186.012,-520.833Z" style="fill:none;fill-rule:nonzero;stroke:#afafff;stroke-width:8.33px;"/><g id="g_axes1" serif:id="g_axes"><path d="M1250,1041.67l0,-1041.67m74.405,1041.67l-0,-1041.67m74.405,1041.67l-0,-1041.67m74.404,1041.67l0,-1041.67m74.405,1041.67l0,-1041.67m74.405,1041.67l-0,-1041.67m74.405,1041.67l-0,-1041.67m74.404,1041.67l0,-1041.67m74.405,1041.67l0,-1041.67m74.405,1041.67l-0,-1041.67m74.405,1041.67l-0,-1041.67m74.404,1041.67l0,-1041.67m74.405,1041.67l0,-1041.67m74.405,1041.67l-0,-1041.67m74.405,1041.67l-0,-1041.67m-1041.67,1041.67l1041.67,-0m-1041.67,-74.405l1041.67,-0m-1041.67,-74.405l1041.67,0m-1041.67,-74.405l1041.67,0m-1041.67,-74.404l1041.67,-0m-1041.67,-74.405l1041.67,-0m-1041.67,-74.405l1041.67,0m-1041.67,-74.405l1041.67,0m-1041.67,-74.404l1041.67,-0m-1041.67,-74.405l1041.67,-0m-1041.67,-74.405l1041.67,0m-1041.67,-74.405l1041.67,0m-1041.67,-74.404l1041.67,-0m-1041.67,-74.405l1041.67,-0m-1041.67,-74.405l1041.67,-0" style="fill:none;fill-rule:nonzero;stroke:#ccc;stroke-width:4.17px;"/><path d="M1770.83,520.833l0,520.834" style="fill:none;fill-rule:nonzero;stroke:#000;stroke-width:8.33px;"/><path d="M1770.83,520.833l0,-520.833" style="fill:none;fill-rule:nonzero;stroke:#000;stroke-width:8.33px;"/><path d="M1770.83,520.833l520.834,0" style="fill:none;fill-rule:nonzero;stroke:#000;stroke-width:8.33px;"/><path d="M1770.83,520.833l-520.833,0" style="fill:none;fill-rule:nonzero;stroke:#000;stroke-width:8.33px;"/></g><path d="M1919.64,446.429l74.405,-0" style="fill:none;fill-rule:nonzero;stroke:#20ff20;stroke-width:8.33px;"/><path d="M1919.64,446.429l-0,-74.405" style="fill:none;fill-rule:nonzero;stroke:#f00;stroke-width:8.33px;"/><path d="M1956.85,186.012l37.203,409.226l-223.215,111.607l186.012,-520.833Z" style="fill:none;fill-rule:nonzero;stroke:#afafff;stroke-width:8.33px;"/><g id="g_axes2" serif:id="g_axes"><path d="M2500,1041.67l0,-1041.67m74.405,1041.67l-0,-1041.67m74.405,1041.67l-0,-1041.67m74.404,1041.67l0,-1041.67m74.405,1041.67l0,-1041.67m74.405,1041.67l-0,-1041.67m74.405,1041.67l-0,-1041.67m74.404,1041.67l0,-1041.67m74.405,1041.67l0,-1041.67m74.405,1041.67l-0,-1041.67m74.405,1041.67l-0,-1041.67m74.404,1041.67l0,-1041.67m74.405,1041.67l0,-1041.67m74.405,1041.67l-0,-1041.67m74.405,1041.67l-0,-1041.67m-1041.67,1041.67l1041.67,-0m-1041.67,-74.405l1041.67,-0m-1041.67,-74.405l1041.67,0m-1041.67,-74.405l1041.67,0m-1041.67,-74.404l1041.67,-0m-1041.67,-74.405l1041.67,-0m-1041.67,-74.405l1041.67,0m-1041.67,-74.405l1041.67,0m-1041.67,-74.404l1041.67,-0m-1041.67,-74.405l1041.67,-0m-1041.67,-74.405l1041.67,0m-1041.67,-74.405l1041.67,0m-1041.67,-74.404l1041.67,-0m-1041.67,-74.405l1041.67,-0m-1041.67,-74.405l1041.67,-0" style="fill:none;fill-rule:nonzero;stroke:#ccc;stroke-width:4.17px;"/><path d="M3020.83,520.833l0,520.834" style="fill:none;fill-rule:nonzero;stroke:#000;stroke-width:8.33px;"/><path d="M3020.83,520.833l0,-520.833" style="fill:none;fill-rule:nonzero;stroke:#000;stroke-width:8.33px;"/><path d="M3020.83,520.833l520.834,0" style="fill:none;fill-rule:nonzero;stroke:#000;stroke-width:8.33px;"/><path d="M3020.83,520.833l-520.833,0" style="fill:none;fill-rule:nonzero;stroke:#000;stroke-width:8.33px;"/></g><path d="M3318.45,483.631l148.81,-0" style="fill:none;fill-rule:nonzero;stroke:#20ff20;stroke-width:8.33px;"/><path d="M3318.45,483.631l0,-37.202" style="fill:none;fill-rule:nonzero;stroke:#f00;stroke-width:8.33px;"/><path d="M3392.86,353.423l74.405,204.613l-446.429,55.803l372.024,-260.416Z" style="fill:none;fill-rule:nonzero;stroke:#afafff;stroke-width:8.33px;"/><g id="g_axes3" serif:id="g_axes"><path d="M0,2291.67l0,-1041.67m74.405,1041.67l-0,-1041.67m74.405,1041.67l-0,-1041.67m74.404,1041.67l0,-1041.67m74.405,1041.67l0,-1041.67m74.405,1041.67l-0,-1041.67m74.405,1041.67l-0,-1041.67m74.404,1041.67l0,-1041.67m74.405,1041.67l0,-1041.67m74.405,1041.67l-0,-1041.67m74.405,1041.67l-0,-1041.67m74.404,1041.67l0,-1041.67m74.405,1041.67l0,-1041.67m74.405,1041.67l-0,-1041.67m74.405,1041.67l-0,-1041.67m-1041.67,1041.67l1041.67,-0m-1041.67,-74.405l1041.67,-0m-1041.67,-74.405l1041.67,0m-1041.67,-74.405l1041.67,0m-1041.67,-74.404l1041.67,-0m-1041.67,-74.405l1041.67,-0m-1041.67,-74.405l1041.67,0m-1041.67,-74.405l1041.67,0m-1041.67,-74.404l1041.67,-0m-1041.67,-74.405l1041.67,-0m-1041.67,-74.405l1041.67,0m-1041.67,-74.405l1041.67,0m-1041.67,-74.404l1041.67,-0m-1041.67,-74.405l1041.67,-0m-1041.67,-74.405l1041.67,0" style="fill:none;fill-rule:nonzero;stroke:#ccc;stroke-width:4.17px;"/><path d="M520.833,1770.83l0,520.834" style="fill:none;fill-rule:nonzero;stroke:#000;stroke-width:8.33px;"/><path d="M520.833,1770.83l0,-520.833" style="fill:none;fill-rule:nonzero;stroke:#000;stroke-width:8.33px;"/><path d="M520.833,1770.83l520.834,0" style="fill:none;fill-rule:nonzero;stroke:#000;stroke-width:8.33px;"/><path d="M520.833,1770.83l-520.833,0" style="fill:none;fill-rule:nonzero;stroke:#000;stroke-width:8.33px;"/></g><path d="M520.833,1770.83l74.405,0" style="fill:none;fill-rule:nonzero;stroke:#20ff20;stroke-width:8.33px;"/><path d="M520.833,1770.83l0,-74.404" style="fill:none;fill-rule:nonzero;stroke:#f00;stroke-width:8.33px;"/><path d="M558.036,1510.42l37.202,409.226l-223.214,111.607l186.012,-520.833Z" style="fill:none;fill-rule:nonzero;stroke:#afafff;stroke-width:8.33px;"/><g id="g_axes4" serif:id="g_axes"><path d="M1250,2291.67l0,-1041.67m74.405,1041.67l-0,-1041.67m74.405,1041.67l-0,-1041.67m74.404,1041.67l0,-1041.67m74.405,1041.67l0,-1041.67m74.405,1041.67l-0,-1041.67m74.405,1041.67l-0,-1041.67m74.404,1041.67l0,-1041.67m74.405,1041.67l0,-1041.67m74.405,1041.67l-0,-1041.67m74.405,1041.67l-0,-1041.67m74.404,1041.67l0,-1041.67m74.405,1041.67l0,-1041.67m74.405,1041.67l-0,-1041.67m74.405,1041.67l-0,-1041.67m-1041.67,1041.67l1041.67,-0m-1041.67,-74.405l1041.67,-0m-1041.67,-74.405l1041.67,0m-1041.67,-74.405l1041.67,0m-1041.67,-74.404l1041.67,-0m-1041.67,-74.405l1041.67,-0m-1041.67,-74.405l1041.67,0m-1041.67,-74.405l1041.67,0m-1041.67,-74.404l1041.67,-0m-1041.67,-74.405l1041.67,-0m-1041.67,-74.405l1041.67,0m-1041.67,-74.405l1041.67,0m-1041.67,-74.404l1041.67,-0m-1041.67,-74.405l1041.67,-0m-1041.67,-74.405l1041.67,0" style="fill:none;fill-rule:nonzero;stroke:#ccc;stroke-width:4.17px;"/><path d="M1770.83,1770.83l0,520.834" style="fill:none;fill-rule:nonzero;stroke:#000;stroke-width:8.33px;"/><path d="M1770.83,1770.83l0,-520.833" style="fill:none;fill-rule:nonzero;stroke:#000;stroke-width:8.33px;"/><path d="M1770.83,1770.83l520.834,0" style="fill:none;fill-rule:nonzero;stroke:#000;stroke-width:8.33px;"/><path d="M1770.83,1770.83l-520.833,0" style="fill:none;fill-rule:nonzero;stroke:#000;stroke-width:8.33px;"/></g><path d="M1770.83,1770.83l148.81,0" style="fill:none;fill-rule:nonzero;stroke:#20ff20;stroke-width:8.33px;"/><path d="M1770.83,1770.83l0,-37.202" style="fill:none;fill-rule:nonzero;stroke:#f00;stroke-width:8.33px;"/><path d="M1845.24,1640.62l74.405,204.613l-446.429,55.804l372.024,-260.417Z" style="fill:none;fill-rule:nonzero;stroke:#afafff;stroke-width:8.33px;"/><g id="g_axes5" serif:id="g_axes"><path d="M2500,2291.67l0,-1041.67m74.405,1041.67l-0,-1041.67m74.405,1041.67l-0,-1041.67m74.404,1041.67l0,-1041.67m74.405,1041.67l0,-1041.67m74.405,1041.67l-0,-1041.67m74.405,1041.67l-0,-1041.67m74.404,1041.67l0,-1041.67m74.405,1041.67l0,-1041.67m74.405,1041.67l-0,-1041.67m74.405,1041.67l-0,-1041.67m74.404,1041.67l0,-1041.67m74.405,1041.67l0,-1041.67m74.405,1041.67l-0,-1041.67m74.405,1041.67l-0,-1041.67m-1041.67,1041.67l1041.67,-0m-1041.67,-74.405l1041.67,-0m-1041.67,-74.405l1041.67,0m-1041.67,-74.405l1041.67,0m-1041.67,-74.404l1041.67,-0m-1041.67,-74.405l1041.67,-0m-1041.67,-74.405l1041.67,0m-1041.67,-74.405l1041.67,0m-1041.67,-74.404l1041.67,-0m-1041.67,-74.405l1041.67,-0m-1041.67,-74.405l1041.67,0m-1041.67,-74.405l1041.67,0m-1041.67,-74.404l1041.67,-0m-1041.67,-74.405l1041.67,-0m-1041.67,-74.405l1041.67,0" style="fill:none;fill-rule:nonzero;stroke:#ccc;stroke-width:4.17px;"/><path d="M3020.83,1770.83l0,520.834" style="fill:none;fill-rule:nonzero;stroke:#000;stroke-width:8.33px;"/><path d="M3020.83,1770.83l0,-520.833" style="fill:none;fill-rule:nonzero;stroke:#000;stroke-width:8.33px;"/><path d="M3020.83,1770.83l520.834,0" style="fill:none;fill-rule:nonzero;stroke:#000;stroke-width:8.33px;"/><path d="M3020.83,1770.83l-520.833,0" style="fill:none;fill-rule:nonzero;stroke:#000;stroke-width:8.33px;"/></g><path d="M3169.64,1696.43l148.809,-0" style="fill:none;fill-rule:nonzero;stroke:#20ff20;stroke-width:8.33px;"/><path d="M3169.64,1696.43l-0,-37.203" style="fill:none;fill-rule:nonzero;stroke:#f00;stroke-width:8.33px;"/><path d="M3244.05,1566.22l74.404,204.613l-446.428,55.804l372.024,-260.417Z" style="fill:none;fill-rule:nonzero;stroke:#afafff;stroke-width:8.33px;"/><text x="1104.17px" y="562.5px" style="font-family:'IBMPlexSans-Regular', 'IBM Plex Sans', sans-serif;font-size:125px;">T</text><text x="2354.17px" y="562.5px" style="font-family:'IBMPlexSans-Regular', 'IBM Plex Sans', sans-serif;font-size:125px;">S</text><text x="1104.17px" y="1812.5px" style="font-family:'IBMPlexSans-Regular', 'IBM Plex Sans', sans-serif;font-size:125px;">S</text><text x="2354.17px" y="1812.5px" style="font-family:'IBMPlexSans-Regular', 'IBM Plex Sans', sans-serif;font-size:125px;">T</text></svg>