<?xml version="1.0" encoding="UTF-8" standalone="no"?><!DOCTYPE svg PUBLIC "-//W3C//DTD SVG 1.1//EN" "http://www.w3.org/Graphics/SVG/1.1/DTD/svg11.dtd"><svg width="1459px" height="1459px" version="1.1" xmlns="http://www.w3.org/2000/svg" xmlns:xlink="http://www.w3.org/1999/xlink" xml:space="preserve" xmlns:serif="http://www.serif.com/" style="fill-rule:evenodd;clip-rule:evenodd;"><g id="g_point"><circle cx="1093.75" cy="145.833" r="18.75"/></g><g id="g_point1" serif:id="g_point"><circle cx="1306.99" cy="1069.45" r="18.75"/></g><g id="g_point2" serif:id="g_point"><circle cx="960.455" cy="1231.43" r="18.75"/></g><g id="g_point3" serif:id="g_point"><circle cx="745.99" cy="702.365" r="18.75"/></g><g id="g_point4" serif:id="g_point"><circle cx="289.322" cy="774.321" r="18.75"/></g><g id="g_point5" serif:id="g_point"><circle cx="241.176" cy="342.666" r="18.75"/></g><path d="M1093.75,145.833l213.235,923.622l-346.53,161.976l133.295,-1085.6Z" style="fill:none;fill-rule:nonzero;stroke:#000;stroke-width:4.17px;"/><path d="M1093.75,145.833l-133.295,1085.6l-214.465,-529.066l347.76,-556.532Z" style="fill:none;fill-rule:nonzero;stroke:#000;stroke-width:4.17px;"/><path d="M1093.75,145.833l-347.76,556.532l-456.668,71.956l804.428,-628.488Z" style="fill:none;fill-rule:nonzero;stroke:#000;stroke-width:4.17px;"/><path d="M1093.75,145.833l-804.428,628.488l-48.146,-431.655l852.574,-196.833Z" style="fill:none;fill-rule:nonzero;stroke:#000;stroke-width:4.17px;"/><path d="M1093.75,145.833l213.235,923.622l-346.53,161.976l-214.465,-529.066l-456.668,71.956l-48.146,-431.655" style="fill:none;fill-rule:nonzero;stroke:#f00;stroke-opacity:0.5;stroke-width:16.67px;stroke-linecap:round;stroke-linejoin:round;"/><text x="1102.08px" y="112.5px" style="font-family:'IBMPlexSans-Regular', 'IBM Plex Sans', sans-serif;font-size:83.333px;stroke:#000;stroke-width:4.17px;">0</text><text x="1305.42px" y="1170.95px" style="font-family:'IBMPlexSans-Regular', 'IBM Plex Sans', sans-serif;font-size:83.333px;stroke:#000;stroke-width:4.17px;">1</text><text x="922.761px" y="1334.82px" style="font-family:'IBMPlexSans-Regular', 'IBM Plex Sans', sans-serif;font-size:83.333px;stroke:#000;stroke-width:4.17px;">2</text><text x="665.791px" y="790.703px" style="font-family:'IBMPlexSans-Regular', 'IBM Plex Sans', sans-serif;font-size:83.333px;stroke:#000;stroke-width:4.17px;">3</text><text x="182.238px" y="838.452px" style="font-family:'IBMPlexSans-Regular', 'IBM Plex Sans', sans-serif;font-size:83.333px;stroke:#000;stroke-width:4.17px;">4</text><text x="114.679px" y="366.098px" style="font-family:'IBMPlexSans-Regular', 'IBM Plex Sans', sans-serif;font-size:83.333px;stroke:#000;stroke-width:4.17px;">5</text></svg>