<?xml version="1.0" encoding="UTF-8" standalone="no"?><!DOCTYPE svg PUBLIC "-//W3C//DTD SVG 1.1//EN" "http://www.w3.org/Graphics/SVG/1.1/DTD/svg11.dtd"><svg width="2917px" height="2084px" version="1.1" xmlns="http://www.w3.org/2000/svg" xmlns:xlink="http://www.w3.org/1999/xlink" xml:space="preserve" xmlns:serif="http://www.serif.com/" style="fill-rule:evenodd;clip-rule:evenodd;"><g id="Background"><rect id="rect3910" x="41.667" y="208.333" width="1166.67" height="833.333" style="fill:#efecfd;stroke:#000;stroke-width:4.17px;"/><rect id="rect3768" x="625" y="1500" width="2250" height="541.667" style="fill:#f8ffd2;stroke:#000;stroke-width:4.17px;"/><rect id="rect3858" x="1458.33" y="166.667" width="1458.33" height="250" style="fill:url(#_Linear1);stroke:url(#_Linear2);stroke-width:4.17px;"/></g><g id="Top"><g transform="matrix(4.16667,0,0,4.16667,108.333,1708.33)"><text x="0px" y="0px" style="font-family:'IBMPlexSans-Regular', 'IBM Plex Sans', sans-serif;font-size:32px;">OpenGL</text><g transform="matrix(32,0,0,32,111.712,40)"></g><text x="0px" y="40px" style="font-family:'IBMPlexSans-Regular', 'IBM Plex Sans', sans-serif;font-size:32px;">Cont<tspan x="67.072px 84.256px " y="40px 40px ">ex</tspan>t</text></g><text x="1000px" y="1666.67px" style="font-family:'IBMPlexSans-Regular', 'IBM Plex Sans', sans-serif;font-size:133.333px;fill:#f00;">0</text><rect id="rect3798" x="833.333" y="1541.67" width="416.667" height="166.667" style="fill:none;stroke:#000;stroke-width:4.17px;"/><rect id="rect3800" x="1250" y="1541.67" width="416.667" height="166.667" style="fill:none;stroke:#000;stroke-width:4.17px;"/><rect id="rect3802" x="1666.67" y="1541.67" width="416.667" height="166.667" style="fill:none;stroke:#000;stroke-width:4.17px;"/><rect id="rect3804" x="2083.33" y="1541.67" width="416.667" height="166.667" style="fill:none;stroke:#000;stroke-width:4.17px;"/><text x="1416.67px" y="1666.67px" style="font-family:'IBMPlexSans-Regular', 'IBM Plex Sans', sans-serif;font-size:133.333px;fill:#f00;">1</text><text x="1833.33px" y="1666.67px" style="font-family:'IBMPlexSans-Regular', 'IBM Plex Sans', sans-serif;font-size:133.333px;fill:#f00;">2</text><text x="2250px" y="1666.67px" style="font-family:'IBMPlexSans-Regular', 'IBM Plex Sans', sans-serif;font-size:133.333px;fill:#f00;">3</text><text x="2541.67px" y="1666.67px" style="font-family:'IBMPlexSans-Regular', 'IBM Plex Sans', sans-serif;font-size:133.333px;fill:#f00;">...</text><text x="958.167px" y="1875px" style="font-family:'IBMPlexSans-Regular', 'IBM Plex Sans', sans-serif;font-size:133.333px;">Unif<tspan x="1200.3px " y="1875px ">o</tspan>rm Buff<tspan x="1720.43px " y="1875px ">e</tspan>r Binding P<tspan x="2436.57px " y="1875px ">o</tspan>ints</text><text x="1541.67px" y="333.333px" style="font-family:'IBMPlexSans-Regular', 'IBM Plex Sans', sans-serif;font-size:133.333px;">Unif<tspan x="1783.8px " y="333.333px ">o</tspan>rm Buff<tspan x="2303.93px " y="333.333px ">e</tspan>r Object</text><path id="path3888" d="M2166.67,416.667c-0,1125 -708.334,-0 -708.334,1125" style="fill:none;fill-rule:nonzero;stroke:#000;stroke-width:4.17px;"/><path id="path3890" d="M1375,1416.67l83.333,125l83.334,-125" style="fill:none;fill-rule:nonzero;stroke:#000;stroke-width:4.17px;"/><text x="158.8px" y="166.667px" style="font-family:'IBMPlexSans-Regular', 'IBM Plex Sans', sans-serif;font-size:133.333px;">P<tspan x="238.267px 286.533px " y="166.667px 166.667px ">ro</tspan>gr<tspan x="480px " y="166.667px ">a</tspan>m Object</text><g transform="matrix(4.16667,0,0,4.16667,136.556,333.333)"><text x="0px" y="0px" style="font-family:'IBMPlexSans-Regular', 'IBM Plex Sans', sans-serif;font-size:20px;">Block Inde<tspan x="96.72px " y="0px ">x</tspan></text><g transform="matrix(20,0,0,20,122.703,0)"></g><text x="111.58px" y="0px" style="font-family:'ArialMT', 'Arial', sans-serif;font-size:20px;">0</text></g><text x="136.556px" y="425px" style="font-family:'IBMPlexSans-Regular', 'IBM Plex Sans', sans-serif;font-size:83.333px;">Block Binding</text><rect id="rect3960" x="83.333" y="250" width="666.667" height="208.333" style="fill:none;stroke:#000;stroke-width:4.17px;"/><g transform="matrix(4.16667,0,0,4.16667,136.556,583.333)"><text x="0px" y="0px" style="font-family:'IBMPlexSans-Regular', 'IBM Plex Sans', sans-serif;font-size:20px;">Block Inde<tspan x="96.72px " y="0px ">x</tspan></text><g transform="matrix(20,0,0,20,122.703,0)"></g><text x="111.58px" y="0px" style="font-family:'ArialMT', 'Arial', sans-serif;font-size:20px;">1</text></g><g transform="matrix(4.16667,0,0,4.16667,136.556,675)"><text x="0px" y="0px" style="font-family:'IBMPlexSans-Regular', 'IBM Plex Sans', sans-serif;font-size:20px;">Block Binding</text><g transform="matrix(20,0,0,20,138.803,0)"></g><text x="127.68px" y="0px" style="font-family:'ArialMT', 'Arial', sans-serif;font-size:20px;fill:#f00;">1</text></g><rect id="rect3960-6" x="83.333" y="500" width="666.667" height="208.333" style="fill:none;stroke:#000;stroke-width:4.17px;"/><g id="text3107"></g><g id="text3101"></g><g id="text3095"></g><path id="path4047" d="M708.333,708.333c0,416.667 375,708.334 625,833.334" style="fill:none;fill-rule:nonzero;stroke:#f00;stroke-width:8.33px;stroke-dasharray:25,25;"/><rect id="rect4147" x="2500" y="1541.67" width="375" height="166.667" style="fill:none;stroke:url(#_Linear3);stroke-width:4.17px;"/><text x="1666.67px" y="1083.33px" style="font-family:'IBMPlexSans-Regular', 'IBM Plex Sans', sans-serif;font-size:83.333px;">glBindBuff<tspan x="2059.67px " y="1083.33px ">e</tspan>rR<tspan x="2188.5px " y="1083.33px ">a</tspan>ng<tspan x="2323.83px " y="1083.33px ">e</tspan>()</text><text x="41.667px" y="1427.98px" style="font-family:'IBMPlexSans-Regular', 'IBM Plex Sans', sans-serif;font-size:83.333px;fill:#f00;">glUnif<tspan x="259.667px " y="1427.98px ">o</tspan>rmBlockBinding()</text></g><defs><linearGradient id="_Linear1" x1="0" y1="0" x2="1" y2="0" gradientUnits="userSpaceOnUse" gradientTransform="matrix(1462.5,0,0,1462.5,1456.25,291.667)"><stop offset="0" style="stop-color:#d2fff1;stop-opacity:1"/><stop offset="0.86" style="stop-color:#d2fff1;stop-opacity:1"/><stop offset="1" style="stop-color:#d2fff1;stop-opacity:0"/></linearGradient><linearGradient id="_Linear2" x1="0" y1="0" x2="1" y2="0" gradientUnits="userSpaceOnUse" gradientTransform="matrix(1045.83,0,0,1045.83,1872.92,312.5)"><stop offset="0" style="stop-color:#000;stop-opacity:1"/><stop offset="0.72" style="stop-color:#000;stop-opacity:1"/><stop offset="1" style="stop-color:#000;stop-opacity:0"/></linearGradient><linearGradient id="_Linear3" x1="0" y1="0" x2="1" y2="0" gradientUnits="userSpaceOnUse" gradientTransform="matrix(379.167,0,0,379.167,2497.92,1625)"><stop offset="0" style="stop-color:#000;stop-opacity:1"/><stop offset="0.32" style="stop-color:#000;stop-opacity:1"/><stop offset="1" style="stop-color:#000;stop-opacity:0"/></linearGradient></defs></svg>