<?xml version="1.0" encoding="UTF-8" standalone="no"?><!DOCTYPE svg PUBLIC "-//W3C//DTD SVG 1.1//EN" "http://www.w3.org/Graphics/SVG/1.1/DTD/svg11.dtd"><svg width="2917px" height="1250px" version="1.1" xmlns="http://www.w3.org/2000/svg" xmlns:xlink="http://www.w3.org/1999/xlink" xml:space="preserve" xmlns:serif="http://www.serif.com/" style="fill-rule:evenodd;clip-rule:evenodd;"><g id="g_triangle"><path d="M375,250l625,500l-875,250l250,-750Z" style="fill:none;fill-rule:nonzero;stroke:#000;stroke-width:4.17px;"/></g><g id="g_triangle1" serif:id="g_triangle"><path d="M2041.67,250l625,500l-875,250l250,-750Z" style="fill:none;fill-rule:nonzero;stroke:#000;stroke-width:4.17px;"/></g><g id="g_cwLabels"><text x="345.833px" y="200px" style="font-family:'IBMPlexSans-Regular', 'IBM Plex Sans', sans-serif;font-size:125px;stroke:#000;stroke-width:4.17px;">1</text><text x="1037.5px" y="779.167px" style="font-family:'IBMPlexSans-Regular', 'IBM Plex Sans', sans-serif;font-size:125px;stroke:#000;stroke-width:4.17px;">2</text><text x="20.833px" y="1104.17px" style="font-family:'IBMPlexSans-Regular', 'IBM Plex Sans', sans-serif;font-size:125px;stroke:#000;stroke-width:4.17px;">3</text></g><g id="g_cwCircle"><path d="M635.313,588.542c13.712,23.751 20.933,50.699 20.933,78.125c0,85.714 -70.531,156.247 -156.246,156.25c-85.715,-0.003 -156.246,-70.536 -156.246,-156.25c-0,-27.426 7.221,-54.374 20.934,-78.125c27.877,-48.28 79.561,-78.118 135.312,-78.118c55.751,-0 107.435,29.838 135.312,78.118" style="fill:none;fill-rule:nonzero;stroke:#000;stroke-width:4.17px;"/></g><g id="g_ccwLabels"><text x="2012.5px" y="200px" style="font-family:'IBMPlexSans-Regular', 'IBM Plex Sans', sans-serif;font-size:125px;stroke:#000;stroke-width:4.17px;">1</text><text x="1687.5px" y="1104.17px" style="font-family:'IBMPlexSans-Regular', 'IBM Plex Sans', sans-serif;font-size:125px;stroke:#000;stroke-width:4.17px;">2</text><text x="2704.17px" y="779.167px" style="font-family:'IBMPlexSans-Regular', 'IBM Plex Sans', sans-serif;font-size:125px;stroke:#000;stroke-width:4.17px;">3</text></g><g id="g_ccwCircle"><path d="M2301.98,744.792c13.713,-23.752 20.934,-50.7 20.934,-78.125c-0,-85.715 -70.532,-156.248 -156.246,-156.25c-85.715,0.002 -156.246,70.535 -156.246,156.25c-0,27.425 7.22,54.373 20.933,78.125c27.878,48.28 79.562,78.118 135.313,78.118c55.75,-0 107.434,-29.838 135.312,-78.118" style="fill:none;fill-rule:nonzero;stroke:#000;stroke-width:4.17px;"/></g></svg>