<?xml version="1.0" encoding="UTF-8" standalone="no"?>
<!DOCTYPE svg PUBLIC "-//W3C//DTD SVG 1.1//EN" "http://www.w3.org/Graphics/SVG/1.1/DTD/svg11.dtd">
<svg width="100%" height="100%" viewBox="0 0 301 301" version="1.1" xmlns="http://www.w3.org/2000/svg" xmlns:xlink="http://www.w3.org/1999/xlink" xml:space="preserve" xmlns:serif="http://www.serif.com/" style="fill-rule:evenodd;clip-rule:evenodd;">
    <path d="M180,45L255,195L45,240L180,45Z" style="fill:none;fill-rule:nonzero;stroke:black;stroke-width:1px;"/>
    <path d="M160,160L180,45M160,160L255,195M160,160L45,240" style="fill:none;fill-rule:nonzero;stroke:rgb(238,130,238);stroke-opacity:0.5;stroke-width:4px;"/>
    <g id="g_point" transform="matrix(1,0,0,1,180,45)">
        <circle cx="0" cy="0" r="5" style="stroke:black;stroke-width:1px;"/>
    </g>
    <g id="g_point1" serif:id="g_point" transform="matrix(1,0,0,1,255,195)">
        <circle cx="0" cy="0" r="5" style="stroke:black;stroke-width:1px;"/>
    </g>
    <g id="g_point2" serif:id="g_point" transform="matrix(1,0,0,1,45,240)">
        <circle cx="0" cy="0" r="5" style="stroke:black;stroke-width:1px;"/>
    </g>
    <g id="g_point3" serif:id="g_point" transform="matrix(1,0,0,1,160,160)">
        <circle cx="0" cy="0" r="5" style="stroke:black;stroke-width:1px;"/>
    </g>
    <g transform="matrix(1,0,0,1,160,185)">
        <text x="-7.575px" y="0px" style="font-family:'IBMPlexSans-Regular', 'IBM Plex Sans', sans-serif;font-size:25px;">P</text>
    </g>
    <g transform="matrix(1,0,0,1,182,110.5)">
        <text x="-8.05px" y="0px" style="font-family:'IBMPlexSans-Regular', 'IBM Plex Sans', sans-serif;font-size:25px;">α</text>
    </g>
    <g transform="matrix(1,0,0,1,216.5,168.5)">
        <text x="-7.3px" y="0px" style="font-family:'IBMPlexSans-Regular', 'IBM Plex Sans', sans-serif;font-size:25px;">β</text>
    </g>
    <g transform="matrix(1,0,0,1,102.5,187)">
        <text x="-6.275px" y="0px" style="font-family:'IBMPlexSans-Regular', 'IBM Plex Sans', sans-serif;font-size:25px;">γ</text>
    </g>
    <g transform="matrix(1,0,0,1,195,40)">
        <text x="-8.012px" y="0px" style="font-family:'IBMPlexSans-Regular', 'IBM Plex Sans', sans-serif;font-size:25px;">A</text>
    </g>
    <g transform="matrix(1,0,0,1,273,200)">
        <text x="-8.162px" y="0px" style="font-family:'IBMPlexSans-Regular', 'IBM Plex Sans', sans-serif;font-size:25px;">B</text>
    </g>
    <g transform="matrix(1,0,0,1,27,250)">
        <text x="-7.763px" y="0px" style="font-family:'IBMPlexSans-Regular', 'IBM Plex Sans', sans-serif;font-size:25px;">C</text>
    </g>
</svg>
