<?xml version="1.0" encoding="UTF-8" standalone="no"?>
<!DOCTYPE svg PUBLIC "-//W3C//DTD SVG 1.1//EN" "http://www.w3.org/Graphics/SVG/1.1/DTD/svg11.dtd">
<svg width="100%" height="100%" viewBox="0 0 350 250" version="1.1" xmlns="http://www.w3.org/2000/svg" xmlns:xlink="http://www.w3.org/1999/xlink" xml:space="preserve" xmlns:serif="http://www.serif.com/" style="fill-rule:evenodd;clip-rule:evenodd;">
    <g id="g_axes">
        <path d="M175,183.333L175,250" style="fill:none;fill-rule:nonzero;stroke:black;stroke-width:1px;"/>
        <path d="M175,183.333L175,0" style="fill:none;fill-rule:nonzero;stroke:black;stroke-width:1px;"/>
        <path d="M175,183.333L350,183.333" style="fill:none;fill-rule:nonzero;stroke:black;stroke-width:1px;"/>
        <path d="M175,183.333L0,183.333" style="fill:none;fill-rule:nonzero;stroke:black;stroke-width:1px;"/>
    </g>
    <path d="M320.833,183.333L320.833,183.333C320.833,103.332 255.002,37.5 175,37.5C94.998,37.5 29.167,103.332 29.167,183.333L29.167,183.333" style="fill:none;fill-rule:nonzero;stroke:black;stroke-width:1px;"/>
    <path d="M175,183.333L292.982,183.333" style="fill:none;fill-rule:nonzero;stroke:rgb(0,100,0);stroke-width:2px;"/>
    <g transform="matrix(1,0,0,1,233.991,205.333)">
        <text x="0px" y="0px" style="font-family:'IBMPlexSans-Regular', 'IBM Plex Sans', sans-serif;font-size:25px;fill:rgb(0,100,0);">X</text>
    </g>
    <path d="M292.982,183.333L292.982,97.615" style="fill:none;fill-rule:nonzero;stroke:rgb(255,140,0);stroke-width:2px;"/>
    <g transform="matrix(1,0,0,1,297.982,150.474)">
        <text x="0px" y="0px" style="font-family:'IBMPlexSans-Regular', 'IBM Plex Sans', sans-serif;font-size:25px;fill:rgb(255,140,0);">Y</text>
    </g>
    <path d="M175,183.333L292.982,97.615" style="fill:none;fill-rule:nonzero;stroke:rgb(0,100,0);stroke-width:2px;"/>
    <g transform="matrix(1,0,0,1,228.991,125.474)">
        <text x="0px" y="0px" style="font-family:'IBMPlexSans-Regular', 'IBM Plex Sans', sans-serif;font-size:25px;fill:rgb(0,100,0);">R</text>
    </g>
</svg>
