<?xml version="1.0" encoding="UTF-8" standalone="no"?>
<!DOCTYPE svg PUBLIC "-//W3C//DTD SVG 1.1//EN" "http://www.w3.org/Graphics/SVG/1.1/DTD/svg11.dtd">
<svg width="100%" height="100%" viewBox="0 0 600 600" version="1.1" xmlns="http://www.w3.org/2000/svg" xmlns:xlink="http://www.w3.org/1999/xlink" xml:space="preserve" xmlns:serif="http://www.serif.com/" style="fill-rule:evenodd;clip-rule:evenodd;">
    <rect x="50" y="20" width="530" height="530" style="fill:rgb(245,245,245);"/>
    <path d="M50,497L580,497M50,444L580,444M50,391L580,391M50,338L580,338M50,285L580,285M50,232L580,232M50,179L580,179M50,126L580,126M50,73L580,73M315,550L315,20" style="fill:none;fill-rule:nonzero;stroke:rgb(211,211,211);stroke-width:1px;"/>
    <path d="M50,550L580,20" style="fill:none;fill-rule:nonzero;stroke:rgb(128,128,128);stroke-width:1px;"/>
    <clipPath id="_clip1">
        <rect x="50" y="20" width="530" height="530"/>
    </clipPath>
    <g clip-path="url(#_clip1)">
        <path d="M50,550L63.25,549.842L76.5,549.272L89.75,548.224L103,546.656L116.25,544.536L129.5,541.84L142.75,538.546L156,534.635L169.25,530.09L182.5,524.896L195.75,519.04L209,512.508L222.25,505.288L235.5,497.371L248.75,488.745L262,479.399L275.25,469.326L288.5,458.516L301.75,446.961L315,434.652L328.25,421.582L341.5,407.743L354.75,393.128L368,377.73L381.25,361.543L394.5,344.56L407.75,326.774L421,308.18L434.25,288.772L447.5,268.544L460.75,247.49L474,225.605L487.25,202.884L493.875,191.208L500.5,179.321L507.125,167.223L513.75,154.912L520.375,142.389L527,129.652L533.625,116.7L545.219,93.519L553.914,75.7L560.436,62.091L570.218,41.283L580,20" style="fill:none;fill-rule:nonzero;stroke:rgb(255,0,0);stroke-width:4px;"/>
    </g>
    <clipPath id="_clip2">
        <rect x="50" y="20" width="530" height="530"/>
    </clipPath>
    <g clip-path="url(#_clip2)">
        <path d="M50,550L50.414,529.493L52.07,507.379L55.383,484.197L58.695,468.169L65.32,444.141L71.945,425.356L78.57,409.477L85.195,395.504L91.82,382.905L105.07,360.637L118.32,341.14L131.57,323.615L144.82,307.584L158.07,292.735L171.32,278.849L184.57,265.768L197.82,253.372L211.07,241.569L224.32,230.285L237.57,219.459L250.82,209.043L264.07,198.996L277.32,189.282L290.57,179.872L303.82,170.741L317.07,161.867L330.32,153.23L343.57,144.812L356.82,136.6L370.07,128.579L383.32,120.736L396.57,113.062L409.82,105.547L423.07,98.181L436.32,90.956L449.57,83.866L462.82,76.902L476.07,70.059L489.32,63.332L502.57,56.714L515.82,50.201L529.07,43.789L541.803,37.717L560.901,28.768L580,20" style="fill:none;fill-rule:nonzero;stroke:rgb(255,0,0);stroke-width:4px;stroke-dasharray:21,6;"/>
    </g>
    <g transform="matrix(1,0,0,1,222.25,141.9)">
        <g>
            <text x="-100.17px" y="0px" style="font-family:'IBMPlexSans-Regular', 'IBM Plex Sans', sans-serif;font-size:30px;fill:rgb(139,0,0);">gamma</text>
            <text x="-137.01px" y="30px" style="font-family:'IBMPlexSans-Regular', 'IBM Plex Sans', sans-serif;font-size:30px;fill:rgb(139,0,0);">c<tspan x="-122.1px " y="30px ">o</tspan>rr<tspan x="-83.43px " y="30px ">e</tspan>ction</text>
            <g transform="matrix(30,0,0,30,-3.55271e-15,60)">
            </g>
            <text x="-73.65px" y="60px" style="font-family:'IBMPlexSans-Regular', 'IBM Plex Sans', sans-serif;font-size:30px;fill:rgb(139,0,0);">1/2.2</text>
        </g>
    </g>
    <g transform="matrix(1,0,0,1,421,351.25)">
        <g>
            <text x="0px" y="0px" style="font-family:'IBMPlexSans-Regular', 'IBM Plex Sans', sans-serif;font-size:30px;fill:rgb(139,0,0);">CR<tspan x="37.11px " y="0px ">T</tspan></text>
            <text x="0px" y="30px" style="font-family:'IBMPlexSans-Regular', 'IBM Plex Sans', sans-serif;font-size:30px;fill:rgb(139,0,0);">gamma</text>
            <g transform="matrix(30,0,0,30,44.16,60)">
            </g>
            <text x="0px" y="60px" style="font-family:'IBMPlexSans-Regular', 'IBM Plex Sans', sans-serif;font-size:30px;fill:rgb(139,0,0);">2.2</text>
        </g>
    </g>
    <path d="M315,285L315,423.652" style="fill:none;fill-rule:nonzero;stroke:rgb(233,150,122);stroke-width:3px;"/>
    <path d="M165.348,434.652L165.348,296" style="fill:none;fill-rule:nonzero;stroke:rgb(233,150,122);stroke-width:3px;stroke-dasharray:14,5;"/>
    <g transform="matrix(1,0,0,1,300,285)">
        <text x="-29.44px" y="0px" style="font-family:'IBMPlexSans-Regular', 'IBM Plex Sans', sans-serif;font-size:20px;fill:rgb(233,150,122);">0.5</text>
    </g>
    <g transform="matrix(1,0,0,1,300,434.652)">
        <text x="-53.44px" y="0px" style="font-family:'IBMPlexSans-Regular', 'IBM Plex Sans', sans-serif;font-size:20px;fill:rgb(233,150,122);">0.218</text>
    </g>
    <g transform="matrix(1,0,0,1,150.348,434.652)">
        <text x="-53.44px" y="0px" style="font-family:'IBMPlexSans-Regular', 'IBM Plex Sans', sans-serif;font-size:20px;fill:rgb(233,150,122);">0.218</text>
    </g>
    <g transform="matrix(1,0,0,1,150.348,285)">
        <text x="-29.44px" y="0px" style="font-family:'IBMPlexSans-Regular', 'IBM Plex Sans', sans-serif;font-size:20px;fill:rgb(233,150,122);">0.5</text>
    </g>
    <g transform="matrix(1,0,0,1,50,575)">
        <text x="-4.5px" y="0px" style="font-family:'IBMPlexSans-Regular', 'IBM Plex Sans', sans-serif;font-size:15px;">0</text>
    </g>
    <g transform="matrix(1,0,0,1,103,575)">
        <text x="-11.04px" y="0px" style="font-family:'IBMPlexSans-Regular', 'IBM Plex Sans', sans-serif;font-size:15px;">0.1</text>
    </g>
    <g transform="matrix(1,0,0,1,156,575)">
        <text x="-11.04px" y="0px" style="font-family:'IBMPlexSans-Regular', 'IBM Plex Sans', sans-serif;font-size:15px;">0.2</text>
    </g>
    <g transform="matrix(1,0,0,1,209,575)">
        <text x="-11.04px" y="0px" style="font-family:'IBMPlexSans-Regular', 'IBM Plex Sans', sans-serif;font-size:15px;">0.3</text>
    </g>
    <g transform="matrix(1,0,0,1,262,575)">
        <text x="-11.04px" y="0px" style="font-family:'IBMPlexSans-Regular', 'IBM Plex Sans', sans-serif;font-size:15px;">0.4</text>
    </g>
    <g transform="matrix(1,0,0,1,315,575)">
        <text x="-11.04px" y="0px" style="font-family:'IBMPlexSans-Regular', 'IBM Plex Sans', sans-serif;font-size:15px;">0.5</text>
    </g>
    <g transform="matrix(1,0,0,1,368,575)">
        <text x="-11.04px" y="0px" style="font-family:'IBMPlexSans-Regular', 'IBM Plex Sans', sans-serif;font-size:15px;">0.6</text>
    </g>
    <g transform="matrix(1,0,0,1,421,575)">
        <text x="-11.04px" y="0px" style="font-family:'IBMPlexSans-Regular', 'IBM Plex Sans', sans-serif;font-size:15px;">0.7</text>
    </g>
    <g transform="matrix(1,0,0,1,474,575)">
        <text x="-11.04px" y="0px" style="font-family:'IBMPlexSans-Regular', 'IBM Plex Sans', sans-serif;font-size:15px;">0.8</text>
    </g>
    <g transform="matrix(1,0,0,1,527,575)">
        <text x="-11.04px" y="0px" style="font-family:'IBMPlexSans-Regular', 'IBM Plex Sans', sans-serif;font-size:15px;">0.9</text>
    </g>
    <g transform="matrix(1,0,0,1,580,575)">
        <text x="-4.5px" y="0px" style="font-family:'IBMPlexSans-Regular', 'IBM Plex Sans', sans-serif;font-size:15px;">1</text>
    </g>
    <g transform="matrix(1,0,0,1,40,555.5)">
        <text x="-9px" y="0px" style="font-family:'IBMPlexSans-Regular', 'IBM Plex Sans', sans-serif;font-size:15px;">0</text>
    </g>
    <g transform="matrix(1,0,0,1,40,502.5)">
        <text x="-22.08px" y="0px" style="font-family:'IBMPlexSans-Regular', 'IBM Plex Sans', sans-serif;font-size:15px;">0.1</text>
    </g>
    <g transform="matrix(1,0,0,1,40,449.5)">
        <text x="-22.08px" y="0px" style="font-family:'IBMPlexSans-Regular', 'IBM Plex Sans', sans-serif;font-size:15px;">0.2</text>
    </g>
    <g transform="matrix(1,0,0,1,40,396.5)">
        <text x="-22.08px" y="0px" style="font-family:'IBMPlexSans-Regular', 'IBM Plex Sans', sans-serif;font-size:15px;">0.3</text>
    </g>
    <g transform="matrix(1,0,0,1,40,343.5)">
        <text x="-22.08px" y="0px" style="font-family:'IBMPlexSans-Regular', 'IBM Plex Sans', sans-serif;font-size:15px;">0.4</text>
    </g>
    <g transform="matrix(1,0,0,1,40,290.5)">
        <text x="-22.08px" y="0px" style="font-family:'IBMPlexSans-Regular', 'IBM Plex Sans', sans-serif;font-size:15px;">0.5</text>
    </g>
    <g transform="matrix(1,0,0,1,40,237.5)">
        <text x="-22.08px" y="0px" style="font-family:'IBMPlexSans-Regular', 'IBM Plex Sans', sans-serif;font-size:15px;">0.6</text>
    </g>
    <g transform="matrix(1,0,0,1,40,184.5)">
        <text x="-22.08px" y="0px" style="font-family:'IBMPlexSans-Regular', 'IBM Plex Sans', sans-serif;font-size:15px;">0.7</text>
    </g>
    <g transform="matrix(1,0,0,1,40,131.5)">
        <text x="-22.08px" y="0px" style="font-family:'IBMPlexSans-Regular', 'IBM Plex Sans', sans-serif;font-size:15px;">0.8</text>
    </g>
    <g transform="matrix(1,0,0,1,40,78.5)">
        <text x="-22.08px" y="0px" style="font-family:'IBMPlexSans-Regular', 'IBM Plex Sans', sans-serif;font-size:15px;">0.9</text>
    </g>
    <g transform="matrix(1,0,0,1,40,25.5)">
        <text x="-9px" y="0px" style="font-family:'IBMPlexSans-Regular', 'IBM Plex Sans', sans-serif;font-size:15px;">1</text>
    </g>
    <path d="M50,550L50,555M103,550L103,555M156,550L156,555M209,550L209,555M262,550L262,555M315,550L315,555M368,550L368,555M421,550L421,555M474,550L474,555M527,550L527,555M580,550L580,555M50,550L45,550M50,497L45,497M50,444L45,444M50,391L45,391M50,338L45,338M50,285L45,285M50,232L45,232M50,179L45,179M50,126L45,126M50,73L45,73M50,20L45,20" style="fill:none;fill-rule:nonzero;stroke:black;stroke-width:0.5px;"/>
    <path d="M50,20L580,20M580,20L580,550" style="fill:none;fill-rule:nonzero;stroke:rgb(128,128,128);stroke-width:1px;"/>
    <path d="M50,20L50,550M50,550L580,550" style="fill:none;fill-rule:nonzero;stroke:black;stroke-width:2px;"/>
</svg>
