<?xml version="1.0" encoding="UTF-8" standalone="no"?>
<!DOCTYPE svg PUBLIC "-//W3C//DTD SVG 1.1//EN" "http://www.w3.org/Graphics/SVG/1.1/DTD/svg11.dtd">
<svg width="100%" height="100%" viewBox="0 0 600 300" version="1.1" xmlns="http://www.w3.org/2000/svg" xmlns:xlink="http://www.w3.org/1999/xlink" xml:space="preserve" xmlns:serif="http://www.serif.com/" style="fill-rule:evenodd;clip-rule:evenodd;">
    <g id="g_axes">
        <path d="M0,300L0,0M30,300L30,0M60,300L60,0M90,300L90,0M120,300L120,0M150,300L150,0M180,300L180,0M210,300L210,0M240,300L240,0M270,300L270,0M300,300L300,0M330,300L330,0M360,300L360,0M390,300L390,0M420,300L420,0M450,300L450,0M480,300L480,0M510,300L510,0M540,300L540,0M570,300L570,0M600,300L600,0M0,300L600,300M0,270L600,270M0,240L600,240M0,210L600,210M0,180L600,180M0,150L600,150M0,120L600,120M0,90L600,90M0,60L600,60M0,30L600,30M0,0L600,0" style="fill:none;fill-rule:nonzero;stroke:rgb(204,204,204);stroke-width:1px;"/>
        <path d="M300,270L300,300" style="fill:none;fill-rule:nonzero;stroke:black;stroke-width:2px;"/>
        <path d="M300,270L300,0" style="fill:none;fill-rule:nonzero;stroke:black;stroke-width:2px;"/>
        <path d="M300,270L600,270" style="fill:none;fill-rule:nonzero;stroke:black;stroke-width:2px;"/>
        <path d="M300,270L0,270" style="fill:none;fill-rule:nonzero;stroke:black;stroke-width:2px;"/>
    </g>
    <path d="M-300,270L-105,270L-82.5,270L-67.5,270L-60,270L-52.5,270L-45,270L-37.5,270L-30,270L-22.5,270L-15,270L-7.5,270L0,270L7.5,269.999L15,269.999L22.5,269.998L30,269.996L37.5,269.993L45,269.989L52.5,269.981L60,269.968L67.5,269.947L75,269.915L82.5,269.866L90,269.791L97.5,269.678L105,269.513L112.5,269.275L120,268.936L127.5,268.464L135,267.818L142.5,266.946L150,265.793L157.5,264.295L165,262.382L172.5,259.987L180,257.042L187.5,253.491L195,249.293L202.5,244.431L210,238.916L217.5,232.797L225,226.164L232.5,219.15L240,211.927L247.5,204.707L255,197.727L262.5,191.241L270,185.504L277.5,180.755L285,177.2L292.5,174.999L300,174.254L307.5,174.999L315,177.2L322.5,180.755L330,185.504L337.5,191.241L345,197.727L352.5,204.707L360,211.927L367.5,219.15L375,226.164L382.5,232.797L390,238.916L397.5,244.431L405,249.293L412.5,253.491L420,257.042L427.5,259.987L435,262.382L442.5,264.295L450,265.793L457.5,266.946L465,267.818L472.5,268.464L480,268.936L487.5,269.275L495,269.513L502.5,269.678L510,269.791L517.5,269.866L525,269.915L532.5,269.947L540,269.968L547.5,269.981L555,269.989L562.5,269.993L570,269.996L577.5,269.998L585,269.999L592.5,269.999L600,270L607.5,270L615,270L622.5,270L630,270L637.5,270L645,270L652.5,270L660,270L667.5,270L682.5,270L900,270" style="fill:none;fill-rule:nonzero;stroke:rgb(255,0,0);stroke-width:1px;"/>
    <path d="M-300,270L112.5,270L127.5,270L135,270L142.5,270L150,270L157.5,270L165,269.999L172.5,269.997L180,269.99L187.5,269.967L195,269.899L202.5,269.709L210,269.228L217.5,268.104L225,265.693L232.5,260.954L240,252.426L247.5,238.425L255,217.534L262.5,189.371L270,155.403L277.5,119.365L285,86.875L292.5,64.107L300,55.905L307.5,64.107L315,86.875L322.5,119.365L330,155.403L337.5,189.371L345,217.534L352.5,238.425L360,252.426L367.5,260.954L375,265.693L382.5,268.104L390,269.228L397.5,269.709L405,269.899L412.5,269.967L420,269.99L427.5,269.997L435,269.999L442.5,270L450,270L457.5,270L465,270L472.5,270L900,270" style="fill:none;fill-rule:nonzero;stroke:rgb(0,0,255);stroke-width:1px;"/>
    <path d="M-300,269.998L-292.5,269.998L-285,269.997L-277.5,269.996L-270,269.995L-262.5,269.993L-255,269.992L-247.5,269.99L-240,269.987L-232.5,269.984L-225,269.98L-217.5,269.975L-210,269.969L-202.5,269.961L-195,269.953L-187.5,269.942L-180,269.929L-172.5,269.913L-165,269.895L-157.5,269.872L-150,269.846L-142.5,269.814L-135,269.777L-127.5,269.733L-120,269.681L-112.5,269.621L-105,269.55L-97.5,269.469L-90,269.374L-82.5,269.264L-75,269.139L-67.5,268.995L-60,268.83L-52.5,268.643L-45,268.431L-37.5,268.191L-30,267.921L-22.5,267.618L-15,267.28L-7.5,266.903L0,266.485L7.5,266.023L15,265.515L22.5,264.957L30,264.348L37.5,263.685L45,262.966L52.5,262.19L60,261.355L67.5,260.461L75,259.507L82.5,258.493L90,257.422L97.5,256.293L105,255.109L112.5,253.874L120,252.591L127.5,251.265L135,249.9L142.5,248.503L150,247.081L157.5,245.641L165,244.191L172.5,242.74L180,241.298L187.5,239.873L195,238.477L202.5,237.118L210,235.808L217.5,234.557L225,233.375L232.5,232.271L240,231.256L247.5,230.337L255,229.523L262.5,228.821L270,228.238L277.5,227.779L285,227.448L292.5,227.248L300,227.181L307.5,227.248L315,227.448L322.5,227.779L330,228.238L337.5,228.821L345,229.523L352.5,230.337L360,231.256L367.5,232.271L375,233.375L382.5,234.557L390,235.808L397.5,237.118L405,238.477L412.5,239.873L420,241.298L427.5,242.74L435,244.191L442.5,245.641L450,247.081L457.5,248.503L465,249.9L472.5,251.265L480,252.591L487.5,253.874L495,255.109L502.5,256.293L510,257.422L517.5,258.493L525,259.507L532.5,260.461L540,261.355L547.5,262.19L555,262.966L562.5,263.685L570,264.348L577.5,264.957L585,265.515L592.5,266.023L600,266.485L607.5,266.903L615,267.28L622.5,267.618L630,267.921L637.5,268.191L645,268.431L652.5,268.643L660,268.83L667.5,268.995L675,269.139L682.5,269.264L690,269.374L697.5,269.469L705,269.55L712.5,269.621L720,269.681L727.5,269.733L735,269.777L742.5,269.814L750,269.846L757.5,269.872L765,269.895L772.5,269.913L780,269.929L787.5,269.942L795,269.953L802.5,269.961L810,269.969L817.5,269.975L825,269.98L832.5,269.984L840,269.987L847.5,269.99L855,269.992L862.5,269.993L870,269.995L877.5,269.996L885,269.997L892.5,269.998L900,269.998" style="fill:none;fill-rule:nonzero;stroke:rgb(255,165,0);stroke-width:1px;"/>
    <g id="g_point" transform="matrix(1,0,0,1,420,270)">
        <circle cx="0" cy="0" r="4"/>
    </g>
    <g transform="matrix(1,0,0,1,420,290)">
        <text x="-4.2px" y="0px" style="font-family:'IBMPlexSans-Regular', 'IBM Plex Sans', sans-serif;font-size:14px;">8</text>
    </g>
    <g id="g_point1" serif:id="g_point" transform="matrix(1,0,0,1,180,270)">
        <circle cx="0" cy="0" r="4"/>
    </g>
    <g transform="matrix(1,0,0,1,180,290)">
        <text x="-6.993px" y="0px" style="font-family:'IBMPlexSans-Regular', 'IBM Plex Sans', sans-serif;font-size:14px;">-8</text>
    </g>
    <g id="g_point2" serif:id="g_point" transform="matrix(1,0,0,1,540,270)">
        <circle cx="0" cy="0" r="4"/>
    </g>
    <g transform="matrix(1,0,0,1,540,290)">
        <text x="-8.4px" y="0px" style="font-family:'IBMPlexSans-Regular', 'IBM Plex Sans', sans-serif;font-size:14px;">16</text>
    </g>
    <g id="g_point3" serif:id="g_point" transform="matrix(1,0,0,1,60,270)">
        <circle cx="0" cy="0" r="4"/>
    </g>
    <g transform="matrix(1,0,0,1,60,290)">
        <text x="-11.193px" y="0px" style="font-family:'IBMPlexSans-Regular', 'IBM Plex Sans', sans-serif;font-size:14px;">-16</text>
    </g>
    <g id="g_point4" serif:id="g_point" transform="matrix(1,0,0,1,300,30)">
        <circle cx="0" cy="0" r="4"/>
    </g>
    <g transform="matrix(1,0,0,1,320,35)">
        <text x="-4.2px" y="0px" style="font-family:'IBMPlexSans-Regular', 'IBM Plex Sans', sans-serif;font-size:14px;">1</text>
    </g>
    <path d="M441,45L476,45" style="fill:none;fill-rule:nonzero;stroke:rgb(255,0,0);stroke-width:1px;"/>
    <g transform="matrix(1,0,0,1,486,50)">
        <text x="0px" y="0px" style="font-family:'IBMPlexSans-Regular', 'IBM Plex Sans', sans-serif;font-size:14px;">σ = 1</text>
    </g>
    <path d="M441,75L476,75" style="fill:none;fill-rule:nonzero;stroke:rgb(0,0,255);stroke-width:1px;"/>
    <g transform="matrix(1,0,0,1,486,80)">
        <text x="0px" y="0px" style="font-family:'IBMPlexSans-Regular', 'IBM Plex Sans', sans-serif;font-size:14px;">σ = 0.2</text>
    </g>
    <path d="M441,105L476,105" style="fill:none;fill-rule:nonzero;stroke:rgb(255,165,0);stroke-width:1px;"/>
    <g transform="matrix(1,0,0,1,486,110)">
        <text x="0px" y="0px" style="font-family:'IBMPlexSans-Regular', 'IBM Plex Sans', sans-serif;font-size:14px;">σ = 5</text>
    </g>
</svg>
