<?xml version="1.0" encoding="UTF-8" standalone="no"?>
<!DOCTYPE svg PUBLIC "-//W3C//DTD SVG 1.1//EN" "http://www.w3.org/Graphics/SVG/1.1/DTD/svg11.dtd">
<svg width="100%" height="100%" viewBox="0 0 400 150" version="1.1" xmlns="http://www.w3.org/2000/svg" xmlns:xlink="http://www.w3.org/1999/xlink" xml:space="preserve" xmlns:serif="http://www.serif.com/" style="fill-rule:evenodd;clip-rule:evenodd;">
    <rect x="0" y="112.5" width="400" height="37.5" style="fill:rgb(173,216,230);"/>
    <path d="M200,112.5L200,37.5" style="fill:none;fill-rule:nonzero;stroke:black;stroke-width:1px;"/>
    <path d="M200,112.5L68.75,75" style="fill:none;fill-rule:nonzero;stroke:black;stroke-width:1px;"/>
    <path d="M200,112.5L237.5,37.5" style="fill:none;fill-rule:nonzero;stroke:black;stroke-width:1px;"/>
    <path d="M200,112.5L272.114,91.896" style="fill:none;fill-rule:nonzero;stroke:rgb(0,128,0);stroke-width:1px;"/>
    <path d="M200,112.5L169.8,43.849" style="fill:none;fill-rule:nonzero;stroke:rgb(0,128,0);stroke-width:1px;"/>
    <g transform="matrix(1,0,0,1,210,37.5)">
        <text x="-4.949px" y="0px" style="font-family:'IBMPlexSans-Regular', 'IBM Plex Sans', sans-serif;font-size:14px;">N</text>
    </g>
    <g transform="matrix(1,0,0,1,58.75,79)">
        <text x="-3.507px" y="0px" style="font-family:'IBMPlexSans-Regular', 'IBM Plex Sans', sans-serif;font-size:14px;">L</text>
    </g>
    <g transform="matrix(1,0,0,1,245.5,37.5)">
        <text x="-4.263px" y="0px" style="font-family:'IBMPlexSans-Regular', 'IBM Plex Sans', sans-serif;font-size:14px;">V</text>
    </g>
    <g transform="matrix(1,0,0,1,276.114,83.8959)">
        <text x="-4.48px" y="0px" style="font-family:'IBMPlexSans-Regular', 'IBM Plex Sans', sans-serif;font-size:14px;">R</text>
    </g>
    <g transform="matrix(1,0,0,1,165.8,39.8489)">
        <text x="-4.949px" y="0px" style="font-family:'IBMPlexSans-Regular', 'IBM Plex Sans', sans-serif;font-size:14px;">H</text>
    </g>
</svg>
