<?xml version="1.0" encoding="UTF-8" standalone="no"?>
<!DOCTYPE svg PUBLIC "-//W3C//DTD SVG 1.1//EN" "http://www.w3.org/Graphics/SVG/1.1/DTD/svg11.dtd">
<svg width="100%" height="100%" viewBox="0 0 400 150" version="1.1" xmlns="http://www.w3.org/2000/svg" xmlns:xlink="http://www.w3.org/1999/xlink" xml:space="preserve" xmlns:serif="http://www.serif.com/" style="fill-rule:evenodd;clip-rule:evenodd;">
    <rect x="0" y="112.5" width="400" height="37.5" style="fill:rgb(173,216,230);"/>
    <path d="M68.75,75L200,112.5" style="fill:none;fill-rule:nonzero;stroke:rgb(173,216,230);stroke-width:1px;"/>
    <path d="M125,37.5L200,112.5" style="fill:none;fill-rule:nonzero;stroke:rgb(173,216,230);stroke-width:1px;"/>
    <path d="M331.25,75L200,112.5" style="fill:none;fill-rule:nonzero;stroke:rgb(173,216,230);stroke-width:1px;"/>
    <circle cx="68.75" cy="75" r="20" style="fill:rgb(255,255,0);"/>
    <g id="g_point" transform="matrix(1,0,0,1,331.25,75)">
        <circle cx="0" cy="0" r="4"/>
    </g>
    <g transform="matrix(1,0,0,1,343.25,80)">
        <text x="-4.48px" y="0px" style="font-family:'IBMPlexSans-Regular', 'IBM Plex Sans', sans-serif;font-size:14px;">R</text>
    </g>
    <g id="g_point1" serif:id="g_point" transform="matrix(1,0,0,1,200,112.5)">
        <circle cx="0" cy="0" r="4"/>
    </g>
    <g transform="matrix(1,0,0,1,200,132.5)">
        <text x="-4.242px" y="0px" style="font-family:'IBMPlexSans-Regular', 'IBM Plex Sans', sans-serif;font-size:14px;">P</text>
    </g>
    <g id="g_point2" serif:id="g_point" transform="matrix(1,0,0,1,125,37.5)">
        <circle cx="0" cy="0" r="4"/>
    </g>
    <g transform="matrix(1,0,0,1,113,42.5)">
        <text x="-4.263px" y="0px" style="font-family:'IBMPlexSans-Regular', 'IBM Plex Sans', sans-serif;font-size:14px;">V</text>
    </g>
</svg>
