<?xml version="1.0" encoding="UTF-8" standalone="no"?>
<!DOCTYPE svg PUBLIC "-//W3C//DTD SVG 1.1//EN" "http://www.w3.org/Graphics/SVG/1.1/DTD/svg11.dtd">
<svg width="100%" height="100%" viewBox="0 0 500 300" version="1.1" xmlns="http://www.w3.org/2000/svg" xmlns:xlink="http://www.w3.org/1999/xlink" xml:space="preserve" xmlns:serif="http://www.serif.com/" style="fill-rule:evenodd;clip-rule:evenodd;">
    <rect x="-0" y="240" width="500" height="90" style="fill:rgb(173,216,230);"/>
    <path d="M40,60L160,240" style="fill:none;fill-rule:nonzero;stroke:rgb(173,216,230);stroke-width:1px;"/>
    <path d="M40,60L250,240" style="fill:none;fill-rule:nonzero;stroke:rgb(173,216,230);stroke-width:1px;"/>
    <path d="M280,60L160,240" style="fill:none;fill-rule:nonzero;stroke:rgb(173,216,230);stroke-width:1px;"/>
    <path d="M460,60L250,240" style="fill:none;fill-rule:nonzero;stroke:rgb(173,216,230);stroke-width:1px;"/>
    <circle cx="40" cy="60" r="20" style="fill:rgb(255,255,0);"/>
    <g transform="matrix(1,0,0,1,292,65)">
        <text x="-4.487px" y="0px" style="font-family:'IBMPlexSans-Regular', 'IBM Plex Sans', sans-serif;font-size:14px;">A</text>
    </g>
    <g id="g_point" transform="matrix(1,0,0,1,280,60)">
        <circle cx="0" cy="0" r="4"/>
    </g>
    <g transform="matrix(1,0,0,1,472,65)">
        <text x="-4.571px" y="0px" style="font-family:'IBMPlexSans-Regular', 'IBM Plex Sans', sans-serif;font-size:14px;">B</text>
    </g>
    <g id="g_point1" serif:id="g_point" transform="matrix(1,0,0,1,460,60)">
        <circle cx="0" cy="0" r="4"/>
    </g>
    <g id="g_point2" serif:id="g_point" transform="matrix(1,0,0,1,160,240)">
        <circle cx="0" cy="0" r="4"/>
    </g>
    <g transform="matrix(1,0,0,1,160,260)">
        <text x="-4.242px" y="0px" style="font-family:'IBMPlexSans-Regular', 'IBM Plex Sans', sans-serif;font-size:14px;">P</text>
    </g>
</svg>
